<svg width="140" height="140" viewBox="0 0 140 140" fill="none" xmlns="http://www.w3.org/2000/svg">
<rect x="20" y="20" width="100" height="100" rx="12" fill="#EEEEEE"/>
<path d="M49.6667 90.3333H91.3333C92.1667 90.3333 92.7917 89.9514 93.2083 89.1875C93.625 88.4236 93.5556 87.6944 93 87L81.5417 71.6875C81.125 71.1319 80.5694 70.8542 79.875 70.8542C79.1806 70.8542 78.625 71.1319 78.2083 71.6875L67.375 86.1667L59.6667 75.8542C59.25 75.2986 58.6944 75.0208 58 75.0208C57.3056 75.0208 56.75 75.2986 56.3333 75.8542L48 87C47.4444 87.6944 47.375 88.4236 47.7917 89.1875C48.2083 89.9514 48.8333 90.3333 49.6667 90.3333ZM41.3333 107C39.0417 107 37.0792 106.185 35.4458 104.554C33.8153 102.921 33 100.958 33 98.6667V40.3333C33 38.0417 33.8153 36.0792 35.4458 34.4458C37.0792 32.8153 39.0417 32 41.3333 32H99.6667C101.958 32 103.921 32.8153 105.554 34.4458C107.185 36.0792 108 38.0417 108 40.3333V98.6667C108 100.958 107.185 102.921 105.554 104.554C103.921 106.185 101.958 107 99.6667 107H41.3333Z" fill="white"/>
</svg>
