<svg width="9" height="13" viewBox="0 0 9 13" fill="none" xmlns="http://www.w3.org/2000/svg">
<path fill-rule="evenodd" clip-rule="evenodd" d="M3.94842 0.959371C3.98779 0.759401 4.12908 0.5959 4.31917 0.530342C4.50926 0.464783 4.71933 0.507105 4.87041 0.641394C5.52962 1.22736 6.04075 1.85508 6.287 2.54995C6.54267 3.27143 6.49385 4.01276 6.12807 4.75565C6.06391 4.886 6.00508 4.9981 5.95206 5.09912C5.74368 5.49614 5.625 5.72227 5.625 6.21429C5.625 6.44162 5.71389 6.65964 5.87213 6.82038C6.03036 6.98113 6.24497 7.07143 6.46875 7.07143C6.69253 7.07143 6.90714 6.98113 7.06537 6.82038C7.22361 6.65964 7.3125 6.44162 7.3125 6.21429C7.3125 5.97181 7.46314 5.75573 7.68831 5.67526C7.91347 5.59478 8.16411 5.66742 8.31357 5.85648C8.71527 6.36459 9 7.1438 9 7.92858C9 8.5289 8.8836 9.12335 8.65746 9.67798C8.43131 10.2326 8.09984 10.7366 7.68198 11.1611C7.26412 11.5856 6.76804 11.9223 6.22208 12.152C5.67611 12.3818 5.09095 12.5 4.5 12.5C3.90905 12.5 3.32389 12.3818 2.77792 12.152C2.23196 11.9223 1.73588 11.5856 1.31802 11.1611C0.900156 10.7366 0.568687 10.2326 0.342542 9.67798C0.116395 9.12335 0 8.5289 0 7.92858C0 6.57396 0.67257 5.33591 1.89861 4.33951C2.92455 3.50573 3.69418 2.25074 3.94842 0.959371Z" fill="#3CE3AC"/>
</svg>
