<svg width="369" height="800" viewBox="0 0 369 800" fill="none" xmlns="http://www.w3.org/2000/svg">
<g clip-path="url(#clip0_66_1342)">
<rect width="369" height="800" fill="#1D1D29"/>
<path d="M34.2398 331.722C34.7548 326.176 41.8914 324.263 45.1105 328.809L50.7874 336.825C51.7995 338.254 53.3854 339.169 55.129 339.331L64.9095 340.24C70.4555 340.755 72.3678 347.891 67.8224 351.11L59.8064 356.787C58.3773 357.799 57.4617 359.385 57.2997 361.129L56.3914 370.91C55.8763 376.456 48.7397 378.368 45.5206 373.822L39.8437 365.806C38.8316 364.377 37.2457 363.462 35.5021 363.3L25.7216 362.391C20.1756 361.876 18.2633 354.74 22.8088 351.521L30.8248 345.844C32.2538 344.832 33.1694 343.246 33.3314 341.502L34.2398 331.722Z" fill="white" fill-opacity="0.03"/>
<path d="M77.3389 537.629C81.6247 534.071 88.0232 537.766 87.0853 543.256L85.4314 552.938C85.1365 554.664 85.6105 556.433 86.7289 557.781L93.0025 565.339C96.5598 569.625 92.8657 576.023 87.3754 575.085L77.693 573.431C75.9668 573.136 74.198 573.61 72.8506 574.729L65.2924 581.002C61.0066 584.56 54.6081 580.866 55.5459 575.375L57.1999 565.693C57.4948 563.967 57.0208 562.198 55.9024 560.85L49.6288 553.292C46.0714 549.006 49.7656 542.608 55.2559 543.546L64.9383 545.2C66.6644 545.495 68.4333 545.021 69.7807 543.902L77.3389 537.629Z" fill="white" fill-opacity="0.03"/>
<path d="M294.525 291.491C296.232 290.074 298.78 291.545 298.407 293.732L297.748 297.587C297.631 298.275 297.819 298.979 298.265 299.516L300.763 302.526C302.18 304.232 300.708 306.78 298.522 306.407L294.666 305.748C293.979 305.631 293.275 305.819 292.738 306.265L289.728 308.763C288.022 310.18 285.474 308.709 285.847 306.522L286.506 302.667C286.623 301.979 286.434 301.275 285.989 300.738L283.491 297.728C282.074 296.022 283.545 293.474 285.732 293.847L289.587 294.506C290.275 294.623 290.979 294.435 291.516 293.989L294.525 291.491Z" fill="white" fill-opacity="0.03"/>
<path d="M349.847 240.732C349.474 238.545 352.022 237.074 353.728 238.491L356.738 240.989C357.275 241.435 357.979 241.623 358.667 241.506L362.522 240.847C364.709 240.474 366.18 243.022 364.763 244.728L362.265 247.738C361.819 248.275 361.631 248.979 361.748 249.667L362.407 253.522C362.78 255.709 360.232 257.18 358.526 255.763L355.516 253.265C354.979 252.819 354.275 252.631 353.587 252.748L349.732 253.407C347.545 253.78 346.074 251.232 347.491 249.526L349.989 246.516C350.435 245.979 350.623 245.275 350.506 244.587L349.847 240.732Z" fill="white" fill-opacity="0.03"/>
<path fill-rule="evenodd" clip-rule="evenodd" d="M360.049 96.4456C370.078 107.295 374.583 117.262 371.032 123.413C367.481 129.564 356.596 130.647 342.186 127.386C327.028 139.167 305.4 141.189 287.464 130.833C269.527 120.477 260.464 100.737 263.088 81.7188C253.059 70.8697 248.554 60.902 252.105 54.7509C255.656 48.5999 266.541 47.5177 280.951 50.7784C296.109 38.9972 317.737 36.9756 335.673 47.3312C353.61 57.6868 362.673 77.4278 360.049 96.4456Z" fill="white" fill-opacity="0.03"/>
<path fill-rule="evenodd" clip-rule="evenodd" d="M360.049 667.446C370.078 678.295 374.583 688.262 371.032 694.413C367.481 700.564 356.596 701.647 342.186 698.386C327.028 710.167 305.4 712.189 287.464 701.833C269.527 691.477 260.464 671.737 263.088 652.719C253.059 641.87 248.554 631.902 252.105 625.751C255.656 619.6 266.541 618.518 280.951 621.778C296.109 609.997 317.737 607.976 335.673 618.331C353.61 628.687 362.673 648.428 360.049 667.446Z" fill="white" fill-opacity="0.03"/>
</g>
<defs>
<clipPath id="clip0_66_1342">
<rect width="369" height="800" fill="white"/>
</clipPath>
</defs>
</svg>
