<svg width="10" height="10" viewBox="0 0 10 10" fill="none" xmlns="http://www.w3.org/2000/svg">
<path d="M4.06517 0.604527C4.44756 -0.201508 5.55244 -0.20151 5.93483 0.604525L6.67231 2.15901C6.82416 2.47909 7.11769 2.70094 7.45724 2.75227L9.10628 3.00154C9.96135 3.13079 10.3028 4.22392 9.68404 4.85133L8.49078 6.06133C8.24508 6.31048 8.13296 6.66944 8.19097 7.02124L8.47266 8.72978C8.61872 9.6157 7.72486 10.2913 6.96006 9.87302L5.48511 9.06635C5.18141 8.90026 4.81859 8.90026 4.51489 9.06635L3.03994 9.87302C2.27514 10.2913 1.38128 9.6157 1.52734 8.72979L1.80903 7.02124C1.86704 6.66944 1.75492 6.31048 1.50922 6.06133L0.315958 4.85133C-0.302775 4.22392 0.0386482 3.1308 0.893715 3.00154L2.54276 2.75227C2.88231 2.70094 3.17584 2.47909 3.32769 2.15901L4.06517 0.604527Z" fill="#FFEA2D"/>
</svg>
