<svg width="39" height="39" viewBox="0 0 39 39" fill="none" xmlns="http://www.w3.org/2000/svg">
<circle cx="19.5" cy="19.5" r="19" stroke="#EEEEEE"/>
<path d="M29.68 19.7188C29.68 19.0362 29.6158 18.38 29.4967 17.75H20V21.4731H25.4267C25.1929 22.6762 24.4825 23.6956 23.4146 24.3781V26.7931H26.6733C28.58 25.1175 29.68 22.65 29.68 19.7188Z" fill="#4285F4"/>
<path d="M20 29.1249C22.7225 29.1249 25.005 28.263 26.6733 26.793L23.4146 24.378C22.5116 24.9555 21.3566 25.2967 20 25.2967C17.3737 25.2967 15.1508 23.6036 14.3579 21.3286H10.9891V23.8224C12.6483 26.968 16.0583 29.1249 20 29.1249Z" fill="#34A853"/>
<path d="M14.3579 21.329C14.1562 20.7515 14.0416 20.1346 14.0416 19.5002C14.0416 18.8659 14.1562 18.249 14.3579 17.6715V15.1777H10.9891C10.2833 16.519 9.916 17.9993 9.91663 19.5002C9.91663 21.0534 10.3062 22.5234 10.9891 23.8227L14.3579 21.329Z" fill="#FBBC05"/>
<path d="M20 13.7031C21.4804 13.7031 22.8096 14.1888 23.8546 15.1425L26.7466 12.3819C25.0004 10.8288 22.7179 9.875 20 9.875C16.0583 9.875 12.6483 12.0319 10.9891 15.1775L14.3579 17.6713C15.1508 15.3963 17.3737 13.7031 20 13.7031Z" fill="#EA4335"/>
</svg>
