<svg width="22" height="22" viewBox="0 0 22 22" fill="none" xmlns="http://www.w3.org/2000/svg">
<path d="M8.94337 1.32996C9.78464 -0.443317 12.2154 -0.443321 13.0566 1.32996L14.6791 4.74983C15.0132 5.454 15.6589 5.94207 16.4059 6.05499L20.0338 6.60339C21.915 6.88775 22.6661 9.29263 21.3049 10.6729L18.6797 13.3349C18.1392 13.883 17.8925 14.6728 18.0201 15.4467L18.6398 19.2055C18.9612 21.1545 16.9947 22.6408 15.3121 21.7206L12.0672 19.946C11.3991 19.5806 10.6009 19.5806 9.93276 19.946L6.68786 21.7206C5.00531 22.6408 3.03882 21.1545 3.36015 19.2055L3.97987 15.4467C4.10748 14.6728 3.86082 13.883 3.32028 13.3349L0.695107 10.6729C-0.666104 9.29263 0.085026 6.88775 1.96617 6.60339L5.59408 6.05499C6.34108 5.94207 6.98685 5.454 7.32092 4.74983L8.94337 1.32996Z" fill="#3CE3AC"/>
</svg>
