<svg width="8" height="10" viewBox="0 0 8 10" fill="none" xmlns="http://www.w3.org/2000/svg">
<path fill-rule="evenodd" clip-rule="evenodd" d="M3.79035 0.38281C3.82316 0.216167 3.9409 0.0799168 4.09931 0.0252849C4.25772 -0.0293471 4.43278 0.00592078 4.55867 0.117829C5.10801 0.60613 5.53396 1.12924 5.73917 1.70829C5.95223 2.30952 5.91154 2.9273 5.60672 3.54638C5.55326 3.655 5.50423 3.74841 5.46005 3.8326C5.2864 4.16345 5.1875 4.35189 5.1875 4.76191C5.1875 4.95135 5.26158 5.13303 5.39344 5.26699C5.5253 5.40094 5.70414 5.47619 5.89062 5.47619C6.07711 5.47619 6.25595 5.40094 6.38781 5.26699C6.51967 5.13303 6.59375 4.95135 6.59375 4.76191C6.59375 4.55984 6.71929 4.37978 6.90692 4.31271C7.09455 4.24565 7.30342 4.30618 7.42798 4.46373C7.76273 4.88716 8 5.5365 8 6.19048C8 6.69075 7.903 7.18613 7.71455 7.64832C7.52609 8.11051 7.24987 8.53047 6.90165 8.88422C6.55343 9.23796 6.14003 9.51857 5.68506 9.71002C5.23009 9.90147 4.74246 10 4.25 10C3.75754 10 3.26991 9.90147 2.81494 9.71002C2.35997 9.51857 1.94657 9.23796 1.59835 8.88422C1.25013 8.53047 0.973907 8.11051 0.785451 7.64832C0.596996 7.18613 0.5 6.69075 0.5 6.19048C0.5 5.06163 1.06048 4.02992 2.08217 3.19959C2.93712 2.50478 3.57849 1.45895 3.79035 0.38281Z" fill="#B3B3B3"/>
</svg>
