<svg width="369" height="350" viewBox="0 0 369 350" fill="none" xmlns="http://www.w3.org/2000/svg">
<g clip-path="url(#clip0_2569_15277)">
<circle cx="184" cy="175" r="100" fill="#FFD7D5"/>
</g>
<g filter="url(#filter0_d_2569_15277)">
<path d="M88.1231 207.77L161.603 188.41C162.793 188.097 164.046 188.116 165.226 188.465L200.42 198.893C204.655 200.148 206.551 205.077 204.247 208.846L169.895 265.058C167.698 268.654 162.771 269.366 159.646 266.538L138.141 247.081C132.986 242.417 127.139 238.581 120.809 235.709L87.0581 220.396C81.2967 217.782 82.0053 209.382 88.1231 207.77Z" fill="#780C06"/>
<path d="M207.031 210.63L207.104 210.283C234.544 211.946 257.087 192.381 260.845 163.714C265.246 130.223 245.161 97.7825 209.963 90.2068C174.767 82.6264 143.752 104.128 133.392 136.271C124.801 162.925 141.569 187.371 159.5 198.578C159.5 198.578 139.137 197.992 135.153 203.822C134.464 204.825 134.164 206.707 134.922 207.665C135.746 208.716 137.228 212.563 138.207 213.707C139.087 214.743 142.911 215.344 144.371 214.827L156.138 213.707C155.68 214.328 153.227 216.4 152.776 217.069C147.535 224.856 143.701 235.389 143.701 235.389C142.154 238.064 143.203 241.49 145.985 242.863L152.776 246.207C154.938 247.275 160.063 245.321 161.668 243.534L165.139 239.907L166.785 238.362C170.147 240.603 170.147 241.164 172.948 242.284L170.147 245.086C170.6 247.446 172.226 251.605 174.629 251.81L180.793 251.81C184.155 250.69 188.078 250.129 190.879 248.187C190.879 248.187 200.265 239.444 199.845 230.253C199.772 228.653 199.845 227.715 199.845 226.034C199.831 225.934 199.86 225.57 199.845 225.474L200.405 222.407L209.578 225.001C210.309 226.15 210.85 224.122 212.173 223.793C213.468 223.468 213.79 221.607 214.974 220.991C216.052 220.429 216.932 218.254 216.655 217.069C214.974 212.586 208.25 211.466 207.031 210.63Z" fill="#FF6056"/>
<path d="M162.862 199.138C138.207 191.293 123.97 165.492 133.392 136.274C143.751 104.131 174.765 82.631 209.961 90.2064C245.158 97.7818 265.241 130.226 260.847 163.712C256.888 193.854 232.17 213.932 202.83 209.863" stroke="#C9342B" stroke-width="4.48276" stroke-linecap="round" stroke-linejoin="round"/>
<path d="M167.345 237.241L159.156 244.985C157.549 246.777 154.937 247.275 152.776 246.207L145.986 242.858C143.204 241.486 142.155 238.06 143.702 235.385C146.913 229.653 155.914 213.595 157.258 213.146" stroke="#C9342B" stroke-width="4.48276" stroke-linecap="round" stroke-linejoin="round"/>
<path d="M200.966 218.19C200.966 218.19 200.265 227.262 199.284 232.198C197.719 240.079 195.253 244.932 188.638 249.009C184.748 251.406 180.522 252.628 177.431 252.371C174.34 252.113 172.388 250.129 172.388 250.129C170.706 248.448 170.039 248.006 169.586 245.647C169.132 243.287 172.388 241.164 172.388 241.164" stroke="#C9342B" stroke-width="4.48276" stroke-linecap="round" stroke-linejoin="round"/>
<path d="M202.646 209.784C210.491 212.026 213.293 213.477 215.205 215.476C217.117 217.475 211.612 222.672 211.612 222.672C211.612 222.672 210.668 224.364 209.003 224.786C205.755 225.609 200.771 222.371 200.771 222.371" stroke="#C9342B" stroke-width="4.48276" stroke-linecap="round" stroke-linejoin="round"/>
<path d="M167.344 237.241C172.388 241.724 177.106 243.348 184.707 243.861" stroke="#C9342B" stroke-width="4.48276" stroke-linecap="round" stroke-linejoin="round"/>
<path d="M161.741 199.138C153.31 199.236 142.683 197.804 135.733 201.847C134.539 202.545 133.31 204.332 133.615 205.683C133.947 207.167 136.265 209.786 136.707 211.445C137.108 212.944 139.339 214.266 141.091 214.45C141.091 214.45 148.791 214.033 157.03 212.373" stroke="#C9342B" stroke-width="4.48276" stroke-linecap="round" stroke-linejoin="round"/>
<path d="M217.104 146.33C217.343 141.043 215.65 136.673 213.322 136.568C210.994 136.464 208.912 140.665 208.673 145.951C208.434 151.238 210.127 155.608 212.455 155.713C214.783 155.817 216.864 151.616 217.104 146.33Z" fill="#780C06"/>
<path d="M230.002 148.571C230.241 143.285 228.548 138.914 226.22 138.81C223.892 138.705 221.81 142.906 221.571 148.193C221.332 153.48 223.025 157.85 225.353 157.954C227.681 158.059 229.762 153.858 230.002 148.571Z" fill="#780C06"/>
<path d="M205.482 158.22C206.883 162.039 210.142 163.907 213.712 165.058C217.28 166.213 223.865 166.73 226.999 163.281" stroke="#780C06" stroke-width="4.48276" stroke-linecap="round" stroke-linejoin="round"/>
</g>
<defs>
<filter id="filter0_d_2569_15277" x="76.3869" y="79.7143" width="194.024" height="195.287" filterUnits="userSpaceOnUse" color-interpolation-filters="sRGB">
<feFlood flood-opacity="0" result="BackgroundImageFix"/>
<feColorMatrix in="SourceAlpha" type="matrix" values="0 0 0 0 0 0 0 0 0 0 0 0 0 0 0 0 0 0 127 0" result="hardAlpha"/>
<feOffset/>
<feGaussianBlur stdDeviation="3.36207"/>
<feComposite in2="hardAlpha" operator="out"/>
<feColorMatrix type="matrix" values="0 0 0 0 1 0 0 0 0 0.37725 0 0 0 0 0.3375 0 0 0 0.5 0"/>
<feBlend mode="normal" in2="BackgroundImageFix" result="effect1_dropShadow_2569_15277"/>
<feBlend mode="normal" in="SourceGraphic" in2="effect1_dropShadow_2569_15277" result="shape"/>
</filter>
<clipPath id="clip0_2569_15277">
<rect width="369" height="350" fill="white"/>
</clipPath>
</defs>
</svg>
