<svg width="41" height="29" viewBox="0 0 41 29" fill="none" xmlns="http://www.w3.org/2000/svg">
<path d="M14.5007 15.9996C15.2869 16.0181 15.9817 15.3331 16 14.4815C15.9817 13.6669 15.2869 12.9819 14.5007 13.0004C13.6596 12.9819 12.9648 13.6669 13.0014 14.4815C12.9648 15.3331 13.6596 16.0181 14.5007 15.9996Z" fill="#B3B3B3"/>
<path d="M20.5007 15.9996C21.2869 16.0181 21.9817 15.3331 22 14.4815C21.9817 13.6669 21.2869 12.9819 20.5007 13.0004C19.6596 12.9819 18.9648 13.6669 19.0014 14.4815C18.9648 15.3331 19.6596 16.0181 20.5007 15.9996Z" fill="#B3B3B3"/>
<path d="M26.5007 15.9996C27.2869 16.0181 27.9817 15.3331 28 14.4815C27.9817 13.6669 27.2869 12.9819 26.5007 13.0004C25.6596 12.9819 24.9648 13.6669 25.0014 14.4815C24.9648 15.3331 25.6596 16.0181 26.5007 15.9996Z" fill="#B3B3B3"/>
</svg>
