<svg width="369" height="350" viewBox="0 0 369 350" fill="none" xmlns="http://www.w3.org/2000/svg">
<circle cx="184" cy="175" r="100" fill="#D7E0FF"/>
<g filter="url(#filter0_d_2494_15445)">
<g clip-path="url(#clip0_2494_15445)">
<rect x="186.362" y="69.3152" width="131.625" height="183.938" rx="6.75" transform="rotate(30 186.362 69.3152)" fill="#1D1D29"/>
<rect x="170.897" y="96.101" width="131.625" height="132.195" transform="rotate(30 170.897 96.101)" fill="white"/>
<rect x="104.8" y="210.586" width="131.625" height="21.375" transform="rotate(30 104.8 210.586)" fill="#1D1D29"/>
<rect x="186.362" y="69.3152" width="134.062" height="30.9375" transform="rotate(30 186.362 69.3152)" fill="#1D1D29"/>
<path d="M208.948 98.7448C208.474 98.4714 208.033 98.5599 207.651 98.7758C207.717 98.3383 207.55 97.9381 207.077 97.6648C206.662 97.4251 206.262 97.4828 205.904 97.6579C206.059 97.2408 205.888 97.0248 205.683 96.9067C205.519 96.8122 205.336 96.7921 205.319 96.8214L203.922 99.2415C203.746 99.5455 203.848 99.7209 204.07 99.8491L204.158 99.8998C204.368 100.021 204.574 100.015 204.746 99.7174L205.617 98.2092C205.852 98.0721 206.147 98.0474 206.381 98.1824C206.708 98.3714 206.757 98.6647 206.531 99.0564L205.798 100.325C205.623 100.629 205.73 100.808 205.946 100.933L206.034 100.983C206.244 101.105 206.45 101.099 206.623 100.801L207.493 99.2926C207.728 99.1555 208.023 99.1308 208.257 99.2658C208.59 99.4582 208.639 99.7514 208.423 100.126L207.681 101.412C207.505 101.716 207.606 101.891 207.829 102.019L207.916 102.07C208.127 102.191 208.333 102.186 208.505 101.887L209.322 100.473C209.71 99.8006 209.672 99.1633 208.948 98.7448ZM209.559 101.085C209.039 101.985 209.296 102.944 210.202 103.467C211.108 103.991 212.079 103.74 212.592 102.852C213.105 101.963 212.845 100.995 211.945 100.475C211.039 99.9522 210.065 100.208 209.559 101.085ZM211.861 102.43C211.581 102.915 211.038 103.085 210.582 102.822C210.121 102.555 209.997 102.001 210.284 101.504C210.567 101.013 211.106 100.848 211.568 101.115C212.03 101.382 212.151 101.927 211.861 102.43ZM217.482 103.672C217.008 103.399 216.568 103.487 216.186 103.703C216.251 103.266 216.085 102.866 215.611 102.592C215.196 102.353 214.797 102.41 214.438 102.585C214.593 102.168 214.422 101.952 214.217 101.834C214.054 101.74 213.87 101.72 213.854 101.749L212.456 104.169C212.281 104.473 212.382 104.648 212.604 104.777L212.692 104.827C212.902 104.949 213.108 104.943 213.281 104.645L214.151 103.137C214.386 102.999 214.681 102.975 214.915 103.11C215.242 103.299 215.291 103.592 215.065 103.984L214.333 105.252C214.157 105.556 214.264 105.735 214.481 105.86L214.568 105.911C214.779 106.032 214.985 106.026 215.157 105.728L216.028 104.22C216.263 104.083 216.558 104.058 216.791 104.193C217.125 104.386 217.174 104.679 216.958 105.053L216.215 106.339C216.04 106.643 216.141 106.818 216.363 106.947L216.451 106.997C216.661 107.119 216.867 107.113 217.039 106.815L217.856 105.4C218.244 104.728 218.207 104.091 217.482 103.672ZM218.093 106.013C217.573 106.913 217.83 107.872 218.736 108.395C219.642 108.918 220.613 108.668 221.126 107.779C221.639 106.891 221.38 105.922 220.479 105.403C219.573 104.88 218.599 105.136 218.093 106.013ZM220.395 107.357C220.115 107.843 219.573 108.013 219.117 107.749C218.655 107.483 218.531 106.928 218.818 106.431C219.101 105.94 219.641 105.776 220.102 106.042C220.564 106.309 220.686 106.855 220.395 107.357Z" fill="white"/>
<g clip-path="url(#clip1_2494_15445)">
<path d="M112.17 223.238C112.635 223.542 112.961 224.017 113.077 224.56C113.193 225.103 113.09 225.67 112.79 226.137C112.142 227.26 110.775 227.39 109.368 227.68C107.977 227.969 107.224 228.132 107.004 228.143C106.895 227.929 106.606 227.025 106.223 225.864C105.769 224.495 105.206 223.242 105.848 222.13C106.102 221.636 106.542 221.263 107.07 221.092C107.599 220.921 108.173 220.966 108.669 221.216C108.939 221.362 109.168 221.575 109.331 221.835C109.495 222.095 109.588 222.394 109.602 222.701C109.661 223.307 109.588 223.551 109.639 223.581C109.69 223.611 109.865 223.425 110.417 223.17C110.69 223.027 110.995 222.958 111.303 222.97C111.61 222.982 111.91 223.074 112.17 223.238ZM112.592 222.507C112.266 222.305 111.899 222.179 111.518 222.138C111.137 222.098 110.752 222.143 110.391 222.272C110.322 221.896 110.169 221.54 109.944 221.231C109.719 220.922 109.427 220.667 109.091 220.486C108.401 220.123 107.596 220.048 106.852 220.277C106.107 220.506 105.483 221.02 105.117 221.708C104.356 223.027 104.82 224.375 105.268 225.677C105.32 225.827 105.372 225.978 105.422 226.13L105.604 226.682C105.788 227.308 106.005 227.924 106.253 228.527C106.327 228.672 106.441 228.792 106.582 228.874C106.723 228.955 106.884 228.994 107.047 228.986C107.714 228.896 108.375 228.772 109.029 228.612L109.539 228.506C109.701 228.473 109.864 228.441 110.026 228.41C111.306 228.162 112.757 227.882 113.52 226.559C113.933 225.898 114.066 225.101 113.893 224.342C113.719 223.582 113.251 222.923 112.592 222.507Z" fill="#3CE3AC"/>
<path d="M112.17 223.238C112.635 223.542 112.961 224.017 113.077 224.56C113.193 225.103 113.09 225.67 112.79 226.137C112.142 227.26 110.775 227.39 109.368 227.68C107.977 227.969 107.224 228.132 107.004 228.143C106.895 227.929 106.606 227.025 106.223 225.864C105.769 224.495 105.206 223.242 105.848 222.13C106.102 221.636 106.542 221.263 107.07 221.092C107.599 220.921 108.173 220.966 108.669 221.216C108.939 221.362 109.168 221.575 109.331 221.835C109.495 222.095 109.588 222.394 109.602 222.701C109.661 223.307 109.588 223.551 109.639 223.581C109.69 223.611 109.865 223.425 110.417 223.17C110.69 223.027 110.995 222.958 111.303 222.97C111.61 222.982 111.91 223.074 112.17 223.238Z" fill="#3CE3AC"/>
</g>
<g clip-path="url(#clip2_2494_15445)">
<path d="M126.406 237.841C127.294 237.329 127.964 236.512 128.293 235.542C128.622 234.572 128.586 233.515 128.193 232.569C127.8 231.624 127.075 230.854 126.156 230.403C125.236 229.952 124.184 229.852 123.195 230.12C122.207 230.389 121.35 231.008 120.785 231.862C120.219 232.716 119.985 233.747 120.124 234.762C120.263 235.776 120.767 236.706 121.541 237.376C122.316 238.046 123.308 238.412 124.332 238.404L125.844 239.948L126.406 237.841Z" stroke="#595959" stroke-width="0.84375" stroke-linejoin="round"/>
</g>
<g clip-path="url(#clip3_2494_15445)">
<path d="M145.44 242.006L139.276 241.898" stroke="#595959" stroke-width="0.84375" stroke-linejoin="round"/>
<path d="M138.02 246.166L145.44 242.007L138.133 237.788L139.276 241.898L138.02 246.166Z" stroke="#595959" stroke-width="0.84375" stroke-linejoin="round"/>
</g>
<g clip-path="url(#clip4_2494_15445)">
<path d="M205.497 284.799L204.169 280.349L199.651 281.424L203.448 274.847L209.294 278.222L205.497 284.799Z" stroke="#595959" stroke-width="0.84375" stroke-linecap="round" stroke-linejoin="round"/>
</g>
<g clip-path="url(#clip5_2494_15445)">
<rect x="188.421" y="76.999" width="19.6875" height="19.6875" rx="9.84375" transform="rotate(30 188.421 76.999)" fill="#1D1D29"/>
<path d="M190.947 97.6433L190.93 97.6776C191.183 98.4234 191.306 99.2006 191.284 99.971C191.279 100.103 191.201 100.241 191.073 100.27C190.932 100.301 190.636 100.167 190.491 100.165C190.344 100.162 190.117 100.078 190.073 99.9372L189.839 99.1244L189.833 99.103C189.832 99.1134 189.83 99.1241 189.828 99.135C189.806 99.2964 189.778 99.4657 189.741 99.635C189.527 100.608 189.071 101.517 189.071 101.517C188.98 101.828 188.775 101.971 188.458 101.857L187.688 101.579C187.442 101.49 187.285 101.249 187.304 100.99L187.311 100.395C186.754 100.171 186.224 99.8768 185.739 99.5222L185.731 99.5647L185.266 99.8467C185.048 99.9885 184.761 99.9674 184.565 99.7952L183.949 99.2554C183.696 99.034 183.683 98.6464 183.919 98.4101C183.919 98.4101 184.582 97.5422 185.348 96.8749C185.414 96.8176 185.48 96.7629 185.545 96.7108C185.554 96.7037 185.563 96.6966 185.572 96.69L185.559 96.6822L185.545 96.7108L184.872 97.0212C184.705 97.0342 184.473 96.9489 184.41 96.8159C184.34 96.6689 184.097 96.5683 184.041 96.4353C183.988 96.314 184.072 96.1256 184.172 96.04C184.752 95.5422 185.539 95.1758 186.326 95.0208L186.307 95.0636L186.329 95.0239C186.329 95.0239 186.327 95.0221 186.326 95.0208C184.595 93.3523 183.67 90.3871 185.315 87.8414C187.298 84.7713 191.143 83.3923 194.61 85.1707C198.077 86.9486 199.268 90.9025 197.87 94.2803C196.674 97.1719 193.769 98.5858 190.947 97.6433Z" fill="#3CE3AC"/>
<path d="M189.833 99.0574L189.823 99.068C189.824 99.0571 189.826 99.0465 189.827 99.036L189.833 99.0574Z" stroke="#168862" stroke-width="0.485158" stroke-miterlimit="10"/>
<path d="M186.847 95.4654C184.797 93.9268 183.511 90.6322 185.315 87.8417C187.298 84.7717 191.142 83.3927 194.61 85.1706C198.077 86.9484 199.268 90.9027 197.87 94.2803C196.612 97.3204 193.466 98.7269 190.512 97.4797" stroke="#168862" stroke-width="0.485158" stroke-linecap="round" stroke-linejoin="round"/>
<path d="M186.437 96.11C186.437 96.11 185.879 96.4129 185.348 96.875C184.582 97.5422 183.919 98.4094 183.919 98.4094C183.683 98.6457 183.696 99.0332 183.949 99.2546L184.565 99.7949C184.761 99.9671 185.048 99.9883 185.266 99.8459L185.73 99.5637" stroke="#168862" stroke-width="0.485158" stroke-linecap="round" stroke-linejoin="round"/>
<path d="M189.902 98.0396C189.902 98.0396 189.915 98.8365 189.741 99.6347C189.527 100.607 189.071 101.517 189.071 101.517C188.98 101.827 188.775 101.97 188.459 101.857L187.688 101.579C187.443 101.49 187.286 101.249 187.305 100.99L187.312 100.395" stroke="#168862" stroke-width="0.485158" stroke-linecap="round" stroke-linejoin="round"/>
<path d="M186.326 95.0211C185.539 95.176 184.753 95.542 184.172 96.0403C184.073 96.1261 183.989 96.3145 184.041 96.4355C184.097 96.5686 184.34 96.6687 184.41 96.8162C184.473 96.9494 184.705 97.0345 184.872 97.0214L185.545 96.711" stroke="#168862" stroke-width="0.485158" stroke-linecap="round" stroke-linejoin="round"/>
<path d="M190.915 97.6329C191.178 98.3929 191.307 99.1858 191.284 99.9709C191.28 100.102 191.201 100.241 191.073 100.27C190.931 100.301 190.635 100.167 190.491 100.165C190.347 100.163 190.118 100.078 190.073 99.9374L189.833 99.1025" stroke="#168862" stroke-width="0.485158" stroke-linecap="round" stroke-linejoin="round"/>
<path d="M185.507 99.3445C186.152 99.8579 186.885 100.26 187.665 100.526" stroke="#168862" stroke-width="0.485158" stroke-linecap="round" stroke-linejoin="round"/>
<path d="M191.657 90.7004C191.965 90.2179 192.043 89.7167 191.83 89.5809C191.618 89.4451 191.195 89.7262 190.887 90.2088C190.578 90.6913 190.501 91.1926 190.713 91.3283C190.926 91.4641 191.348 91.183 191.657 90.7004Z" fill="#004730"/>
<path d="M192.743 91.3287C193.052 90.8462 193.13 90.3449 192.917 90.2092C192.705 90.0734 192.282 90.3545 191.974 90.8371C191.665 91.3196 191.587 91.8209 191.8 91.9566C192.012 92.0924 192.435 91.8113 192.743 91.3287Z" fill="#004730"/>
<path d="M190.005 91.5227C190.043 91.9614 190.33 92.2494 190.669 92.4715C191.009 92.694 191.682 92.9359 192.107 92.6654" stroke="#004730" stroke-width="0.485158" stroke-linecap="round" stroke-linejoin="round"/>
</g>
<rect x="188.576" y="77.5753" width="18.8438" height="18.8438" rx="9.42188" transform="rotate(30 188.576 77.5753)" stroke="#595959" stroke-width="0.84375"/>
<g clip-path="url(#clip6_2494_15445)">
<rect x="184.819" y="149.614" width="54" height="54" rx="6.75" transform="rotate(30 184.819 149.614)" fill="#EEEEEE"/>
<rect x="187.922" y="159.2" width="38.8125" height="40.5" rx="4.5" transform="rotate(30 187.922 159.2)" fill="white"/>
<path d="M198.819 201.864L179.334 190.614C178.944 190.389 178.755 190.042 178.766 189.572C178.777 189.102 179.007 188.78 179.454 188.605L186.361 185.643C186.705 185.496 187.04 185.516 187.365 185.703C187.69 185.891 187.875 186.171 187.919 186.543L188.74 193.447L197.716 189.601C198.06 189.453 198.395 189.473 198.72 189.661C199.045 189.848 199.23 190.128 199.274 190.501L200.499 200.755C200.571 201.23 200.406 201.59 200.005 201.835C199.604 202.079 199.209 202.089 198.819 201.864Z" fill="#EEEEEE"/>
</g>
</g>
<rect x="185.63" y="66.5831" width="135.625" height="187.938" rx="8.75" transform="rotate(30 185.63 66.5831)" stroke="#1D1D29" stroke-width="4"/>
</g>
<g filter="url(#filter1_d_2494_15445)">
<g clip-path="url(#clip7_2494_15445)">
<rect x="91.4521" y="97.9362" width="131.625" height="183.938" rx="6.75" transform="rotate(-15 91.4521 97.9362)" fill="#1D1D29"/>
<rect x="99.3627" y="127.459" width="131.625" height="132.561" transform="rotate(-15 99.3627 127.459)" fill="white"/>
<rect x="133.672" y="255.503" width="131.625" height="21.375" transform="rotate(-15 133.672 255.503)" fill="#1D1D29"/>
<rect x="91.4521" y="97.9362" width="134.063" height="30.9375" transform="rotate(-15 91.4521 97.9362)" fill="#1D1D29"/>
<path d="M128.232 102.776C127.704 102.917 127.455 103.292 127.338 103.714C127.075 103.359 126.674 103.193 126.146 103.335C125.683 103.459 125.441 103.782 125.312 104.159C125.126 103.755 124.852 103.724 124.624 103.785C124.442 103.834 124.298 103.949 124.307 103.982L125.03 106.681C125.121 107.02 125.316 107.072 125.564 107.006L125.662 106.98C125.897 106.917 126.038 106.767 125.949 106.435L125.499 104.752C125.568 104.489 125.759 104.263 126.02 104.193C126.385 104.096 126.627 104.268 126.744 104.705L127.123 106.12C127.214 106.459 127.416 106.51 127.657 106.445L127.755 106.419C127.99 106.356 128.131 106.206 128.042 105.874L127.591 104.192C127.661 103.928 127.852 103.703 128.113 103.633C128.484 103.533 128.726 103.706 128.838 104.123L129.222 105.558C129.313 105.897 129.509 105.949 129.757 105.883L129.854 105.856C130.089 105.793 130.231 105.644 130.142 105.311L129.719 103.733C129.518 102.984 129.041 102.559 128.232 102.776ZM130.319 103.999C130.588 105.003 131.448 105.499 132.459 105.228C133.469 104.958 133.979 104.094 133.713 103.103C133.448 102.112 132.58 101.611 131.576 101.88C130.565 102.151 130.057 103.021 130.319 103.999ZM132.898 103.322C133.043 103.863 132.78 104.367 132.271 104.503C131.756 104.641 131.276 104.336 131.128 103.782C130.981 103.234 131.246 102.737 131.761 102.599C132.276 102.461 132.748 102.761 132.898 103.322ZM137.751 100.225C137.223 100.367 136.974 100.741 136.857 101.164C136.594 100.808 136.193 100.643 135.665 100.784C135.202 100.908 134.96 101.232 134.831 101.609C134.645 101.204 134.371 101.173 134.143 101.234C133.961 101.283 133.817 101.398 133.826 101.431L134.549 104.13C134.64 104.469 134.835 104.522 135.083 104.455L135.181 104.429C135.416 104.366 135.557 104.216 135.468 103.884L135.017 102.202C135.087 101.939 135.278 101.713 135.539 101.643C135.904 101.545 136.146 101.718 136.263 102.155L136.642 103.569C136.733 103.908 136.935 103.959 137.176 103.894L137.274 103.868C137.509 103.805 137.65 103.656 137.561 103.323L137.11 101.641C137.18 101.378 137.371 101.152 137.631 101.082C138.003 100.982 138.245 101.155 138.357 101.573L138.741 103.007C138.832 103.346 139.028 103.398 139.276 103.332L139.373 103.306C139.608 103.243 139.75 103.093 139.661 102.761L139.238 101.183C139.037 100.433 138.56 100.009 137.751 100.225ZM139.838 101.448C140.107 102.452 140.967 102.949 141.978 102.678C142.988 102.407 143.498 101.544 143.232 100.553C142.967 99.5616 142.099 99.0605 141.095 99.3295C140.084 99.6003 139.576 100.47 139.838 101.448ZM142.417 100.771C142.562 101.312 142.299 101.816 141.79 101.952C141.275 102.09 140.795 101.786 140.647 101.231C140.5 100.684 140.765 100.186 141.28 100.048C141.795 99.9104 142.267 100.21 142.417 100.771Z" fill="white"/>
<g clip-path="url(#clip8_2494_15445)">
<path d="M147.83 259.238C148.374 259.124 148.94 259.229 149.406 259.531C149.872 259.833 150.2 260.307 150.318 260.85C150.654 262.102 149.779 263.16 148.989 264.361C148.211 265.549 147.793 266.196 147.645 266.359C147.417 266.285 146.573 265.85 145.482 265.3C144.193 264.653 142.908 264.166 142.576 262.925C142.407 262.396 142.454 261.821 142.706 261.327C142.959 260.832 143.397 260.457 143.925 260.284C144.219 260.196 144.531 260.185 144.831 260.253C145.131 260.322 145.407 260.467 145.634 260.674C146.105 261.061 146.226 261.285 146.283 261.27C146.34 261.255 146.332 261 146.543 260.429C146.634 260.135 146.801 259.871 147.027 259.662C147.253 259.453 147.53 259.306 147.83 259.238ZM147.612 258.423C147.239 258.51 146.89 258.681 146.592 258.921C146.293 259.162 146.053 259.467 145.889 259.813C145.574 259.596 145.215 259.452 144.837 259.393C144.459 259.333 144.073 259.359 143.706 259.469C142.962 259.7 142.34 260.216 141.975 260.905C141.611 261.593 141.534 262.398 141.761 263.143C142.155 264.614 143.436 265.239 144.675 265.843C144.817 265.913 144.961 265.982 145.104 266.055L145.623 266.316C146.195 266.628 146.784 266.911 147.386 267.162C147.541 267.212 147.707 267.217 147.864 267.174C148.021 267.132 148.163 267.046 148.272 266.925C148.68 266.39 149.06 265.834 149.409 265.26L149.695 264.823C149.786 264.685 149.879 264.547 149.971 264.411C150.701 263.331 151.529 262.107 151.133 260.632C150.958 259.873 150.488 259.214 149.829 258.8C149.169 258.387 148.372 258.251 147.612 258.423Z" fill="#3CE3AC"/>
<path d="M147.83 259.238C148.374 259.124 148.94 259.229 149.406 259.531C149.872 259.833 150.2 260.307 150.318 260.85C150.654 262.102 149.779 263.16 148.989 264.361C148.211 265.549 147.793 266.196 147.645 266.359C147.417 266.285 146.573 265.85 145.482 265.3C144.193 264.653 142.908 264.166 142.576 262.925C142.407 262.396 142.454 261.821 142.706 261.327C142.959 260.832 143.397 260.457 143.925 260.284C144.219 260.196 144.531 260.185 144.831 260.253C145.131 260.322 145.407 260.467 145.634 260.674C146.105 261.061 146.226 261.285 146.283 261.27C146.34 261.255 146.332 261 146.543 260.429C146.634 260.135 146.801 259.871 147.027 259.662C147.253 259.453 147.53 259.306 147.83 259.238Z" fill="#3CE3AC"/>
</g>
<g clip-path="url(#clip9_2494_15445)">
<path d="M168.222 259.497C168.488 258.508 168.384 257.456 167.931 256.537C167.477 255.619 166.705 254.897 165.758 254.506C164.812 254.116 163.755 254.083 162.786 254.415C161.817 254.747 161.001 255.42 160.492 256.308C159.983 257.197 159.815 258.241 160.02 259.245C160.224 260.248 160.787 261.143 161.603 261.762C162.419 262.381 163.432 262.682 164.454 262.609C165.475 262.535 166.435 262.092 167.154 261.362L169.315 261.385L168.222 259.497Z" stroke="#595959" stroke-width="0.84375" stroke-linejoin="round"/>
</g>
<g clip-path="url(#clip10_2494_15445)">
<path d="M184.627 248.983L180.192 253.265" stroke="#595959" stroke-width="0.84375" stroke-linejoin="round"/>
<path d="M182.322 257.172L184.627 248.984L176.477 251.167L180.192 253.266L182.322 257.172Z" stroke="#595959" stroke-width="0.84375" stroke-linejoin="round"/>
</g>
<g clip-path="url(#clip11_2494_15445)">
<path d="M257.352 236.776L253.266 234.569L250.832 238.523L248.866 231.188L255.386 229.441L257.352 236.776Z" stroke="#595959" stroke-width="0.84375" stroke-linecap="round" stroke-linejoin="round"/>
</g>
<g clip-path="url(#clip12_2494_15445)">
<rect x="98.3414" y="101.914" width="19.6875" height="19.6875" rx="9.84375" transform="rotate(-15 98.3414 101.914)" fill="#1D1D29"/>
<path d="M114.726 114.725L114.738 114.761C115.443 115.11 116.081 115.572 116.609 116.133C116.699 116.229 116.742 116.383 116.672 116.494C116.594 116.615 116.29 116.73 116.186 116.831C116.08 116.933 115.86 117.033 115.729 116.965L114.989 116.556L114.969 116.545C114.976 116.553 114.982 116.562 114.989 116.571C115.088 116.701 115.187 116.841 115.281 116.987C115.817 117.825 116.138 118.791 116.138 118.791C116.294 119.075 116.249 119.321 115.945 119.465L115.204 119.813C114.967 119.923 114.686 119.864 114.516 119.668L114.1 119.242C113.547 119.477 112.965 119.644 112.371 119.736L112.395 119.772L112.266 120.3C112.213 120.555 111.995 120.743 111.734 120.759L110.917 120.814C110.582 120.835 110.298 120.571 110.298 120.237C110.298 120.237 110.153 119.154 110.223 118.141C110.229 118.054 110.237 117.968 110.246 117.885C110.248 117.874 110.249 117.863 110.251 117.852L110.236 117.856L110.246 117.885L109.99 118.581C109.881 118.708 109.656 118.812 109.518 118.762C109.364 118.708 109.122 118.808 108.988 118.754C108.865 118.706 108.791 118.513 108.801 118.382C108.859 117.62 109.157 116.804 109.604 116.138L109.62 116.182L109.608 116.138C109.608 116.138 109.605 116.138 109.604 116.138C107.199 116.183 104.449 114.74 103.812 111.777C103.043 108.203 104.787 104.51 108.496 103.316C112.205 102.121 115.843 104.075 117.243 107.452C118.442 110.342 117.387 113.396 114.726 114.725Z" fill="#3CE3AC"/>
<path d="M114.938 116.513L114.938 116.528C114.931 116.519 114.925 116.51 114.918 116.502L114.938 116.513Z" stroke="#168862" stroke-width="0.485158" stroke-miterlimit="10"/>
<path d="M110.286 116.085C107.748 116.446 104.51 115.025 103.812 111.777C103.043 108.204 104.787 104.51 108.496 103.316C112.204 102.121 115.843 104.075 117.243 107.452C118.503 110.491 117.272 113.71 114.302 114.917" stroke="#168862" stroke-width="0.485158" stroke-linecap="round" stroke-linejoin="round"/>
<path d="M110.452 116.83C110.452 116.83 110.271 117.439 110.223 118.141C110.153 119.155 110.298 120.236 110.298 120.236C110.297 120.571 110.581 120.835 110.916 120.813L111.734 120.76C111.994 120.743 112.212 120.555 112.266 120.3L112.394 119.772" stroke="#168862" stroke-width="0.485158" stroke-linecap="round" stroke-linejoin="round"/>
<path d="M114.267 115.744C114.267 115.744 114.839 116.298 115.28 116.986C115.817 117.825 116.138 118.791 116.138 118.791C116.293 119.075 116.249 119.321 115.945 119.464L115.204 119.812C114.968 119.923 114.686 119.864 114.516 119.667L114.1 119.241" stroke="#168862" stroke-width="0.485158" stroke-linecap="round" stroke-linejoin="round"/>
<path d="M109.604 116.138C109.157 116.804 108.859 117.619 108.801 118.382C108.792 118.513 108.865 118.706 108.988 118.755C109.122 118.809 109.364 118.708 109.518 118.763C109.657 118.812 109.881 118.708 109.99 118.581L110.246 117.885" stroke="#168862" stroke-width="0.485158" stroke-linecap="round" stroke-linejoin="round"/>
<path d="M114.696 114.74C115.418 115.092 116.071 115.561 116.609 116.133C116.7 116.229 116.742 116.383 116.671 116.494C116.594 116.616 116.29 116.73 116.186 116.831C116.083 116.931 115.86 117.033 115.73 116.965L114.969 116.545" stroke="#168862" stroke-width="0.485158" stroke-linecap="round" stroke-linejoin="round"/>
<path d="M112.081 119.775C112.9 119.682 113.703 119.447 114.443 119.084" stroke="#168862" stroke-width="0.485158" stroke-linecap="round" stroke-linejoin="round"/>
<path d="M110.318 109.314C110.195 108.755 109.896 108.345 109.649 108.4C109.403 108.454 109.303 108.952 109.426 109.511C109.549 110.07 109.849 110.48 110.095 110.425C110.341 110.371 110.441 109.874 110.318 109.314Z" fill="#004730"/>
<path d="M111.531 108.99C111.408 108.431 111.108 108.021 110.862 108.076C110.616 108.13 110.516 108.627 110.639 109.187C110.762 109.746 111.061 110.156 111.308 110.101C111.554 110.047 111.654 109.55 111.531 108.99Z" fill="#004730"/>
<path d="M109.732 111.063C110.068 111.347 110.475 111.348 110.872 111.265C111.27 111.182 111.916 110.877 112.026 110.385" stroke="#004730" stroke-width="0.485158" stroke-linecap="round" stroke-linejoin="round"/>
</g>
<rect x="98.8581" y="102.212" width="18.8438" height="18.8438" rx="9.42188" transform="rotate(-15 98.8581 102.212)" stroke="#595959" stroke-width="0.84375"/>
<rect x="132.415" y="163.361" width="85.4931" height="65.8846" rx="9.58638" transform="rotate(-15 132.415 163.361)" fill="#1D1D29"/>
<mask id="path-54-outside-1_2494_15445" maskUnits="userSpaceOnUse" x="112.48" y="107.749" width="133.497" height="133.497" fill="black">
<rect fill="white" x="112.48" y="107.749" width="133.497" height="133.497"/>
<path fill-rule="evenodd" clip-rule="evenodd" d="M181.914 130.04C180.965 123.009 189.274 118.593 194.571 123.312L197.554 125.97L201.513 125.436C208.315 124.518 212.67 132.265 208.673 137.567C215.729 138.149 221.983 143.071 223.921 150.303L235.343 192.931C237.81 202.136 232.347 211.598 223.142 214.065L161.522 230.576C152.317 233.042 142.855 227.579 140.389 218.374L128.967 175.746C126.5 166.54 131.963 157.079 141.168 154.612L178.305 144.661L178.305 144.661L152.987 151.445L153.765 147.642C154.638 143.374 157.849 139.965 162.058 138.837L176.809 134.884C178.483 134.436 180.2 134.379 181.844 134.678L182.448 133.999L181.914 130.04ZM204.728 134.963L201.664 138.402L182.895 143.431L182.895 143.431L190.969 141.268L188.394 138.364C187.8 137.695 187.14 137.106 186.429 136.603L186.501 136.522C187.072 135.882 187.334 135.025 187.219 134.175L186.576 129.41C186.212 126.708 189.405 125.011 191.441 126.825L195.031 130.023C195.671 130.594 196.528 130.856 197.378 130.741L202.143 130.098C204.845 129.733 206.542 132.927 204.728 134.963ZM141.787 161.23C136.673 162.6 133.638 167.857 135.008 172.971L147.008 217.754C148.378 222.868 153.635 225.903 158.749 224.533L222.524 207.445C227.638 206.074 230.672 200.818 229.302 195.704L217.302 150.92C215.932 145.806 210.676 142.771 205.562 144.142L141.787 161.23Z"/>
</mask>
<path fill-rule="evenodd" clip-rule="evenodd" d="M181.914 130.04C180.965 123.009 189.274 118.593 194.571 123.312L197.554 125.97L201.513 125.436C208.315 124.518 212.67 132.265 208.673 137.567C215.729 138.149 221.983 143.071 223.921 150.303L235.343 192.931C237.81 202.136 232.347 211.598 223.142 214.065L161.522 230.576C152.317 233.042 142.855 227.579 140.389 218.374L128.967 175.746C126.5 166.54 131.963 157.079 141.168 154.612L178.305 144.661L178.305 144.661L152.987 151.445L153.765 147.642C154.638 143.374 157.849 139.965 162.058 138.837L176.809 134.884C178.483 134.436 180.2 134.379 181.844 134.678L182.448 133.999L181.914 130.04ZM204.728 134.963L201.664 138.402L182.895 143.431L182.895 143.431L190.969 141.268L188.394 138.364C187.8 137.695 187.14 137.106 186.429 136.603L186.501 136.522C187.072 135.882 187.334 135.025 187.219 134.175L186.576 129.41C186.212 126.708 189.405 125.011 191.441 126.825L195.031 130.023C195.671 130.594 196.528 130.856 197.378 130.741L202.143 130.098C204.845 129.733 206.542 132.927 204.728 134.963ZM141.787 161.23C136.673 162.6 133.638 167.857 135.008 172.971L147.008 217.754C148.378 222.868 153.635 225.903 158.749 224.533L222.524 207.445C227.638 206.074 230.672 200.818 229.302 195.704L217.302 150.92C215.932 145.806 210.676 142.771 205.562 144.142L141.787 161.23Z" fill="#6184FF"/>
<path d="M194.571 123.312L197.701 119.798L197.701 119.798L194.571 123.312ZM181.914 130.04L177.25 130.669L177.25 130.669L181.914 130.04ZM197.554 125.97L194.423 129.484L196.039 130.923L198.183 130.634L197.554 125.97ZM201.513 125.436L200.884 120.772L201.513 125.436ZM208.673 137.567L204.915 134.733L199.772 141.554L208.286 142.257L208.673 137.567ZM223.921 150.303L228.467 149.085L223.921 150.303ZM235.343 192.931L230.798 194.149L235.343 192.931ZM223.142 214.065L221.924 209.519L223.142 214.065ZM161.522 230.576L162.74 235.121L161.522 230.576ZM140.389 218.374L135.843 219.592L140.389 218.374ZM128.967 175.746L133.512 174.528L128.967 175.746ZM141.168 154.612L139.95 150.066L141.168 154.612ZM178.305 144.661L179.523 149.207L184.511 147.87L182.718 143.027L178.305 144.661ZM178.305 144.661L182.718 143.027L181.229 139.005L177.087 140.115L178.305 144.661ZM152.987 151.445L148.376 150.501L146.85 157.961L154.205 155.99L152.987 151.445ZM153.765 147.642L158.375 148.586L153.765 147.642ZM162.058 138.837L160.84 134.291L162.058 138.837ZM176.809 134.884L178.027 139.43L176.809 134.884ZM181.844 134.678L181.001 139.308L183.6 139.78L185.357 137.808L181.844 134.678ZM182.448 133.999L185.962 137.13L187.401 135.514L187.112 133.37L182.448 133.999ZM201.664 138.402L202.882 142.948L204.241 142.584L205.177 141.533L201.664 138.402ZM204.728 134.963L208.242 138.093L208.242 138.093L204.728 134.963ZM182.895 143.431L178.743 145.647L180.503 148.944L184.113 147.977L182.895 143.431ZM182.895 143.431L181.677 138.885L175.953 140.419L178.743 145.647L182.895 143.431ZM190.969 141.268L192.187 145.813L199.542 143.842L194.49 138.145L190.969 141.268ZM188.394 138.364L184.873 141.486L184.873 141.486L188.394 138.364ZM186.429 136.603L182.915 133.473L179.412 137.405L183.712 140.446L186.429 136.603ZM186.501 136.522L190.015 139.653L190.015 139.653L186.501 136.522ZM187.219 134.175L182.556 134.805L182.556 134.805L187.219 134.175ZM186.576 129.41L181.912 130.04L181.912 130.04L186.576 129.41ZM191.441 126.825L194.572 123.311L194.572 123.311L191.441 126.825ZM195.031 130.023L191.9 133.537L191.9 133.537L195.031 130.023ZM197.378 130.741L196.748 126.077L196.748 126.077L197.378 130.741ZM202.143 130.098L201.513 125.434L201.513 125.434L202.143 130.098ZM135.008 172.971L139.554 171.753L135.008 172.971ZM141.787 161.23L143.005 165.776L141.787 161.23ZM147.008 217.754L142.462 218.972L147.008 217.754ZM222.524 207.445L223.742 211.99L222.524 207.445ZM229.302 195.704L233.848 194.486L229.302 195.704ZM217.302 150.92L212.757 152.138L217.302 150.92ZM205.562 144.142L204.344 139.596L205.562 144.142ZM197.701 119.798C189.143 112.173 175.717 119.309 177.25 130.669L186.577 129.41C186.213 126.709 189.405 125.012 191.44 126.826L197.701 119.798ZM200.685 122.456L197.701 119.798L191.44 126.826L194.423 129.484L200.685 122.456ZM200.884 120.772L196.924 121.306L198.183 130.634L202.143 130.099L200.884 120.772ZM212.43 140.4C218.902 131.818 211.9 119.285 200.884 120.772L202.143 130.099C204.73 129.75 206.439 132.713 204.915 134.733L212.43 140.4ZM228.467 149.085C225.999 139.874 218.033 133.617 209.06 132.877L208.286 142.257C213.424 142.681 217.968 146.268 219.375 151.521L228.467 149.085ZM239.889 191.713L228.467 149.085L219.375 151.521L230.798 194.149L239.889 191.713ZM224.36 218.61C236.076 215.471 243.028 203.429 239.889 191.713L230.798 194.149C232.592 200.844 228.619 207.725 221.924 209.519L224.36 218.61ZM162.74 235.121L224.36 218.61L221.924 209.519L160.304 226.03L162.74 235.121ZM135.843 219.592C138.982 231.308 151.025 238.261 162.74 235.121L160.304 226.03C153.61 227.824 146.728 223.851 144.935 217.156L135.843 219.592ZM124.421 176.964L135.843 219.592L144.935 217.156L133.512 174.528L124.421 176.964ZM139.95 150.066C128.234 153.206 121.282 165.248 124.421 176.964L133.512 174.528C131.718 167.833 135.691 160.952 142.386 159.158L139.95 150.066ZM177.087 140.116L139.95 150.066L142.386 159.158L179.523 149.207L177.087 140.116ZM173.891 146.295L173.891 146.295L182.718 143.027L182.718 143.027L173.891 146.295ZM154.205 155.99L179.523 149.207L177.087 140.115L151.769 146.899L154.205 155.99ZM149.154 146.699L148.376 150.501L157.597 152.388L158.375 148.586L149.154 146.699ZM160.84 134.291C154.909 135.88 150.385 140.684 149.154 146.699L158.375 148.586C158.892 146.063 160.789 144.049 163.276 143.383L160.84 134.291ZM175.591 130.339L160.84 134.291L163.276 143.383L178.027 139.43L175.591 130.339ZM182.686 130.048C180.37 129.626 177.949 129.707 175.591 130.339L178.027 139.43C179.017 139.165 180.031 139.131 181.001 139.308L182.686 130.048ZM178.934 130.868L178.33 131.547L185.357 137.808L185.962 137.13L178.934 130.868ZM177.25 130.669L177.784 134.629L187.112 133.37L186.577 129.41L177.25 130.669ZM205.177 141.533L208.242 138.093L201.215 131.832L198.15 135.272L205.177 141.533ZM184.113 147.977L202.882 142.948L200.446 133.857L181.677 138.886L184.113 147.977ZM178.743 145.647L178.743 145.647L187.047 141.215L187.047 141.215L178.743 145.647ZM189.751 136.722L181.677 138.885L184.113 147.977L192.187 145.813L189.751 136.722ZM184.873 141.486L187.448 144.39L194.49 138.145L191.915 135.241L184.873 141.486ZM183.712 140.446C184.131 140.742 184.521 141.09 184.873 141.486L191.915 135.241C191.08 134.3 190.149 133.471 189.146 132.761L183.712 140.446ZM182.988 133.391L182.915 133.473L189.943 139.734L190.015 139.653L182.988 133.391ZM182.556 134.805C182.486 134.293 182.644 133.777 182.988 133.391L190.015 139.653C191.499 137.987 192.181 135.757 191.883 133.546L182.556 134.805ZM181.912 130.04L182.556 134.805L191.883 133.546L191.24 128.781L181.912 130.04ZM194.572 123.311C189.274 118.591 180.964 123.008 181.912 130.04L191.24 128.781C191.46 130.408 189.536 131.431 188.31 130.338L194.572 123.311ZM198.162 126.51L194.572 123.311L188.31 130.338L191.9 133.537L198.162 126.51ZM196.748 126.077C197.26 126.008 197.776 126.166 198.161 126.51L191.9 133.537C193.566 135.021 195.796 135.703 198.007 135.405L196.748 126.077ZM201.513 125.434L196.748 126.077L198.007 135.405L202.772 134.762L201.513 125.434ZM208.242 138.093C212.962 132.796 208.545 124.485 201.513 125.434L202.772 134.762C201.145 134.982 200.122 133.058 201.215 131.832L208.242 138.093ZM139.554 171.753C138.856 169.149 140.401 166.473 143.005 165.776L140.569 156.684C132.944 158.727 128.42 166.564 130.463 174.189L139.554 171.753ZM151.554 216.536L139.554 171.753L130.463 174.189L142.462 218.972L151.554 216.536ZM157.531 219.987C154.927 220.685 152.251 219.14 151.554 216.536L142.462 218.972C144.505 226.597 152.342 231.122 159.967 229.079L157.531 219.987ZM221.306 202.899L157.531 219.987L159.967 229.079L223.742 211.99L221.306 202.899ZM224.756 196.922C225.454 199.525 223.909 202.201 221.306 202.899L223.742 211.99C231.366 209.947 235.891 202.11 233.848 194.486L224.756 196.922ZM212.757 152.138L224.756 196.922L233.848 194.486L221.848 149.702L212.757 152.138ZM206.78 148.687C209.383 147.99 212.059 149.535 212.757 152.138L221.848 149.702C219.805 142.078 211.968 137.553 204.344 139.596L206.78 148.687ZM143.005 165.776L206.78 148.687L204.344 139.596L140.569 156.684L143.005 165.776Z" fill="#1D1D29" mask="url(#path-54-outside-1_2494_15445)"/>
<g clip-path="url(#clip13_2494_15445)">
<path d="M176.832 142.145C171.673 150.045 172.513 174.327 172.513 174.327C172.513 174.327 155.475 193.099 149.767 244.785L200.277 233.281C207.832 219.48 214.76 201.218 214.772 193.378C214.791 180.338 205.2 178.834 205.2 178.834C205.2 178.834 216.743 158.487 211.337 150.305C209.055 146.851 204.18 146.422 200.426 146.697C196.671 146.972 193.97 167.042 193.97 167.042L195.949 147.38C195.949 147.38 195.998 144.548 195.42 142.335C193.819 136.205 180.277 136.869 176.832 142.145Z" fill="#3CE3AC"/>
<path d="M193.343 173.917L193.97 167.042M205.2 178.834C205.2 178.834 216.743 158.487 211.337 150.305C209.055 146.851 204.18 146.422 200.426 146.697C196.671 146.972 193.97 167.042 193.97 167.042M205.2 178.834C205.2 178.834 214.791 180.338 214.772 193.378C214.76 201.218 207.832 219.48 200.277 233.281L149.767 244.785C155.475 193.099 172.513 174.327 172.513 174.327C172.513 174.327 171.673 150.045 176.832 142.145C180.277 136.869 193.819 136.205 195.42 142.335C195.998 144.548 195.949 147.38 195.949 147.38L193.97 167.042M205.2 178.834C202.535 178.175 196.343 177.325 194.453 180.858C193.161 183.273 193.76 183.742 193.549 184.72M173.822 188.871C173.822 188.871 184.888 181.87 191.236 184.205C192.002 184.487 192.823 184.446 193.549 184.72M199.644 197.431C198.168 203.279 182.494 205.78 182.494 205.78M199.644 197.431C200.941 192.295 198.243 186.491 193.549 184.72M199.644 197.431C201.842 197.621 206.481 196.767 209.252 193.956" stroke="#168862" stroke-width="3.13736" stroke-linecap="round" stroke-linejoin="round"/>
</g>
<path d="M186.577 129.409C186.213 126.707 189.406 125.01 191.442 126.824L195.032 130.023C195.672 130.593 196.529 130.855 197.378 130.74L202.144 130.097C204.846 129.733 206.543 132.926 204.729 134.962L201.531 138.552C200.96 139.192 200.698 140.049 200.813 140.899L201.456 145.664C201.821 148.366 198.627 150.063 196.591 148.249L193.001 145.051C192.361 144.48 191.504 144.218 190.655 144.333L185.889 144.976C183.187 145.341 181.49 142.147 183.304 140.111L186.502 136.521C187.073 135.881 187.335 135.024 187.22 134.175L186.577 129.409Z" fill="white"/>
</g>
<rect x="89.0027" y="96.5219" width="135.625" height="187.938" rx="8.75" transform="rotate(-15 89.0027 96.5219)" stroke="#1D1D29" stroke-width="4"/>
</g>
<path d="M51.6297 96.7954C53.3346 94.3881 57.1142 95.4008 57.387 98.3381L57.8681 103.518C57.9539 104.442 58.4388 105.281 59.1957 105.817L63.4411 108.824C65.8485 110.529 64.8357 114.309 61.8984 114.581L56.7185 115.063C55.795 115.148 54.9551 115.633 54.4191 116.39L51.4125 120.635C49.7076 123.043 45.9279 122.03 45.6551 119.093L45.174 113.913C45.0883 112.989 44.6033 112.149 43.8465 111.613L39.6011 108.607C37.1937 106.902 38.2065 103.122 41.1437 102.849L46.3237 102.368C47.2471 102.283 48.0871 101.798 48.6231 101.041L51.6297 96.7954Z" fill="#6184FF"/>
<path d="M74.4794 83.1291C75.616 81.5242 78.1358 82.1994 78.3177 84.1576L78.6384 87.6109C78.6956 88.2265 79.0189 88.7865 79.5234 89.1438L82.3537 91.1482C83.9586 92.2848 83.2834 94.8046 81.3253 94.9864L77.872 95.3072C77.2563 95.3644 76.6964 95.6876 76.339 96.1922L74.3346 99.0225C73.198 100.627 70.6783 99.9522 70.4964 97.994L70.1757 94.5407C70.1185 93.9251 69.7952 93.3652 69.2906 93.0078L66.4604 91.0034C64.8555 89.8668 65.5306 87.347 67.4888 87.1652L70.9421 86.8444C71.5578 86.7873 72.1177 86.464 72.475 85.9594L74.4794 83.1291Z" fill="#6184FF"/>
<path d="M295.417 172.263C294.92 169.355 298.309 167.399 300.578 169.283L304.581 172.605C305.295 173.198 306.232 173.449 307.146 173.293L312.274 172.417C315.182 171.92 317.138 175.309 315.254 177.579L311.932 181.581C311.339 182.295 311.088 183.232 311.244 184.146L312.12 189.274C312.617 192.182 309.228 194.138 306.959 192.254L302.956 188.932C302.242 188.339 301.305 188.088 300.391 188.245L295.263 189.12C292.355 189.617 290.399 186.228 292.283 183.959L295.605 179.956C296.198 179.242 296.449 178.305 296.293 177.391L295.417 172.263Z" fill="#6184FF"/>
<defs>
<filter id="filter0_d_2494_15445" x="86.8624" y="61.7841" width="221.022" height="240.169" filterUnits="userSpaceOnUse" color-interpolation-filters="sRGB">
<feFlood flood-opacity="0" result="BackgroundImageFix"/>
<feColorMatrix in="SourceAlpha" type="matrix" values="0 0 0 0 0 0 0 0 0 0 0 0 0 0 0 0 0 0 127 0" result="hardAlpha"/>
<feOffset/>
<feGaussianBlur stdDeviation="3"/>
<feComposite in2="hardAlpha" operator="out"/>
<feColorMatrix type="matrix" values="0 0 0 0 0.133333 0 0 0 0 0.133333 0 0 0 0 0.133333 0 0 0 0.15 0"/>
<feBlend mode="normal" in2="BackgroundImageFix" result="effect1_dropShadow_2494_15445"/>
<feBlend mode="normal" in="SourceGraphic" in2="effect1_dropShadow_2494_15445" result="shape"/>
</filter>
<filter id="filter1_d_2494_15445" x="82.9666" y="55.3834" width="191.718" height="228.708" filterUnits="userSpaceOnUse" color-interpolation-filters="sRGB">
<feFlood flood-opacity="0" result="BackgroundImageFix"/>
<feColorMatrix in="SourceAlpha" type="matrix" values="0 0 0 0 0 0 0 0 0 0 0 0 0 0 0 0 0 0 127 0" result="hardAlpha"/>
<feOffset/>
<feGaussianBlur stdDeviation="3"/>
<feComposite in2="hardAlpha" operator="out"/>
<feColorMatrix type="matrix" values="0 0 0 0 0.133333 0 0 0 0 0.133333 0 0 0 0 0.133333 0 0 0 0.15 0"/>
<feBlend mode="normal" in2="BackgroundImageFix" result="effect1_dropShadow_2494_15445"/>
<feBlend mode="normal" in="SourceGraphic" in2="effect1_dropShadow_2494_15445" result="shape"/>
</filter>
<clipPath id="clip0_2494_15445">
<rect x="186.362" y="69.3152" width="131.625" height="183.938" rx="6.75" transform="rotate(30 186.362 69.3152)" fill="white"/>
</clipPath>
<clipPath id="clip1_2494_15445">
<rect width="10.125" height="10.125" fill="white" transform="translate(106.859 218.27) rotate(30)"/>
</clipPath>
<clipPath id="clip2_2494_15445">
<rect width="10.125" height="10.125" fill="white" transform="translate(122.447 227.27) rotate(30)"/>
</clipPath>
<clipPath id="clip3_2494_15445">
<rect width="10.125" height="10.125" fill="white" transform="translate(138.036 236.27) rotate(30)"/>
</clipPath>
<clipPath id="clip4_2494_15445">
<rect width="10.125" height="10.125" fill="white" transform="translate(202.619 272.907) rotate(30)"/>
</clipPath>
<clipPath id="clip5_2494_15445">
<rect x="188.421" y="76.999" width="19.6875" height="19.6875" rx="9.84375" transform="rotate(30 188.421 76.999)" fill="white"/>
</clipPath>
<clipPath id="clip6_2494_15445">
<rect width="54" height="54" fill="white" transform="translate(184.819 149.614) rotate(30)"/>
</clipPath>
<clipPath id="clip7_2494_15445">
<rect x="91.4521" y="97.9362" width="131.625" height="183.938" rx="6.75" transform="rotate(-15 91.4521 97.9362)" fill="white"/>
</clipPath>
<clipPath id="clip8_2494_15445">
<rect width="10.125" height="10.125" fill="white" transform="translate(140.561 259.48) rotate(-15)"/>
</clipPath>
<clipPath id="clip9_2494_15445">
<rect width="10.125" height="10.125" fill="white" transform="translate(157.948 254.822) rotate(-15)"/>
</clipPath>
<clipPath id="clip10_2494_15445">
<rect width="10.125" height="10.125" fill="white" transform="translate(175.334 250.163) rotate(-15)"/>
</clipPath>
<clipPath id="clip11_2494_15445">
<rect width="10.125" height="10.125" fill="white" transform="translate(246.909 230.402) rotate(-15)"/>
</clipPath>
<clipPath id="clip12_2494_15445">
<rect x="98.3414" y="101.914" width="19.6875" height="19.6875" rx="9.84375" transform="rotate(-15 98.3414 101.914)" fill="white"/>
</clipPath>
<clipPath id="clip13_2494_15445">
<rect x="128.355" y="148.209" width="85.4931" height="81.5714" rx="8.62774" transform="rotate(-15 128.355 148.209)" fill="white"/>
</clipPath>
</defs>
</svg>
