<svg width="186" height="153" viewBox="0 0 186 153" fill="none" xmlns="http://www.w3.org/2000/svg">
<rect x="74.3081" y="-4.53955" width="34.4706" height="21.9358" rx="8.38529" transform="rotate(60 74.3081 -4.53955)" fill="#B3B3B3"/>
<rect x="38.6086" y="8.83447" width="53.2727" height="21.9358" rx="8.38529" transform="rotate(-30 38.6086 8.83447)" fill="#B3B3B3"/>
<path d="M194.988 57.8599C218.261 98.1699 204.449 149.714 164.139 172.987C123.829 196.26 72.2852 182.449 49.0122 142.139C25.7392 101.829 39.5504 50.2846 79.8605 27.0116C120.17 3.73859 171.715 17.5498 194.988 57.8599Z" fill="white" stroke="#B3B3B3" stroke-width="10.0623"/>
<ellipse cx="122.001" cy="99.9998" rx="62.9606" ry="62.9606" transform="rotate(-30 122.001 99.9998)" fill="#EEEEEE"/>
<path d="M60.5534 113.721C62.9469 124.44 68.1026 134.346 75.5086 142.456C82.9145 150.566 92.3131 156.598 102.771 159.952C113.229 163.306 124.382 163.867 135.124 161.578C145.865 159.288 155.821 154.229 164.003 146.902C172.184 139.576 178.307 130.236 181.763 119.811C185.219 109.387 185.888 98.2391 183.703 87.4758C181.518 76.7126 176.556 66.708 169.309 58.4556C162.063 50.2031 152.783 43.9899 142.392 40.4328L122.001 99.9998L60.5534 113.721Z" fill="url(#paint0_linear_1526_16575)"/>
<path d="M152.89 62.4093C153.282 58.1903 158.711 56.7356 161.159 60.1935L165.478 66.2915C166.248 67.3786 167.454 68.0751 168.781 68.1983L176.221 68.8894C180.44 69.2812 181.895 74.7102 178.437 77.1591L172.339 81.4777C171.252 82.2476 170.555 83.454 170.432 84.7805L169.741 92.2208C169.349 96.4399 163.92 97.8946 161.471 94.4367L157.153 88.3387C156.383 87.2515 155.177 86.555 153.85 86.4318L146.41 85.7408C142.191 85.349 140.736 79.9199 144.194 77.4711L150.292 73.1525C151.379 72.3825 152.076 71.1761 152.199 69.8497L152.89 62.4093Z" fill="white" fill-opacity="0.4"/>
<path d="M144.278 94.4029C144.512 91.8803 147.758 91.0106 149.222 93.078L151.805 96.7241C152.265 97.3741 152.986 97.7905 153.779 97.8642L158.228 98.2774C160.75 98.5116 161.62 101.758 159.553 103.222L155.907 105.804C155.257 106.264 154.84 106.986 154.767 107.779L154.353 112.227C154.119 114.75 150.873 115.62 149.409 113.552L146.827 109.906C146.366 109.256 145.645 108.84 144.852 108.766L140.403 108.353C137.881 108.119 137.011 104.873 139.079 103.408L142.725 100.826C143.375 100.366 143.791 99.6446 143.865 98.8515L144.278 94.4029Z" fill="white" fill-opacity="0.4"/>
<path d="M96.6001 136.512C96.7264 135.152 98.4761 134.683 99.2653 135.798L100.657 137.763C100.905 138.113 101.294 138.338 101.722 138.378L104.119 138.6C105.479 138.727 105.948 140.476 104.834 141.265L102.868 142.657C102.518 142.905 102.293 143.294 102.254 143.722L102.031 146.12C101.905 147.479 100.155 147.948 99.3658 146.834L97.974 144.868C97.7259 144.518 97.3371 144.294 96.9096 144.254L94.5117 144.031C93.152 143.905 92.6832 142.155 93.7976 141.366L95.7629 139.974C96.1132 139.726 96.3377 139.337 96.3774 138.91L96.6001 136.512Z" fill="white" fill-opacity="0.4"/>
<path d="M80.0934 122.154C80.1502 121.542 80.9376 121.331 81.2928 121.832L81.9192 122.717C82.0309 122.874 82.2058 122.975 82.3982 122.993L83.4774 123.093C84.0893 123.15 84.3003 123.938 83.7988 124.293L82.9143 124.919C82.7566 125.031 82.6556 125.206 82.6377 125.398L82.5375 126.477C82.4807 127.089 81.6932 127.3 81.3381 126.799L80.7117 125.914C80.6 125.757 80.425 125.656 80.2326 125.638L79.1535 125.538C78.5416 125.481 78.3306 124.693 78.8321 124.338L79.7166 123.712C79.8742 123.6 79.9753 123.425 79.9931 123.233L80.0934 122.154Z" fill="white" fill-opacity="0.4"/>
<defs>
<linearGradient id="paint0_linear_1526_16575" x1="90.5204" y1="45.4743" x2="153.481" y2="154.525" gradientUnits="userSpaceOnUse">
<stop stop-color="#3CE3AC"/>
<stop offset="1" stop-color="#32CACA"/>
</linearGradient>
</defs>
</svg>
