<svg width="10" height="13" viewBox="0 0 10 13" fill="none" xmlns="http://www.w3.org/2000/svg">
<path fill-rule="evenodd" clip-rule="evenodd" d="M4.34686 0.959371C4.38623 0.759401 4.52752 0.5959 4.71761 0.530342C4.9077 0.464783 5.11777 0.507105 5.26885 0.641394C5.92805 1.22736 6.43919 1.85508 6.68544 2.54995C6.94111 3.27143 6.89229 4.01276 6.52651 4.75565C6.46235 4.886 6.40352 4.9981 6.35049 5.09912C6.14212 5.49614 6.02344 5.72227 6.02344 6.21429C6.02344 6.44162 6.11233 6.65964 6.27057 6.82038C6.4288 6.98113 6.64341 7.07143 6.86719 7.07143C7.09096 7.07143 7.30557 6.98113 7.46381 6.82038C7.62204 6.65964 7.71094 6.44162 7.71094 6.21429C7.71094 5.97181 7.86158 5.75573 8.08674 5.67526C8.3119 5.59478 8.56255 5.66742 8.71201 5.85648C9.11371 6.36459 9.39844 7.1438 9.39844 7.92858C9.39844 8.5289 9.28204 9.12335 9.0559 9.67798C8.82975 10.2326 8.49828 10.7366 8.08042 11.1611C7.66255 11.5856 7.16648 11.9223 6.62051 12.152C6.07455 12.3818 5.48939 12.5 4.89844 12.5C4.30749 12.5 3.72233 12.3818 3.17636 12.152C2.6304 11.9223 2.13432 11.5856 1.71646 11.1611C1.29859 10.7366 0.967125 10.2326 0.740979 9.67798C0.514832 9.12335 0.398438 8.5289 0.398438 7.92858C0.398438 6.57396 1.07101 5.33591 2.29705 4.33951C3.32298 3.50573 4.09262 2.25074 4.34686 0.959371Z" fill="#3CE3AC"/>
</svg>
