<svg width="147" height="200" viewBox="0 0 147 200" fill="none" xmlns="http://www.w3.org/2000/svg">
<path d="M68.1236 150.483C55.7887 140.908 30.3148 131.377 20.0787 148.911L68.1236 150.483Z" fill="#D7E0FF"/>
<path d="M119.051 76.564L106.344 93.5L100.291 96.4274L107.344 107L110.344 118L107.344 129.5L100.291 137.5L96.8438 142L91.8438 142.5L85.8438 135L84.3438 133.5H79.8438L76.8438 127.5L72.3438 119L65.3438 112L69.8438 103L57.8438 101.393H53.391L42.3557 96.4274L30.7687 79.8746V59.4593L36.8381 45.6653L48.9769 29.6641L70.4956 23.043L86.4968 24.1465L100.291 31.3194L114.637 47.8723L119.051 76.564Z" fill="#3CE3AC"/>
<path d="M109.112 103.311C111.749 110.457 108.77 122.329 105.753 129.152C104.148 132.782 101.773 136.668 98.4 140.648C96.7224 142.627 95.3184 143.393 92.7461 143.041C90.755 142.768 89.5753 142.023 88.2788 140.49C87.1658 139.174 86.5221 138.153 86.549 136.431C86.6034 132.946 87.8191 128.872 87.8191 128.872L88.1725 123.514L81.7499 120.052" stroke="#168862" stroke-width="4" stroke-linecap="round" stroke-linejoin="round"/>
<path d="M76.8758 111.683C74.8214 115.182 75.267 121.686 76.2069 125.547C76.7069 127.601 77.5868 129.862 78.981 132.265C79.6744 133.461 80.3385 133.994 81.7202 134.051C82.7898 134.096 83.4782 133.816 84.3021 133.134C85.0094 132.549 85.4428 132.074 85.5906 131.169C85.8898 129.337 85.6355 127.087 85.6355 127.087L85.9541 124.244" stroke="#168862" stroke-width="4" stroke-linecap="round" stroke-linejoin="round"/>
<path d="M81.7789 120.445C79.4379 117.923 81.5737 109.004 82.9343 104.859L75.0974 103.252C72.8871 106.065 71.1791 115.719 70.6014 120.194C75.3027 121.328 84.1199 122.967 81.7789 120.445Z" fill="#FF8C3E"/>
<path d="M81.5 118.5C79.7043 119 78.2296 118.752 76.9997 118.5M76.9997 118.5C77.5145 113.502 78.6215 111.364 80.2039 108.626M76.9997 118.5C74.0608 117.897 72.9997 113.5 72.9997 113.5" stroke="white" stroke-width="2.5" stroke-linecap="round" stroke-linejoin="round"/>
<path d="M82.7793 121.445C80.4383 118.923 82.5741 110.004 83.9347 105.859L76.0978 104.252C73.8874 107.065 72.5777 114.525 72 119C72.5 124 85.1203 123.967 82.7793 121.445Z" stroke="#D95800" stroke-width="4" stroke-linecap="round" stroke-linejoin="round"/>
<path d="M71.5072 102.589C39.0072 105.589 27.3815 83.0107 30.2209 62.4991C33.378 39.7121 52.3774 22.0071 76.7928 23.3543C101.208 24.7015 117.645 44.3976 118.636 67.3738C119.179 79.9039 112.007 92.5886 95.0069 98.5885" stroke="#168862" stroke-width="4" stroke-linecap="round" stroke-linejoin="round"/>
<path d="M114.344 46.9883C114.344 46.9883 111.345 17.3801 76.8338 17.3806C39.8447 17.3811 31.8442 41.9888 31.8442 41.9888C31.8442 41.9888 24.0758 43.1705 22.3442 46.9883C19.8442 52.5005 63.8442 50.217 73.3442 44.9888C82.8442 39.7605 102.344 51.5005 114.344 46.9883Z" fill="#FFD600"/>
<path d="M114.344 46.9883C114.344 46.9883 111.345 17.3801 76.8338 17.3806C39.8447 17.3811 31.8442 41.9888 31.8442 41.9888M114.344 46.9883C114.344 46.9883 100.845 37.9861 71.345 37.9861C36.8422 37.9861 31.8442 41.9888 31.8442 41.9888M114.344 46.9883C102.344 51.5005 82.8442 39.7605 73.3442 44.9888C63.8442 50.217 19.8442 52.5005 22.3442 46.9883C24.0758 43.1705 31.8442 41.9888 31.8442 41.9888" stroke="#ED9C00" stroke-width="4" stroke-linecap="round" stroke-linejoin="round"/>
<path d="M69.0481 24.1095C65.8481 25.7095 61.3814 24.7762 59.5481 24.1095C55.1482 21.3094 64.0481 14.2763 69.0481 11.1097L79.5481 11.1097L85.8437 18.0005C81.0438 16.1793 72.5481 21.4772 69.0481 24.1095Z" fill="#FFD600" stroke="#ED9C00" stroke-width="4" stroke-linecap="round" stroke-linejoin="round"/>
<path d="M62.6124 63.367C62.4498 59.7659 63.5997 56.7889 65.1807 56.7178C66.7617 56.6467 68.175 59.5083 68.3376 63.1095C68.5001 66.7106 67.3502 69.6875 65.7692 69.7587C64.1883 69.8298 62.7749 66.9682 62.6124 63.367Z" fill="#004730"/>
<path d="M53.8536 64.8934C53.6911 61.2923 54.8409 58.3153 56.4219 58.2442C58.0029 58.173 59.4163 61.0347 59.5788 64.6358C59.7413 68.237 58.5914 71.2139 57.0104 71.285C55.4295 71.3562 54.0161 68.4945 53.8536 64.8934Z" fill="#004730"/>
<path d="M73.2567 54.0806C68.0863 52.4659 64.6352 56.4158 63.556 58.5925C62.4768 60.7693 60.3444 59.0005 60.3444 59.0005" stroke="#004730" stroke-width="3" stroke-linecap="round"/>
<path d="M57.844 79.0002C62.3442 72.0005 70.3443 63.0003 74.9175 76.5255" stroke="#004730" stroke-width="3" stroke-linecap="round"/>
<path d="M56.9181 60.9238C57.1119 59.2341 56.321 55.9895 51.6077 56.5284" stroke="#004730" stroke-width="3" stroke-linecap="round"/>
<path d="M63.3438 111C63.3438 111.667 63.3438 114 65.8437 115" stroke="#168862" stroke-width="4" stroke-linecap="round" stroke-linejoin="round"/>
<path d="M64.895 108.694L65.8984 112.543L69.8437 109.504L68.5444 105.001L64.895 108.694Z" fill="#3CE3AC"/>
<path d="M63.3442 117C60.38 113.748 66.2564 104.625 68.1039 102.941C69.2162 109.504 68.6204 108.728 71.3444 108.5" stroke="#168862" stroke-width="4" stroke-linecap="round" stroke-linejoin="round"/>
<path d="M60.3438 122.5L80.8438 97.5M80.8438 97.5V84.1596C80.8438 82.8284 82.1199 81.8687 83.3988 82.2381L97.9184 86.4327C99.7289 86.9557 99.8774 89.4636 98.1413 90.1966L80.8438 97.5Z" stroke="#853600" stroke-width="7" stroke-linecap="round" stroke-linejoin="round"/>
<path d="M99.3438 23.5C96.0104 22.5 80.8438 19.1995 76.8438 27.9995" stroke="#ED9C00" stroke-width="4" stroke-linecap="round"/>
<path d="M58.3438 20C54.3438 20.5 52.3438 23.5003 50.3438 27.0004" stroke="#ED9C00" stroke-width="4" stroke-linecap="round"/>
<path d="M90.8436 125.5C95.8436 129 105.844 124.5 112.344 121.5C115.844 111 108.697 102.47 107.068 97L102.844 98.5C103.127 102.62 95.8437 111 95.8437 111C95.8437 111 90.2264 109.177 89.3436 111C88.6096 112.516 86.4893 122.452 90.8436 125.5Z" fill="#FF8C3E"/>
<path d="M88.3438 119.5C89.5949 119.647 91.1516 119.893 92.8438 120M113.344 113.5C110.344 116.5 98.8153 120.379 92.8438 120M92.8438 120C92.8438 120 92.3438 115.5 93.8438 110" stroke="white" stroke-width="2.5" stroke-linecap="round" stroke-linejoin="round"/>
<path d="M95.8441 111C95.8441 111 103.127 102.62 102.844 98.5L105.344 95.5C106.973 100.97 115.844 107 112.344 122C105.844 125 95.844 129 90.844 125.5C86.4897 122.452 88.61 112.516 89.344 111M95.8441 111C95.8441 111 90.2268 109.177 89.344 111M95.8441 111H89.344" stroke="#D95800" stroke-width="4" stroke-linecap="round" stroke-linejoin="round"/>
<path d="M14.526 63.7841C13.4452 64.129 13.0209 64.6215 12.8471 64.995C12.6607 65.3957 12.6804 65.8368 12.7912 66.184C12.902 66.5312 13.1415 66.9021 13.5256 67.1207C13.8836 67.3245 14.5147 67.4801 15.5954 67.1352C16.6921 66.7853 17.5741 66.1307 18.1346 65.4705C18.4151 65.1401 18.5948 64.8322 18.6872 64.5895C18.7569 64.4063 18.7599 64.3085 18.7595 64.2792C18.7429 64.2552 18.6838 64.1771 18.5208 64.0682C18.3049 63.9239 17.9801 63.777 17.5601 63.6702C16.7207 63.4568 15.6226 63.4342 14.526 63.7841Z" fill="white" stroke="#6184FF" stroke-width="2"/>
<path d="M129.77 40.7841C130.851 41.129 131.275 41.6215 131.449 41.995C131.635 42.3957 131.616 42.8368 131.505 43.184C131.394 43.5312 131.154 43.9021 130.77 44.1207C130.412 44.3245 129.781 44.4801 128.7 44.1352C127.604 43.7853 126.722 43.1307 126.161 42.4705C125.881 42.1401 125.701 41.8322 125.609 41.5895C125.539 41.4063 125.536 41.3085 125.536 41.2792C125.553 41.2552 125.612 41.1771 125.775 41.0682C125.991 40.9239 126.316 40.777 126.736 40.6702C127.575 40.4568 128.673 40.4342 129.77 40.7841Z" fill="white" stroke="#6184FF" stroke-width="2"/>
<path d="M20.5208 56.9011C19.6376 56.1892 18.9929 56.1063 18.5854 56.1671C18.1483 56.2322 17.791 56.4916 17.5623 56.7754C17.3336 57.0591 17.1559 57.4633 17.185 57.9043C17.2122 58.3154 17.43 58.9278 18.3132 59.6398C19.2094 60.3622 20.2416 60.7377 21.1014 60.8418C21.5316 60.8939 21.8876 60.8743 22.1411 60.8177C22.3323 60.7749 22.4156 60.7235 22.4398 60.7071C22.4508 60.6799 22.4833 60.5876 22.4844 60.3917C22.486 60.1319 22.4296 59.7799 22.2874 59.3706C22.0031 58.5525 21.417 57.6235 20.5208 56.9011Z" fill="white" stroke="#6184FF" stroke-width="2"/>
<path d="M123.775 33.9011C124.658 33.1892 125.303 33.1063 125.71 33.1671C126.148 33.2322 126.505 33.4916 126.734 33.7754C126.962 34.0591 127.14 34.4633 127.111 34.9043C127.084 35.3154 126.866 35.9278 125.983 36.6398C125.086 37.3622 124.054 37.7377 123.195 37.8418C122.764 37.8939 122.408 37.8743 122.155 37.8177C121.964 37.7749 121.88 37.7235 121.856 37.7071C121.845 37.6799 121.813 37.5876 121.811 37.3917C121.81 37.1319 121.866 36.7799 122.009 36.3706C122.293 35.5525 122.879 34.6235 123.775 33.9011Z" fill="white" stroke="#6184FF" stroke-width="2"/>
<path d="M71.5114 112C68.913 113.833 63.7969 117.536 65.7968 120.5C67.7967 123.464 72.625 115.536 72.625 115.536C73.2189 113.964 72.1301 112.524 71.5114 112Z" fill="#3CE3AC" stroke="#168862" stroke-width="4" stroke-linecap="round" stroke-linejoin="round"/>
<path d="M79.3438 112.5L93.3438 107.5H95.8438L99.3438 103.5L101.344 99V95L95.3438 94L83.3438 99L75.3438 106L77.8438 109.5L79.3438 112.5Z" fill="#3CE3AC"/>
<path d="M68.8438 127L62.3438 143L47.8438 141.5L32.8438 145V135L47.8438 120.5L68.8438 127Z" fill="#EEEEEE"/>
<path d="M91.8443 94.5C85.344 96.4995 81.0076 99.1719 77.1637 103.51C76.4602 104.304 75.2722 105.381 75.4066 106.359C75.5518 107.435 77.0487 109.293 77.2617 110.493C77.4554 111.578 78.9716 112.491 80.2155 112.584C80.2155 112.584 84.1633 109.599 88.059 108.703C89.3593 108.404 90.7018 108.544 92.2199 109.593" stroke="#168862" stroke-width="4" stroke-linecap="round" stroke-linejoin="round"/>
<path d="M33.8438 143.5L32.8202 138.041C32.5213 136.447 33.0139 134.808 34.1415 133.642L43.9975 123.458C46.0564 121.33 49.1221 120.514 51.9666 121.335L58.5938 123.25M62.8438 141.5L68.3609 129.678C69.1398 128.008 68.2446 126.038 66.4749 125.527L58.5938 123.25M58.5938 123.25L48.3438 135.5" stroke="#B3B3B3" stroke-width="7" stroke-linecap="round" stroke-linejoin="round"/>
<path d="M21 152C33.1263 142.162 58.3895 132.086 69 149.396L21 152Z" fill="#D7E0FF"/>
<g filter="url(#filter0_d_1735_12850)">
<path d="M21 127.5L27.5 132.5L24.5 124L21 127.5Z" fill="#6184FF"/>
</g>
<g filter="url(#filter1_d_1735_12850)">
<path d="M21.6888 136.569L26.5556 134.56L20.8663 133.499L21.6888 136.569Z" fill="#6184FF"/>
</g>
<rect x="9" y="147" width="129.443" height="29.2216" rx="8.22164" fill="#D7E0FF"/>
<path d="M25.002 159.658H27.0801C26.8066 157.381 25.084 156.076 22.8008 156.076C20.1895 156.076 18.1934 157.928 18.1934 161.162C18.1934 164.381 20.1553 166.248 22.8008 166.248C25.3164 166.248 26.8545 164.58 27.0801 162.748L25.002 162.734C24.8037 163.807 23.9561 164.422 22.8281 164.429C21.3174 164.422 20.2852 163.294 20.2852 161.162C20.2852 159.077 21.3037 157.901 22.8418 157.894C23.9971 157.901 24.8379 158.564 25.002 159.658ZM37.5801 161.162C37.5801 157.928 35.5771 156.076 32.959 156.076C30.3203 156.076 28.3242 157.928 28.3242 161.162C28.3242 164.381 30.3203 166.248 32.959 166.248C35.5771 166.248 37.5801 164.395 37.5801 161.162ZM30.416 161.162C30.416 159.042 31.4209 157.901 32.959 157.894C34.4834 157.901 35.4951 159.042 35.4883 161.162C35.4951 163.274 34.4834 164.422 32.959 164.429C31.4209 164.422 30.416 163.274 30.416 161.162ZM39.0566 156.212V166.111H41.0527V159.603H41.1348L43.7188 166.07H45.0859L47.6699 159.63H47.752V166.111H49.748V156.212H47.2051L44.457 162.925H44.3477L41.5996 156.212H39.0566ZM51.416 156.212V166.111H53.4121V159.603H53.4941L56.0781 166.07H57.4453L60.0293 159.63H60.1113V166.111H62.1074V156.212H59.5645L56.8164 162.925H56.707L53.959 156.212H51.416ZM65.8262 156.212H63.7754V166.111H65.8262V156.212ZM75.752 156.212H73.7148V162.501H73.6191L69.2988 156.212H67.4941V166.111H69.5449V159.822H69.627L73.9746 166.111H75.752V156.212ZM83.9961 159.398H86.0742C85.8008 157.45 84.085 156.076 81.8496 156.076C79.2383 156.076 77.2285 157.962 77.2285 161.175C77.2285 164.306 79.1152 166.248 81.8906 166.248C84.3857 166.248 86.1699 164.662 86.1699 162.064V160.833H82.041V162.378H84.1875C84.1602 163.623 83.3193 164.422 81.9043 164.429C80.3252 164.422 79.3203 163.24 79.3203 161.148C79.3203 159.07 80.3594 157.901 81.8906 157.894C82.9707 157.901 83.7158 158.468 83.9961 159.398ZM96.2734 159.042H98.2422C98.2148 157.292 96.7725 156.076 94.5781 156.076C92.4111 156.076 90.8252 157.272 90.832 159.07C90.832 160.519 91.8574 161.353 93.5254 161.763L94.6055 162.023C95.6855 162.29 96.3008 162.604 96.3008 163.281C96.3008 164.019 95.6035 164.525 94.5234 164.525C93.4297 164.525 92.6367 164.019 92.5684 163.021H90.5723C90.6338 165.147 92.1582 166.254 94.5508 166.248C96.9639 166.254 98.3721 165.092 98.3789 163.281C98.3721 161.633 97.1074 160.772 95.4121 160.382L94.5234 160.164C93.6689 159.972 92.9307 159.651 92.9375 158.933C92.9443 158.277 93.5254 157.798 94.5645 157.798C95.5693 157.798 96.1914 158.256 96.2734 159.042ZM108.783 161.162C108.783 157.928 106.78 156.076 104.162 156.076C101.523 156.076 99.5273 157.928 99.5273 161.162C99.5273 164.381 101.523 166.248 104.162 166.248C106.78 166.248 108.783 164.395 108.783 161.162ZM101.619 161.162C101.619 159.042 102.624 157.901 104.162 157.894C105.687 157.901 106.698 159.042 106.691 161.162C106.698 163.274 105.687 164.422 104.162 164.429C102.624 164.422 101.619 163.274 101.619 161.162ZM119.324 161.162C119.324 157.928 117.321 156.076 114.703 156.076C112.064 156.076 110.068 157.928 110.068 161.162C110.068 164.381 112.064 166.248 114.703 166.248C117.321 166.248 119.324 164.395 119.324 161.162ZM112.16 161.162C112.16 159.042 113.165 157.901 114.703 157.894C116.228 157.901 117.239 159.042 117.232 161.162C117.239 163.274 116.228 164.422 114.703 164.429C113.165 164.422 112.16 163.274 112.16 161.162ZM129.059 156.212H127.021V162.501H126.926L122.605 156.212H120.801V166.111H122.852V159.822H122.934L127.281 166.111H129.059V156.212Z" fill="#6184FF"/>
<path d="M3.86072 186.696C1.94272 186.696 0.570719 188.404 0.584719 191.12C0.570719 193.85 1.94272 195.572 3.86072 195.572C5.75072 195.572 7.12272 193.85 7.13672 191.12C7.12272 188.404 5.75072 186.696 3.86072 186.696ZM2.26472 191.12C2.25072 189.272 2.90872 188.264 3.86072 188.264C4.82672 188.264 5.45672 189.272 5.45672 191.12C5.45672 192.982 4.82672 193.976 3.86072 193.976C2.90872 193.976 2.25072 192.982 2.26472 191.12ZM8.56472 198.26H10.3287V191.96H12.1487V190.504H10.3287V185.8H8.56472V198.26ZM23.0163 185.8H21.2803V193.304H23.0163V185.8ZM12.6563 191.764L13.5523 193.108C15.0223 192.618 16.0303 191.652 16.6043 190.42C17.1643 191.554 18.1443 192.45 19.5443 192.884L20.4123 191.54C18.3963 190.91 17.4723 189.384 17.4443 187.928H19.9643V186.528H13.1043V187.928H15.6803C15.6663 189.482 14.7143 191.092 12.6563 191.764ZM14.4763 195.264H21.2803V198.26H23.0163V193.864H14.4763V195.264ZM38.2585 186.36H28.9625V187.732H32.3785C32.1545 188.74 30.8805 189.776 28.4305 190.056L29.0745 191.428C31.3985 191.162 32.9385 190.182 33.5965 188.908C34.2405 190.196 35.7945 191.162 38.1185 191.428L38.7625 190.056C36.3265 189.776 35.0385 188.74 34.8145 187.732H38.2585V186.36ZM27.9265 193.416H32.8825V195.544H34.6185V193.416H39.2945V192.016H27.9265V193.416ZM29.2425 198.036H38.0345V196.636H31.0065V194.452H29.2425V198.036ZM50.4421 185.8H48.6781V198.288H50.4421V185.8ZM40.6421 195.376H46.8021V186.808H45.0661V189.832H42.4061V186.808H40.6421V195.376ZM42.4061 193.948V191.176H45.0661V193.948H42.4061ZM66.7203 191.456H55.3523V192.856H60.1683V193.78C57.9563 193.934 56.6543 194.718 56.6683 196.02C56.6543 197.462 58.2923 198.26 61.0083 198.26C63.7103 198.26 65.3343 197.462 65.3483 196.02C65.3343 194.732 64.0603 193.948 61.8763 193.78V192.856H66.7203V191.456ZM55.8563 189.636L56.4443 191.008C58.7963 190.784 60.3643 189.888 61.0223 188.67C61.6803 189.888 63.2623 190.784 65.6283 191.008L66.2163 189.636C63.8783 189.426 62.6043 188.6 62.2963 187.732H65.6843V186.332H56.3883V187.732H59.7483C59.4263 188.6 58.1523 189.44 55.8563 189.636ZM58.4323 196.02C58.4183 195.39 59.2863 195.082 61.0083 195.068C62.7023 195.082 63.5983 195.39 63.6123 196.02C63.5983 196.622 62.7023 196.944 61.0083 196.944C59.2863 196.944 58.4183 196.622 58.4323 196.02ZM77.8679 185.828H76.1319V194.76H77.8679V185.828ZM67.6479 189.748C67.6479 191.61 69.1459 192.912 71.0639 192.912C72.9679 192.912 74.4519 191.61 74.4519 189.748C74.4519 187.928 72.9679 186.612 71.0639 186.612C69.1459 186.612 67.6479 187.928 67.6479 189.748ZM69.3559 189.748C69.3419 188.74 70.0839 188.138 71.0639 188.124C72.0019 188.138 72.7299 188.74 72.7159 189.748C72.7299 190.798 72.0019 191.386 71.0639 191.4C70.0839 191.386 69.3419 190.798 69.3559 189.748ZM69.5239 198.036H78.2039V196.636H71.2879V193.864H69.5239V198.036ZM87.4821 188.628V186.78H85.7181V188.628C85.7041 190.966 84.7381 193.374 82.6101 194.34L83.7021 195.768C85.1161 195.068 86.0821 193.724 86.6141 192.086C87.1321 193.626 88.0561 194.872 89.4421 195.544L90.5061 194.144C88.4341 193.248 87.4961 190.966 87.4821 188.628ZM89.1061 191.12H91.5701V198.288H93.2781V185.8H91.5701V189.72H89.1061V191.12ZM105.294 185.8H103.53V198.288H105.294V185.8ZM95.4937 195.376H101.654V186.808H99.9177V189.832H97.2577V186.808H95.4937V195.376ZM97.2577 193.948V191.176H99.9177V193.948H97.2577ZM113.529 187.452V186.556H111.681V187.452C111.653 189.258 110.043 191.218 107.257 191.708L108.013 193.164C110.169 192.716 111.793 191.498 112.605 189.916C113.417 191.512 115.027 192.73 117.197 193.164L117.953 191.708C115.139 191.232 113.529 189.286 113.529 187.452ZM106.977 196.72H118.373V195.292H106.977V196.72ZM129.857 185.8H128.205V198.26H129.857V185.8ZM119.189 191.204C119.189 194.004 120.253 195.726 121.905 195.712C122.941 195.726 123.753 195.04 124.215 193.836H125.685V197.672H127.309V185.996H125.685V188.572H124.215C123.753 187.382 122.941 186.696 121.905 186.696C120.253 186.696 119.189 188.418 119.189 191.204ZM120.785 191.204C120.771 189.3 121.163 188.348 121.905 188.348C122.619 188.348 123.053 189.3 123.053 191.204C123.053 193.122 122.619 194.06 121.905 194.06C121.163 194.06 120.771 193.122 120.785 191.204ZM124.565 189.972H125.685V192.408H124.565C124.621 192.03 124.649 191.638 124.649 191.204C124.649 190.77 124.621 190.35 124.565 189.972ZM142.573 195.376H140.025V192.296C140.963 191.722 141.537 190.84 141.537 189.748C141.537 187.76 139.549 186.416 136.861 186.416C134.159 186.416 132.185 187.76 132.185 189.748C132.185 190.854 132.759 191.736 133.725 192.324V195.376H131.177V196.804H142.573V195.376ZM133.893 189.748C133.907 188.516 135.069 187.788 136.861 187.788C138.611 187.788 139.815 188.516 139.829 189.748C139.815 190.98 138.611 191.736 136.861 191.736C135.069 191.736 133.907 190.98 133.893 189.748ZM135.461 195.376V192.954C135.895 193.038 136.371 193.08 136.861 193.08C137.351 193.08 137.827 193.038 138.261 192.954V195.376H135.461ZM144.9 197.112C145.502 197.126 146.034 196.608 146.048 195.964C146.034 195.348 145.502 194.83 144.9 194.844C144.256 194.83 143.724 195.348 143.752 195.964C143.724 196.608 144.256 197.126 144.9 197.112Z" fill="#6184FF"/>
<defs>
<filter id="filter0_d_1735_12850" x="17" y="124" width="14.5" height="16.5" filterUnits="userSpaceOnUse" color-interpolation-filters="sRGB">
<feFlood flood-opacity="0" result="BackgroundImageFix"/>
<feColorMatrix in="SourceAlpha" type="matrix" values="0 0 0 0 0 0 0 0 0 0 0 0 0 0 0 0 0 0 127 0" result="hardAlpha"/>
<feOffset dy="4"/>
<feGaussianBlur stdDeviation="2"/>
<feComposite in2="hardAlpha" operator="out"/>
<feColorMatrix type="matrix" values="0 0 0 0 0 0 0 0 0 0 0 0 0 0 0 0 0 0 0.25 0"/>
<feBlend mode="normal" in2="BackgroundImageFix" result="effect1_dropShadow_1735_12850"/>
<feBlend mode="normal" in="SourceGraphic" in2="effect1_dropShadow_1735_12850" result="shape"/>
</filter>
<filter id="filter1_d_1735_12850" x="16.8662" y="133.499" width="13.6895" height="11.0696" filterUnits="userSpaceOnUse" color-interpolation-filters="sRGB">
<feFlood flood-opacity="0" result="BackgroundImageFix"/>
<feColorMatrix in="SourceAlpha" type="matrix" values="0 0 0 0 0 0 0 0 0 0 0 0 0 0 0 0 0 0 127 0" result="hardAlpha"/>
<feOffset dy="4"/>
<feGaussianBlur stdDeviation="2"/>
<feComposite in2="hardAlpha" operator="out"/>
<feColorMatrix type="matrix" values="0 0 0 0 0 0 0 0 0 0 0 0 0 0 0 0 0 0 0.25 0"/>
<feBlend mode="normal" in2="BackgroundImageFix" result="effect1_dropShadow_1735_12850"/>
<feBlend mode="normal" in="SourceGraphic" in2="effect1_dropShadow_1735_12850" result="shape"/>
</filter>
</defs>
</svg>
