<svg width="140" height="141" viewBox="0 0 140 141" fill="none" xmlns="http://www.w3.org/2000/svg">
<mask id="path-1-outside-1_28_195" maskUnits="userSpaceOnUse" x="20.439" y="22.1349" width="89" height="100" fill="black">
<rect fill="white" x="20.439" y="22.1349" width="89" height="100"/>
<path fill-rule="evenodd" clip-rule="evenodd" d="M31.7224 42.1777C30.7428 40.481 31.3242 38.3115 33.0208 37.3319L46.3939 29.6108C48.0906 28.6312 50.2601 29.2125 51.2396 30.9092L52.3322 32.8017C53.3118 34.4983 52.7304 36.6679 51.0338 37.6475L48.366 39.1877L50.4957 42.8765C67.8144 35.5185 88.2995 42.071 97.9473 58.7817C108.38 76.8528 102.189 99.9602 84.1181 110.394C66.0473 120.827 42.9403 114.635 32.5071 96.5642C22.8593 79.8535 27.4275 58.8361 42.4592 47.5164L40.3295 43.8277L37.6607 45.3685C35.964 46.3481 33.7945 45.7668 32.815 44.0701L31.7224 42.1777Z"/>
</mask>
<path fill-rule="evenodd" clip-rule="evenodd" d="M31.7224 42.1777C30.7428 40.481 31.3242 38.3115 33.0208 37.3319L46.3939 29.6108C48.0906 28.6312 50.2601 29.2125 51.2396 30.9092L52.3322 32.8017C53.3118 34.4983 52.7304 36.6679 51.0338 37.6475L48.366 39.1877L50.4957 42.8765C67.8144 35.5185 88.2995 42.071 97.9473 58.7817C108.38 76.8528 102.189 99.9602 84.1181 110.394C66.0473 120.827 42.9403 114.635 32.5071 96.5642C22.8593 79.8535 27.4275 58.8361 42.4592 47.5164L40.3295 43.8277L37.6607 45.3685C35.964 46.3481 33.7945 45.7668 32.815 44.0701L31.7224 42.1777Z" fill="#CAF4E6"/>
<path d="M33.0208 37.3319L36.0209 42.528H36.0209L33.0208 37.3319ZM31.7224 42.1777L26.5262 45.1777H26.5262L31.7224 42.1777ZM46.3939 29.6108L43.3939 24.4147L43.3939 24.4147L46.3939 29.6108ZM51.2396 30.9092L46.0434 33.9092L46.0435 33.9092L51.2396 30.9092ZM52.3322 32.8017L57.5284 29.8017L57.5284 29.8017L52.3322 32.8017ZM51.0338 37.6475L48.0337 32.4513L48.0337 32.4513L51.0338 37.6475ZM48.366 39.1877L45.366 33.9916L40.1699 36.9916L43.1698 42.1877L48.366 39.1877ZM50.4957 42.8765L45.2995 45.8765L47.9545 50.4752L52.8419 48.3988L50.4957 42.8765ZM97.9473 58.7817L92.7511 61.7816L97.9473 58.7817ZM84.1181 110.394L87.1182 115.59L84.1181 110.394ZM32.5071 96.5642L27.3109 99.5642H27.3109L32.5071 96.5642ZM42.4592 47.5164L46.0685 52.3094L50.3103 49.1151L47.6553 44.5165L42.4592 47.5164ZM40.3295 43.8277L45.5257 40.8277L42.5257 35.6315L37.3295 38.6316L40.3295 43.8277ZM37.6607 45.3685L34.6607 40.1724L34.6607 40.1724L37.6607 45.3685ZM32.815 44.0701L38.0112 41.0702L38.0112 41.0702L32.815 44.0701ZM30.0208 32.1358C25.4544 34.7722 23.8898 40.6112 26.5262 45.1777L36.9186 39.1777C37.5958 40.3508 37.1939 41.8507 36.0209 42.528L30.0208 32.1358ZM43.3939 24.4147L30.0208 32.1358L36.0209 42.528L49.3939 34.8069L43.3939 24.4147ZM56.4358 27.9093C53.7994 23.3428 47.9603 21.7782 43.3939 24.4147L49.3939 34.8069C48.2208 35.4842 46.7207 35.0823 46.0434 33.9092L56.4358 27.9093ZM57.5284 29.8017L56.4358 27.9093L46.0435 33.9092L47.136 35.8016L57.5284 29.8017ZM54.0338 42.8436C58.6002 40.2071 60.1648 34.3681 57.5284 29.8017L47.136 35.8016C46.4588 34.6286 46.8607 33.1286 48.0337 32.4513L54.0338 42.8436ZM51.366 44.3839L54.0338 42.8436L48.0337 32.4513L45.366 33.9916L51.366 44.3839ZM55.6919 39.8766L53.5622 36.1878L43.1698 42.1877L45.2995 45.8765L55.6919 39.8766ZM52.8419 48.3988C67.4045 42.2117 84.6377 47.7285 92.7511 61.7816L103.143 55.7817C91.9614 36.4135 68.2244 28.8253 48.1495 37.3542L52.8419 48.3988ZM92.7511 61.7816C101.527 76.983 96.3191 96.421 81.1181 105.197L87.1182 115.59C108.059 103.499 115.233 76.7225 103.143 55.7817L92.7511 61.7816ZM81.1181 105.197C65.9171 113.974 46.4796 108.766 37.7033 93.5643L27.3109 99.5642C39.4009 120.505 66.1775 127.68 87.1182 115.59L81.1181 105.197ZM37.7033 93.5643C29.5898 79.511 33.4289 61.8277 46.0685 52.3094L38.8498 42.7235C21.426 55.8445 16.1289 80.1959 27.3109 99.5642L37.7033 93.5643ZM35.1333 46.8277L37.263 50.5164L47.6553 44.5165L45.5257 40.8277L35.1333 46.8277ZM40.6607 50.5647L43.3295 49.0238L37.3295 38.6316L34.6607 40.1724L40.6607 50.5647ZM27.6188 47.0701C30.2552 51.6366 36.0943 53.2012 40.6607 50.5647L34.6607 40.1724C35.8338 39.4951 37.3339 39.8971 38.0112 41.0702L27.6188 47.0701ZM26.5262 45.1777L27.6188 47.0701L38.0112 41.0702L36.9186 39.1777L26.5262 45.1777Z" fill="#1D1D29" mask="url(#path-1-outside-1_28_195)"/>
<ellipse cx="33.4274" cy="33.4277" rx="33.4274" ry="33.4277" transform="matrix(0.866022 -0.500007 0.499993 0.866029 19.5678 65.4374)" fill="white"/>
<ellipse cx="26.6351" cy="26.6353" rx="26.6351" ry="26.6353" transform="matrix(0.866022 -0.500007 0.499993 0.866029 28.8456 67.9235)" fill="#EEEEEE"/>
<path d="M39.2349 83.4774C40.2475 88.012 42.4285 92.2028 45.5616 95.6337C48.6946 99.0646 52.6706 101.616 57.0947 103.035C61.5188 104.454 66.2372 104.692 70.7813 103.723C75.3254 102.755 79.5371 100.614 82.9983 97.5148C86.4594 94.4152 89.0496 90.4642 90.5116 86.054C91.9736 81.6437 92.2565 76.9278 91.3323 72.3744C90.4081 67.8211 88.3089 63.5886 85.2432 60.0975C82.1775 56.6063 78.2519 53.9778 73.8562 52.473L65.2296 77.6727L39.2349 83.4774Z" fill="#595959"/>
<path d="M100.316 12.0528C100.316 7.05313 96.2635 3.00002 91.2637 3.00002C86.264 3.00003 82.211 7.05315 82.211 12.0528L82.211 27.2113L67.0528 27.2113C62.0531 27.2113 58.0001 31.2644 58.0001 36.2641C58.0001 41.2638 62.0531 45.3169 67.0528 45.3169L82.211 45.3169L82.2109 60.4753C82.2109 65.475 86.2639 69.5281 91.2637 69.5281C96.2634 69.5281 100.316 65.475 100.316 60.4753L100.316 45.3169L115.475 45.3168C120.474 45.3168 124.527 41.2637 124.527 36.264C124.527 31.2643 120.474 27.2112 115.475 27.2112L100.316 27.2112L100.316 12.0528Z" fill="#3CE3AC" stroke="#1D1D29" stroke-width="6" stroke-linecap="round" stroke-linejoin="round"/>
</svg>
