<svg width="140" height="140" viewBox="0 0 140 140" fill="none" xmlns="http://www.w3.org/2000/svg">
<mask id="path-1-outside-1_2959_1832" maskUnits="userSpaceOnUse" x="20.8713" y="28" width="89" height="100" fill="black">
<rect fill="white" x="20.8713" y="28" width="89" height="100"/>
<path fill-rule="evenodd" clip-rule="evenodd" d="M32.1547 48.0428C31.1752 46.3461 31.7565 44.1765 33.4532 43.1969L46.8262 35.4759C48.5229 34.4963 50.6924 35.0776 51.672 36.7743L52.7645 38.6667C53.7441 40.3634 53.1628 42.5329 51.4661 43.5125L48.7983 45.0528L50.928 48.7416C68.2468 41.3836 88.7319 47.9361 98.3796 64.6467C108.813 82.7178 102.621 105.825 84.5505 116.259C66.4797 126.692 43.3726 120.5 32.9395 102.429C23.2917 85.7185 27.8598 64.7012 42.8915 53.3815L40.7618 49.6927L38.093 51.2336C36.3964 52.2132 34.2269 51.6319 33.2473 49.9352L32.1547 48.0428Z"/>
</mask>
<path fill-rule="evenodd" clip-rule="evenodd" d="M32.1547 48.0428C31.1752 46.3461 31.7565 44.1765 33.4532 43.1969L46.8262 35.4759C48.5229 34.4963 50.6924 35.0776 51.672 36.7743L52.7645 38.6667C53.7441 40.3634 53.1628 42.5329 51.4661 43.5125L48.7983 45.0528L50.928 48.7416C68.2468 41.3836 88.7319 47.9361 98.3796 64.6467C108.813 82.7178 102.621 105.825 84.5505 116.259C66.4797 126.692 43.3726 120.5 32.9395 102.429C23.2917 85.7185 27.8598 64.7012 42.8915 53.3815L40.7618 49.6927L38.093 51.2336C36.3964 52.2132 34.2269 51.6319 33.2473 49.9352L32.1547 48.0428Z" fill="#FFD7D5"/>
<path d="M33.4532 43.1969L36.4532 48.3931H36.4532L33.4532 43.1969ZM32.1547 48.0428L26.9586 51.0427H26.9586L32.1547 48.0428ZM46.8262 35.4759L43.8262 30.2797L43.8262 30.2797L46.8262 35.4759ZM51.672 36.7743L46.4758 39.7742L46.4758 39.7742L51.672 36.7743ZM52.7645 38.6667L57.9607 35.6667L57.9607 35.6667L52.7645 38.6667ZM51.4661 43.5125L48.4661 38.3164L48.4661 38.3164L51.4661 43.5125ZM48.7983 45.0528L45.7983 39.8567L40.6023 42.8566L43.6022 48.0527L48.7983 45.0528ZM50.928 48.7416L45.7318 51.7415L48.3869 56.3403L53.2742 54.2638L50.928 48.7416ZM98.3796 64.6467L93.1834 67.6467L98.3796 64.6467ZM84.5505 116.259L87.5505 121.455L84.5505 116.259ZM32.9395 102.429L27.7433 105.429H27.7433L32.9395 102.429ZM42.8915 53.3815L46.5009 58.1745L50.7426 54.9802L48.0877 50.3815L42.8915 53.3815ZM40.7618 49.6927L45.958 46.6928L42.958 41.4965L37.7618 44.4966L40.7618 49.6927ZM38.093 51.2336L35.093 46.0375L35.093 46.0375L38.093 51.2336ZM33.2473 49.9352L38.4435 46.9352L38.4435 46.9352L33.2473 49.9352ZM30.4531 38.0008C25.8868 40.6373 24.3222 46.4763 26.9586 51.0427L37.3509 45.0428C38.0282 46.2158 37.6263 47.7158 36.4532 48.3931L30.4531 38.0008ZM43.8262 30.2797L30.4531 38.0008L36.4532 48.3931L49.8263 40.672L43.8262 30.2797ZM56.8681 33.7743C54.2317 29.2078 48.3926 27.6432 43.8262 30.2797L49.8263 40.672C48.6532 41.3493 47.1531 40.9473 46.4758 39.7742L56.8681 33.7743ZM57.9607 35.6667L56.8681 33.7743L46.4758 39.7742L47.5684 41.6667L57.9607 35.6667ZM54.4662 48.7086C59.0325 46.0722 60.5971 40.2332 57.9607 35.6667L47.5684 41.6667C46.8911 40.4936 47.293 38.9937 48.4661 38.3164L54.4662 48.7086ZM51.7984 50.2489L54.4662 48.7086L48.4661 38.3164L45.7983 39.8567L51.7984 50.2489ZM56.1242 45.7416L53.9945 42.0528L43.6022 48.0527L45.7318 51.7415L56.1242 45.7416ZM53.2742 54.2638C67.8368 48.0768 85.07 53.5936 93.1834 67.6467L103.576 61.6467C92.3937 42.2785 68.6567 34.6903 48.5818 43.2193L53.2742 54.2638ZM93.1834 67.6467C101.96 82.8481 96.7515 102.286 81.5504 111.063L87.5505 121.455C108.491 109.365 115.666 82.5876 103.576 61.6467L93.1834 67.6467ZM81.5504 111.063C66.3494 119.839 46.912 114.631 38.1356 99.4293L27.7433 105.429C39.8333 126.37 66.6099 133.545 87.5505 121.455L81.5504 111.063ZM38.1356 99.4293C30.0222 85.3761 33.8613 67.6928 46.5009 58.1745L39.2821 48.5885C21.8584 61.7096 16.5612 86.061 27.7433 105.429L38.1356 99.4293ZM35.5657 52.6927L37.6953 56.3815L48.0877 50.3815L45.958 46.6928L35.5657 52.6927ZM41.0931 56.4297L43.7619 54.8889L37.7618 44.4966L35.093 46.0375L41.0931 56.4297ZM28.0511 52.9351C30.6875 57.5016 36.5266 59.0662 41.0931 56.4297L35.093 46.0375C36.2661 45.3602 37.7662 45.7621 38.4435 46.9352L28.0511 52.9351ZM26.9586 51.0427L28.0511 52.9352L38.4435 46.9352L37.3509 45.0428L26.9586 51.0427Z" fill="#1D1D29" mask="url(#path-1-outside-1_2959_1832)"/>
<ellipse cx="33.4274" cy="33.4277" rx="33.4274" ry="33.4277" transform="matrix(0.866022 -0.500007 0.499993 0.866029 20 71.3024)" fill="white"/>
<ellipse cx="26.6351" cy="26.6353" rx="26.6351" ry="26.6353" transform="matrix(0.866022 -0.500007 0.499993 0.866029 29.2778 73.7885)" fill="#EEEEEE"/>
<path d="M39.6671 89.3425C40.6796 93.8771 42.8607 98.0679 45.9937 101.499C49.1268 104.93 53.1028 107.481 57.5269 108.9C61.951 110.32 66.6694 110.557 71.2135 109.588C75.7576 108.62 79.9693 106.479 83.4305 103.38C86.8916 100.28 89.4818 96.3293 90.9438 91.919C92.4058 87.5088 92.6887 82.7929 91.7645 78.2395C90.8403 73.6861 88.7411 69.4537 85.6754 65.9625C82.6097 62.4714 78.6841 59.8429 74.2883 58.338L65.6618 83.5378L39.6671 89.3425Z" fill="#595959"/>
<path d="M106.74 23.364C110.285 19.8193 116.032 19.8193 119.577 23.364C123.122 26.9088 123.122 32.6561 119.577 36.2008L108.807 46.9707L119.577 57.7406C123.122 61.2854 123.122 67.0326 119.577 70.5774C116.032 74.1222 110.285 74.1222 106.74 70.5774L95.9704 59.8075L85.2006 70.5774C81.6558 74.1222 75.9086 74.1222 72.3638 70.5774C68.8191 67.0326 68.8191 61.2854 72.3638 57.7406L83.1337 46.9707L72.3638 36.2008C68.8191 32.6561 68.8191 26.9088 72.3638 23.364C75.9086 19.8193 81.6558 19.8193 85.2006 23.364L95.9704 34.1339L106.74 23.364Z" fill="#FF6056" stroke="#1D1D29" stroke-width="6" stroke-linecap="round" stroke-linejoin="round"/>
</svg>
