<svg width="140" height="140" viewBox="0 0 140 140" fill="none" xmlns="http://www.w3.org/2000/svg">
<path d="M34.1535 48.1457C34.0705 46.9878 34.9875 46.0028 36.1484 46.0028H97.8517C99.0125 46.0028 99.9295 46.9878 99.8465 48.1457L95.9487 102.574C95.6489 106.76 92.1656 110.003 87.9691 110.003H46.0309C41.8344 110.003 38.3511 106.76 38.0513 102.574L34.1535 48.1457Z" fill="#D9D9D9"/>
<path d="M31 38.718C31 37.1768 32.1679 35.8863 33.7015 35.7329L60.0995 33.0931C60.6107 33.042 61 32.6118 61 32.0981V29.0031C61 27.3462 62.3431 26.0031 64 26.0031H70C71.6569 26.0031 73 27.3462 73 29.0031V32.0981C73 32.6118 73.3893 33.042 73.9005 33.0931L100.299 35.7329C101.832 35.8863 103 37.1768 103 38.718V41.0031C103 42.6599 101.657 44.0031 100 44.0031H34C32.3431 44.0031 31 42.6599 31 41.0031V38.718Z" fill="#D9D9D9"/>
<mask id="path-3-outside-1_28_172" maskUnits="userSpaceOnUse" x="25" y="20.0031" width="84" height="96" fill="black">
<rect fill="white" x="25" y="20.0031" width="84" height="96"/>
<path fill-rule="evenodd" clip-rule="evenodd" d="M33.7015 35.7329C32.1679 35.8863 31 37.1768 31 38.718V41.0031C31 42.6599 32.3431 44.0031 34 44.0031H100C101.657 44.0031 103 42.6599 103 41.0031V38.718C103 37.1768 101.832 35.8863 100.299 35.7329L73.9005 33.0931C73.3893 33.042 73 32.6118 73 32.0981V29.0031C73 27.3462 71.6569 26.0031 70 26.0031H64C62.3431 26.0031 61 27.3462 61 29.0031V32.0981C61 32.6118 60.6107 33.042 60.0995 33.0931L33.7015 35.7329ZM36.1484 46.0031C34.9875 46.0031 34.0705 46.9881 34.1535 48.1459L38.0513 102.575C38.3511 106.76 41.8344 110.003 46.0309 110.003H87.9691C92.1656 110.003 95.6489 106.76 95.9487 102.575L99.8465 48.1459C99.9295 46.9881 99.0125 46.0031 97.8517 46.0031H36.1484Z"/>
</mask>
<path fill-rule="evenodd" clip-rule="evenodd" d="M33.7015 35.7329C32.1679 35.8863 31 37.1768 31 38.718V41.0031C31 42.6599 32.3431 44.0031 34 44.0031H100C101.657 44.0031 103 42.6599 103 41.0031V38.718C103 37.1768 101.832 35.8863 100.299 35.7329L73.9005 33.0931C73.3893 33.042 73 32.6118 73 32.0981V29.0031C73 27.3462 71.6569 26.0031 70 26.0031H64C62.3431 26.0031 61 27.3462 61 29.0031V32.0981C61 32.6118 60.6107 33.042 60.0995 33.0931L33.7015 35.7329ZM36.1484 46.0031C34.9875 46.0031 34.0705 46.9881 34.1535 48.1459L38.0513 102.575C38.3511 106.76 41.8344 110.003 46.0309 110.003H87.9691C92.1656 110.003 95.6489 106.76 95.9487 102.575L99.8465 48.1459C99.9295 46.9881 99.0125 46.0031 97.8517 46.0031H36.1484Z" fill="#D9D9D9"/>
<path d="M33.7015 35.7329L33.1045 29.7627L33.1045 29.7627L33.7015 35.7329ZM100.299 35.7329L99.7015 41.7032L100.299 35.7329ZM73.9005 33.0931L74.4975 27.1229V27.1229L73.9005 33.0931ZM60.0995 33.0931L60.6965 39.0634L60.0995 33.0931ZM34.1535 48.1459L40.1381 47.7174L34.1535 48.1459ZM38.0513 102.575L32.0667 103.003H32.0667L38.0513 102.575ZM95.9487 102.575L101.933 103.003L95.9487 102.575ZM99.8465 48.1459L105.831 48.5745V48.5745L99.8465 48.1459ZM37 38.718C37 40.2593 35.8321 41.5498 34.2985 41.7032L33.1045 29.7627C28.5037 30.2228 25 34.0943 25 38.718H37ZM37 41.0031V38.718H25V41.0031H37ZM34 38.0031C35.6569 38.0031 37 39.3462 37 41.0031H25C25 45.9736 29.0294 50.0031 34 50.0031V38.0031ZM100 38.0031H34V50.0031H100V38.0031ZM97 41.0031C97 39.3462 98.3431 38.0031 100 38.0031V50.0031C104.971 50.0031 109 45.9736 109 41.0031H97ZM97 38.718V41.0031H109V38.718H97ZM99.7015 41.7032C98.1679 41.5498 97 40.2593 97 38.718H109C109 34.0943 105.496 30.2228 100.896 29.7627L99.7015 41.7032ZM73.3035 39.0634L99.7015 41.7032L100.896 29.7627L74.4975 27.1229L73.3035 39.0634ZM67 32.0981C67 35.6944 69.7251 38.7055 73.3035 39.0634L74.4975 27.1229C77.0535 27.3785 79 29.5293 79 32.0981H67ZM67 29.0031V32.0981H79V29.0031H67ZM70 32.0031C68.3431 32.0031 67 30.6599 67 29.0031H79C79 24.0325 74.9706 20.0031 70 20.0031V32.0031ZM64 32.0031H70V20.0031H64V32.0031ZM67 29.0031C67 30.6599 65.6569 32.0031 64 32.0031V20.0031C59.0294 20.0031 55 24.0325 55 29.0031H67ZM67 32.0981V29.0031H55V32.0981H67ZM60.6965 39.0634C64.2749 38.7055 67 35.6943 67 32.0981H55C55 29.5293 56.9465 27.3785 59.5025 27.1229L60.6965 39.0634ZM34.2985 41.7032L60.6965 39.0634L59.5025 27.1229L33.1045 29.7627L34.2985 41.7032ZM40.1381 47.7174C40.304 50.0331 38.47 52.0031 36.1484 52.0031V40.0031C31.505 40.0031 27.8371 43.9431 28.1688 48.5745L40.1381 47.7174ZM44.036 102.146L40.1381 47.7174L28.1688 48.5745L32.0667 103.003L44.036 102.146ZM46.0309 104.003C44.9818 104.003 44.111 103.192 44.036 102.146L32.0667 103.003C32.5913 110.328 38.6869 116.003 46.0309 116.003V104.003ZM87.9691 104.003H46.0309V116.003H87.9691V104.003ZM89.964 102.146C89.889 103.192 89.0182 104.003 87.9691 104.003V116.003C95.313 116.003 101.409 110.328 101.933 103.003L89.964 102.146ZM93.8619 47.7174L89.964 102.146L101.933 103.003L105.831 48.5745L93.8619 47.7174ZM97.8517 52.0031C95.53 52.0031 93.696 50.0331 93.8619 47.7174L105.831 48.5745C106.163 43.9431 102.495 40.0031 97.8517 40.0031V52.0031ZM36.1484 52.0031H97.8517V40.0031H36.1484V52.0031Z" fill="#1D1D29" mask="url(#path-3-outside-1_28_172)"/>
<path fill-rule="evenodd" clip-rule="evenodd" d="M50 54.5027C51.3807 54.5027 52.5 55.622 52.5 57.0027V101.003C52.5 102.383 51.3807 103.503 50 103.503C48.6193 103.503 47.5 102.383 47.5 101.003V57.0027C47.5 55.622 48.6193 54.5027 50 54.5027Z" fill="#808080"/>
<path fill-rule="evenodd" clip-rule="evenodd" d="M67 54.5027C68.3807 54.5027 69.5 55.622 69.5 57.0027V101.003C69.5 102.383 68.3807 103.503 67 103.503C65.6193 103.503 64.5 102.383 64.5 101.003V57.0027C64.5 55.622 65.6193 54.5027 67 54.5027Z" fill="#808080"/>
<path fill-rule="evenodd" clip-rule="evenodd" d="M84 54.5027C85.3807 54.5027 86.5 55.622 86.5 57.0027V101.003C86.5 102.383 85.3807 103.503 84 103.503C82.6193 103.503 81.5 102.383 81.5 101.003V57.0027C81.5 55.622 82.6193 54.5027 84 54.5027Z" fill="#808080"/>
<path d="M106.74 11.364C110.285 7.81923 116.032 7.81923 119.577 11.364C123.122 14.9088 123.122 20.656 119.577 24.2008L108.807 34.9707L119.577 45.7406C123.122 49.2854 123.122 55.0326 119.577 58.5774C116.032 62.1222 110.285 62.1222 106.74 58.5774L95.9704 47.8075L85.2006 58.5774C81.6558 62.1222 75.9086 62.1222 72.3638 58.5774C68.8191 55.0326 68.8191 49.2854 72.3638 45.7406L83.1337 34.9707L72.3638 24.2008C68.8191 20.656 68.8191 14.9088 72.3638 11.364C75.9086 7.81923 81.6558 7.81923 85.2006 11.364L95.9704 22.1339L106.74 11.364Z" fill="#FF6056" stroke="#1D1D29" stroke-width="6" stroke-linecap="round" stroke-linejoin="round"/>
</svg>
