<svg width="140" height="140" viewBox="0 0 140 140" fill="none" xmlns="http://www.w3.org/2000/svg">
<g clip-path="url(#clip0_1528_18355)">
<path d="M134.708 58.5801L122.017 76.7883L115.948 78.4436L120.164 89.1042L122.017 99.6042L117.664 121.481H107.664L105.5 117C105.5 117 97.8296 117.165 93.5 117C88.5777 116.812 83.6636 109.104 83.6636 109.104L79.1636 102.604L78.1636 94.1042L70.1512 94.9965L66.2889 90.0306L72.9101 85.0647L69.0477 83.4094L58.0125 78.4436L46.4254 61.8907V41.4754L52.4948 27.6814L64.6336 11.6802L86.1524 5.05908L102.154 6.16261L115.948 13.3355L130.293 29.8884L134.708 58.5801Z" fill="#3CE3AC"/>
<path d="M87.1634 84.6041C54.6634 87.6041 43.0378 65.0264 45.8772 44.5147C49.0343 21.7277 68.0336 4.02274 92.4491 5.36993C116.865 6.71712 133.301 26.4132 134.292 49.3894C134.835 61.9195 127.663 74.6042 110.663 80.6041" stroke="#168862" stroke-width="4" stroke-linecap="round" stroke-linejoin="round"/>
<path d="M116.5 79.5C121.193 85.5 121.982 97.7143 121.193 105.133C120.774 109.08 119.699 113.506 117.702 118.325C116.709 120.722 115.606 121.88 113.049 122.33C111.07 122.678 109.719 122.329 108.016 121.265C106.554 120.352 105.63 119.577 105.129 117.929C104.117 114.594 104.03 110.343 104.03 110.343L102.731 105.133L95.5576 103.798" stroke="#168862" stroke-width="4" stroke-linecap="round" stroke-linejoin="round"/>
<path d="M79.1637 93.6041C79.1637 93.6041 78.4069 99.7606 79.1634 103.104C80.3709 108.442 83.276 113.138 87.9999 115.5C91.9999 117.5 100.406 118.232 102.5 118" stroke="#168862" stroke-width="4" stroke-linecap="round" stroke-linejoin="round"/>
<path d="M73.1631 84.6042C67.8788 86.2742 67.436 87.8129 66.1748 89.2093C64.9135 90.6057 68.7462 94.0436 68.7462 94.0436C68.7462 94.0436 69.4179 95.1784 70.5562 95.4351C72.7759 95.9356 79.1635 93.6042 79.1635 93.6042" stroke="#168862" stroke-width="4" stroke-linecap="round" stroke-linejoin="round"/>
<path d="M78.2691 45.3823C78.1066 41.7811 79.2565 38.8042 80.8374 38.7331C82.4184 38.6619 83.8318 41.5236 83.9943 45.1247C84.1568 48.7258 83.0069 51.7028 81.426 51.7739C79.845 51.8451 78.4316 48.9834 78.2691 45.3823Z" fill="#004730"/>
<path d="M69.5101 46.9094C69.3476 43.3083 70.4974 40.3313 72.0784 40.2602C73.6594 40.189 75.0728 43.0507 75.2353 46.6518C75.3978 50.253 74.2479 53.2299 72.6669 53.301C71.086 53.3722 69.6726 50.5105 69.5101 46.9094Z" fill="#004730"/>
<path d="M78.7178 39.9782C79.3223 37.7381 81.9576 34.0217 87.6632 37.0765" stroke="#004730" stroke-width="3" stroke-linecap="round"/>
<path d="M88 54.5392L84.715 58C84.715 58 82.6953 51.8264 85.445 51.0784C88 50.3833 88 54.5392 88 54.5392Z" fill="#FF6056"/>
<path d="M76 58C78.1547 58.8605 88.7768 59.0185 89.7564 52.6212" stroke="#004730" stroke-width="3" stroke-linecap="round"/>
<path d="M72.5741 42.9392C72.7679 41.2495 71.977 38.0049 67.2637 38.5438" stroke="#004730" stroke-width="3" stroke-linecap="round"/>
<path d="M110.748 53.1704L105.745 56.2115L119.055 81.258L123.569 79.6497C126.658 78.5487 129.167 76.2378 130.518 73.2486C131.683 70.67 131.905 67.764 131.146 65.0381L130.758 63.6472C130.023 61.0091 128.625 58.6029 126.698 56.6575L124.969 54.9129C123.488 53.418 121.627 52.3556 119.587 51.8402C116.581 51.081 113.397 51.5602 110.748 53.1704Z" fill="#D7E0FF" stroke="#051049" stroke-width="3" stroke-linecap="round" stroke-linejoin="round"/>
<path d="M111.286 84.6685C117.907 68.7889 104.928 61.9754 97.6118 60.5537C96.7219 60.9733 95.8333 61.4169 94.9471 61.8823C76.9716 71.3211 59.9681 89.7047 53.4635 98.0794C58.7616 98.714 68.9769 103.162 67.4537 115.878C76.3686 106.454 97.7919 92.6971 109.194 85.9026L111.286 84.6685Z" fill="#6184FF"/>
<path d="M57.6154 116.335L57.7196 115.517C58.1057 112.489 56.1558 109.653 53.1895 108.93L51.0466 108.407L50.1221 113.037C49.7358 114.971 51.2898 116.746 53.2584 116.618L57.6154 116.335Z" fill="#051049"/>
<path d="M97.6118 60.5537C104.928 61.9754 117.907 68.7889 111.286 84.6685L109.194 85.9026L111.524 86.8108L113.219 86.0833C116.67 84.6027 119.381 81.7986 120.745 78.3003C121.949 75.2139 122.019 71.801 120.944 68.6675L120.706 67.9733C120.137 66.3134 119.298 64.7583 118.224 63.3704L116.893 61.6505C115.323 59.6212 113.23 58.0569 110.84 57.1248C106.688 55.506 102.017 55.9363 98.2305 58.2864L95.7484 59.8271L94.9471 61.8823C95.8333 61.4169 96.7219 60.9733 97.6118 60.5537Z" fill="#2D57EB"/>
<path d="M67.4537 115.878C68.9769 103.162 58.7616 98.714 53.4635 98.0794L51.0466 108.407L53.1895 108.93C56.1558 109.653 58.1057 112.489 57.7196 115.517L57.6154 116.335L67.4537 115.878Z" fill="#D7E0FF"/>
<path d="M53.4635 98.0794C58.7616 98.714 68.9769 103.162 67.4537 115.878M53.4635 98.0794L51.0466 108.407M53.4635 98.0794C59.9681 89.7047 76.9716 71.3211 94.9471 61.8823M111.286 84.6685C117.907 68.7889 104.928 61.9754 97.6118 60.5537C96.7219 60.9733 95.8333 61.4169 94.9471 61.8823M111.286 84.6685C110.469 85.1504 109.194 85.9026 109.194 85.9026M111.286 84.6685L109.194 85.9026M67.4537 115.878L57.6154 116.335M67.4537 115.878C76.3686 106.454 97.7919 92.6971 109.194 85.9026M57.6154 116.335L57.7196 115.517C58.1057 112.489 56.1558 109.653 53.1895 108.93L51.0466 108.407M57.6154 116.335L53.2584 116.618M51.0466 108.407L50.1221 113.037M109.194 85.9026L111.524 86.8108L113.219 86.0833M94.9471 61.8823L95.7484 59.8271L98.2305 58.2864M53.2584 116.618C51.2898 116.746 49.7358 114.971 50.1221 113.037M53.2584 116.618V116.618C51.2898 116.746 49.7358 114.971 50.1221 113.037V113.037M98.2305 58.2864C102.017 55.9363 106.688 55.506 110.84 57.1248M98.2305 58.2864V58.2864C102.017 55.9363 106.688 55.506 110.84 57.1248V57.1248M110.84 57.1248C113.23 58.0569 115.323 59.6212 116.893 61.6505M110.84 57.1248V57.1248C113.23 58.0569 115.323 59.6212 116.893 61.6505V61.6505M116.893 61.6505L118.224 63.3704M118.224 63.3704C119.298 64.7583 120.137 66.3134 120.706 67.9733M118.224 63.3704V63.3704C119.298 64.7583 120.137 66.3134 120.706 67.9733V67.9733M120.706 67.9733L120.944 68.6675M120.944 68.6675C122.019 71.801 121.949 75.2139 120.745 78.3003M120.944 68.6675V68.6675C122.019 71.801 121.949 75.2139 120.745 78.3003V78.3003M120.745 78.3003C119.381 81.7986 116.67 84.6027 113.219 86.0833M120.745 78.3003V78.3003C119.381 81.7986 116.67 84.6027 113.219 86.0833V86.0833" stroke="#051049" stroke-width="3" stroke-linecap="round" stroke-linejoin="round"/>
<path fill-rule="evenodd" clip-rule="evenodd" d="M25.287 103.767C25.9261 105.191 26.0752 106.348 25.9091 107.109C25.6766 108.175 25.2049 108.763 24.7241 109.087C24.2239 109.424 23.5748 109.569 22.8594 109.495C21.3296 109.335 20.0627 108.278 19.8329 107.104C19.5341 105.578 19.782 104.869 20.0228 104.535C20.2681 104.195 20.7594 103.89 21.7355 103.739C22.7019 103.59 23.9137 103.629 25.287 103.767ZM28.6305 104.19C28.9768 105.412 29.0838 106.632 28.8402 107.748C28.4652 109.468 27.6035 110.764 26.4017 111.574C25.2192 112.372 23.8364 112.613 22.5473 112.478C20.068 112.219 17.4355 110.472 16.8888 107.681C16.5082 105.737 16.6691 104.058 17.5889 102.781C18.5043 101.511 19.9256 100.983 21.2778 100.774C21.9286 100.674 22.6181 100.638 23.3184 100.645C22.8293 100.044 22.2776 99.4483 21.6675 98.8738C18.496 95.887 13.9027 93.6038 8.65236 93.8743C7.82503 93.9169 7.11978 93.2808 7.07715 92.4535C7.03452 91.6261 7.67065 90.9209 8.49798 90.8783C14.7324 90.557 20.0912 93.2683 23.7243 96.6898C25.1456 98.0283 26.3264 99.4966 27.2055 100.972C27.5826 101.021 27.958 101.072 28.3233 101.121C28.8516 101.193 29.3589 101.261 29.8203 101.317C33.4674 101.759 36.8111 103.744 38.7433 106.174C38.9329 106.412 39.112 106.659 39.2779 106.913C41.6047 108.014 43.9723 109.846 45.8387 112.085C46.3692 112.721 46.2835 113.667 45.6472 114.198C45.0109 114.728 44.065 114.642 43.5345 114.006C42.6063 112.893 41.5534 111.92 40.4769 111.126C40.3572 112.384 39.7744 113.566 38.692 114.527C36.918 116.103 34.6625 115.959 33.0232 115.137C31.4501 114.349 29.9861 112.697 30.0502 110.671C30.1092 108.809 30.8167 107.289 32.2412 106.443C32.7491 106.142 33.3006 105.955 33.8725 105.859C32.5864 105.07 31.0603 104.489 29.4593 104.295C29.1806 104.261 28.9047 104.226 28.6305 104.19ZM37.1661 109.27C37.368 109.711 37.4746 110.124 37.496 110.492C37.5329 111.122 37.3316 111.723 36.6998 112.284C36.0801 112.835 35.2228 112.884 34.3675 112.455C33.446 111.993 33.0338 111.239 33.0487 110.766C33.0851 109.618 33.4669 109.205 33.7732 109.023C34.1694 108.787 34.9062 108.662 36.0512 108.927C36.4075 109.009 36.781 109.124 37.1661 109.27Z" fill="#051049"/>
<path d="M38.2682 97.6543C38.9212 98.1962 39.8959 97.6334 39.753 96.797L39.5011 95.322C39.4561 95.059 39.5283 94.7896 39.6987 94.5843L40.6545 93.4329C41.1964 92.78 40.6336 91.8052 39.7972 91.9481L38.3222 92.2C38.0592 92.245 37.7898 92.1728 37.5845 92.0024L36.4331 91.0467C35.7801 90.5047 34.8054 91.0675 34.9483 91.9039L35.2002 93.3789C35.2452 93.6419 35.173 93.9114 35.0026 94.1166L34.0468 95.2681C33.5049 95.921 34.0677 96.8957 34.9041 96.7528L36.3791 96.5009C36.6421 96.456 36.9115 96.5282 37.1168 96.6985L38.2682 97.6543Z" fill="#6184FF"/>
<path d="M35.8536 86.7468C37.1925 87.8582 39.1913 86.7041 38.8984 84.9889L38.3817 81.9642C38.2895 81.4249 38.4376 80.8724 38.787 80.4514L40.7469 78.0902C41.8582 76.7513 40.7041 74.7525 38.989 75.0455L35.9642 75.5622C35.4249 75.6543 34.8724 75.5062 34.4514 75.1568L32.0902 73.197C30.7514 72.0856 28.7525 73.2397 29.0455 74.9549L29.5622 77.9796C29.6543 78.5189 29.5062 79.0714 29.1568 79.4924L27.197 81.8536C26.0856 83.1925 27.2397 85.1913 28.9549 84.8983L31.9796 84.3816C32.5189 84.2895 33.0715 84.4376 33.4924 84.787L35.8536 86.7468Z" fill="#6184FF"/>
<path d="M98 92L109 89.5L117 91.5L117.5 88L117 81L110.5 78.5L99 79.5L93.5 85.5L95 90L98 92Z" fill="#3CE3AC"/>
</g>
<path d="M108.944 90.4033C107.444 89.3339 106.162 89.1269 104.944 89.3339C101.296 89.954 97.716 92.5298 97.716 92.5298C96.5299 92.3724 95.0394 91.4311 94.7947 90.4033C94.5251 89.2656 93 87.4394 92.8018 86.4228C92.6194 85.4975 93.6868 84.5548 94.3101 83.8502C97.7159 80 102.861 78.5 108.944 78.5C113 78.5 117.5 78.5 119.5 85.5" stroke="#168862" stroke-width="4" stroke-linecap="round" stroke-linejoin="round"/>
<path d="M76.5625 84L70.6042 82.1481L66.2708 83.6296L66 81.037L66.2708 75.8519L69.7917 74L76.0208 74.7407L79.5 77.5L78.1875 82.5185L76.5625 84Z" fill="#3CE3AC"/>
<path d="M64.5 80C64.5 77.5 65.6 72.5 70 72.5C74.4 72.5 80 75 80 77.5C80 80 78.1667 87.6667 76.5 85.5C74.8333 83.3333 70.1 79.9 64.5 83.5" stroke="#168862" stroke-width="4" stroke-linecap="round" stroke-linejoin="round"/>
<defs>
<clipPath id="clip0_1528_18355">
<rect width="140" height="140" fill="white"/>
</clipPath>
</defs>
</svg>
