<svg width="140" height="140" viewBox="0 0 140 140" fill="none" xmlns="http://www.w3.org/2000/svg">
<rect x="26.8447" y="57.3998" width="12.1388" height="7.72468" rx="3.86234" transform="rotate(60 26.8447 57.3998)" fill="#1D1D29"/>
<rect x="14.2732" y="62.1095" width="18.7599" height="7.72468" rx="3.86234" transform="rotate(-30 14.2732 62.1095)" fill="#1D1D29"/>
<circle cx="43.6394" cy="94.2133" r="28.4505" transform="rotate(-30 43.6394 94.2133)" fill="white" stroke="#1D1D29" stroke-width="6"/>
<circle cx="43.6396" cy="94.2135" r="22.1715" transform="rotate(-30 43.6396 94.2135)" fill="#EEEEEE"/>
<path d="M32.5539 75.0124C29.3651 76.8534 26.6851 79.4596 24.7557 82.5957C22.8263 85.7318 21.7083 89.299 21.5027 92.9754C21.2971 96.6517 22.0103 100.321 23.5779 103.653C25.1456 106.985 27.5183 109.874 30.4819 112.059L43.6396 94.2135L32.5539 75.0124Z" fill="#FF6056"/>
<path d="M40.9559 58.9759L53.6464 77.1841L43.7147 85.4605L48.1288 92.0817L55.4998 89.5L53.6464 100L57.9998 121.877H67.9998L72.4998 111.945L91.9998 109.5L96.4998 103L97.4998 94.5L105.512 95.3922L109.374 90.4264L102.753 85.4605L106.616 83.8052L117.651 78.8393L129.238 62.2865V41.8712L123.169 28.0771L111.03 12.076L89.511 5.45486L73.5099 6.55839L59.7158 13.7313L45.37 30.2842L40.9559 58.9759Z" fill="#3CE3AC"/>
<path d="M88.4999 85C121 88 132.626 65.4222 129.786 44.9105C126.629 22.1235 107.63 4.41858 83.2142 5.76577C58.7988 7.11296 42.3625 26.809 41.3712 49.7852C40.8285 62.3153 48.0002 75 65.0001 81" stroke="#168862" stroke-width="4.48276" stroke-linecap="round" stroke-linejoin="round"/>
<path d="M56.5469 89.1899C56.2023 89.7156 53.6812 98.1101 54.4699 105.529C54.8896 109.475 55.9645 113.901 57.9613 118.721C58.9543 121.118 60.0572 122.276 62.6143 122.726C64.5937 123.074 65.9444 122.725 67.6472 121.661C69.109 120.748 70.0335 119.973 70.534 118.325C71.5462 114.99 71.633 110.739 71.633 110.739L72.9328 105.529L80.1057 104.194" stroke="#168862" stroke-width="4.48276" stroke-linecap="round" stroke-linejoin="round"/>
<path d="M96.4997 94C96.4997 94 97.2565 100.156 96.5 103.5C95.2924 108.837 90.6852 110.943 85.5 111.951C78.0568 113.398 74.5934 112.183 72.4999 111.951" stroke="#168862" stroke-width="4.48276" stroke-linecap="round" stroke-linejoin="round"/>
<path d="M102.5 85C107.784 86.6699 108.227 88.2087 109.488 89.6051C110.75 91.0015 106.917 94.4394 106.917 94.4394C106.917 94.4394 106.245 95.5742 105.107 95.8308C102.887 96.3314 96.4998 94 96.4998 94" stroke="#168862" stroke-width="4.48276" stroke-linecap="round" stroke-linejoin="round"/>
<path d="M59.5002 79C54.0002 76.5 50.0004 79.5 44.866 83.5164C44.1255 84.0957 43.1753 85.1637 43.3577 86.089C43.5559 87.1056 45.0811 88.9318 45.3506 90.0694C45.5953 91.0973 47.0859 92.0385 48.272 92.1959C48.272 92.1959 51.8523 89.6201 55.5004 89C56.718 88.7931 58.0004 89 59.5004 90.0694" stroke="#168862" stroke-width="4.48276" stroke-linecap="round" stroke-linejoin="round"/>
<path d="M97.3943 45.778C97.5568 42.1769 96.4069 39.1999 94.8259 39.1288C93.245 39.0577 91.8316 41.9193 91.6691 45.5205C91.5066 49.1216 92.6564 52.0986 94.2374 52.1697C95.8184 52.2408 97.2318 49.3792 97.3943 45.778Z" fill="#004730"/>
<path d="M106.153 47.3051C106.316 43.7039 105.166 40.727 103.585 40.6559C102.004 40.5847 100.591 43.4464 100.428 47.0475C100.266 50.6486 101.415 53.6256 102.996 53.6967C104.577 53.7678 105.991 50.9062 106.153 47.3051Z" fill="#004730"/>
<path d="M90.0002 58.0478C92.0403 56.1737 94.2878 57.5787 97.0886 58.0478C99.4969 58.4512 101.794 56.3754 102.606 59.4396" stroke="#004730" stroke-width="4.48276" stroke-linecap="round" stroke-linejoin="round"/>
<path d="M60.2896 32.6019C59.1939 32.8955 58.5708 32.7103 58.2227 32.4899C57.8494 32.2534 57.6276 31.8716 57.5333 31.5195C57.439 31.1675 57.4401 30.726 57.6452 30.3345C57.8364 29.9696 58.2835 29.4977 59.3792 29.2041C60.4911 28.9062 61.587 28.9805 62.4153 29.2332C62.8298 29.3597 63.1474 29.5217 63.3563 29.6761C63.5139 29.7925 63.5692 29.8732 63.5847 29.8981C63.5837 29.9273 63.5762 30.0249 63.4979 30.2046C63.3942 30.4427 63.2002 30.7418 62.9044 31.0586C62.3134 31.6916 61.4015 32.3039 60.2896 32.6019Z" fill="white" stroke="#6184FF" stroke-width="2"/>
<path d="M25.6725 40.2215C24.539 40.2682 23.9715 39.9511 23.6802 39.6599C23.3676 39.3474 23.2348 38.9263 23.2198 38.5622C23.2048 38.1981 23.3025 37.7675 23.5884 37.4304C23.8548 37.1162 24.3943 36.7535 25.5277 36.7068C26.6778 36.6595 27.7309 36.9718 28.4839 37.3997C28.8606 37.6138 29.135 37.8414 29.3051 38.0378C29.4334 38.1859 29.4697 38.2767 29.4794 38.3044C29.472 38.3327 29.4433 38.4263 29.3276 38.5844C29.1742 38.7941 28.9195 39.0435 28.5616 39.2879C27.8464 39.7762 26.8226 40.1741 25.6725 40.2215Z" fill="white" stroke="#6184FF" stroke-width="2"/>
<path d="M8.65658 71.4155C7.52313 71.4622 6.95567 71.1451 6.6643 70.8539C6.35172 70.5414 6.21893 70.1203 6.20393 69.7562C6.18894 69.3921 6.28665 68.9615 6.57247 68.6244C6.8389 68.3102 7.37837 67.9475 8.51181 67.9008C9.66195 67.8535 10.715 68.1658 11.468 68.5937C11.8447 68.8078 12.1191 69.0354 12.2892 69.2318C12.4175 69.3799 12.4538 69.4707 12.4635 69.4984C12.4561 69.5267 12.4274 69.6203 12.3117 69.7784C12.1584 69.9881 11.9036 70.2375 11.5457 70.4819C10.8305 70.9702 9.80671 71.3681 8.65658 71.4155Z" fill="white" stroke="#6184FF" stroke-width="2"/>
<path d="M5.00561 81.4698C3.9832 81.9613 3.33659 81.8947 2.95374 81.7426C2.54302 81.5793 2.25442 81.2452 2.09652 80.9167C1.93863 80.5882 1.85795 80.1542 1.98701 79.7315C2.10731 79.3374 2.4592 78.7909 3.48162 78.2994C4.51908 77.8007 5.60977 77.6708 6.4706 77.7657C6.90136 77.8132 7.24341 77.9136 7.4773 78.0266C7.65375 78.1119 7.7231 78.1809 7.74293 78.2025C7.74736 78.2314 7.75798 78.3287 7.71435 78.5198C7.65651 78.773 7.52128 79.1028 7.28934 79.4689C6.82582 80.2005 6.04308 80.9711 5.00561 81.4698Z" fill="white" stroke="#6184FF" stroke-width="2"/>
<path d="M28.2874 49.1547C27.1916 49.4483 26.5685 49.2632 26.2205 49.0427C25.8471 48.8063 25.6254 48.4245 25.5311 48.0724C25.4367 47.7204 25.4378 47.2789 25.643 46.8874C25.8342 46.5225 26.2812 46.0506 27.3769 45.757C28.4888 45.459 29.5847 45.5333 30.4131 45.7861C30.8276 45.9126 31.1451 46.0746 31.354 46.229C31.5116 46.3454 31.567 46.4261 31.5825 46.451C31.5815 46.4802 31.5739 46.5778 31.4956 46.7575C31.3919 46.9956 31.1979 47.2947 30.9022 47.6115C30.3112 48.2445 29.3993 48.8568 28.2874 49.1547Z" fill="white" stroke="#6184FF" stroke-width="2"/>
<path d="M34.1221 21.2671C33.0064 21.062 32.5231 20.6273 32.3033 20.2788C32.0676 19.905 32.0312 19.465 32.097 19.1065C32.1629 18.7481 32.3534 18.3498 32.7067 18.0842C33.036 17.8367 33.6423 17.6023 34.7581 17.8074C35.8902 18.0155 36.8481 18.553 37.4878 19.1368C37.8079 19.4289 38.0252 19.7115 38.1476 19.9406C38.24 20.1134 38.2554 20.2101 38.2587 20.2392C38.2452 20.2652 38.1965 20.3501 38.0487 20.4787C37.8528 20.6493 37.5492 20.8362 37.1462 20.9954C36.3407 21.3135 35.2542 21.4752 34.1221 21.2671Z" fill="white" stroke="#6184FF" stroke-width="2"/>
<path d="M131.21 12.9779C132.192 12.4107 132.842 12.4283 133.235 12.5512C133.657 12.6829 133.97 12.9943 134.152 13.31C134.335 13.6256 134.448 14.0523 134.351 14.4836C134.261 14.8856 133.951 15.4571 132.969 16.0243C131.972 16.5998 130.894 16.8117 130.029 16.782C129.595 16.7671 129.247 16.6928 129.005 16.5977C128.823 16.526 128.748 16.4624 128.727 16.4424C128.72 16.4139 128.702 16.3177 128.731 16.1239C128.77 15.867 128.88 15.5279 129.084 15.1454C129.491 14.3809 130.213 13.5535 131.21 12.9779Z" fill="white" stroke="#6184FF" stroke-width="2"/>
<path d="M120.306 3.45646C120.838 2.45455 121.398 2.12482 121.797 2.02039C122.224 1.90835 122.655 2.00635 122.977 2.17727C123.299 2.34819 123.621 2.64993 123.767 3.06686C123.904 3.4555 123.945 4.10425 123.413 5.10617C122.873 6.12284 122.072 6.87409 121.322 7.30795C120.947 7.52506 120.612 7.64697 120.357 7.69462C120.164 7.73057 120.067 7.71606 120.038 7.71048C120.018 7.6898 119.952 7.61774 119.873 7.43802C119.77 7.1998 119.683 6.854 119.653 6.42168C119.593 5.55775 119.766 4.47313 120.306 3.45646Z" fill="white" stroke="#6184FF" stroke-width="2"/>
<path d="M61.8612 55.1363C60.8211 55.5891 60.1774 55.4983 59.8005 55.3319C59.3962 55.1534 59.1204 54.8087 58.9749 54.4745C58.8294 54.1403 58.7651 53.7035 58.9099 53.286C59.0449 52.8967 59.4171 52.3638 60.4572 51.911C61.5127 51.4516 62.6075 51.3627 63.4641 51.4898C63.8928 51.5535 64.2309 51.6667 64.4603 51.7884C64.6335 51.8802 64.7002 51.9518 64.7192 51.974C64.7225 52.0031 64.7295 52.1008 64.6787 52.29C64.6114 52.5409 64.4639 52.8655 64.2184 53.2226C63.7277 53.9362 62.9166 54.6769 61.8612 55.1363Z" fill="white" stroke="#6184FF" stroke-width="2"/>
<path d="M96.9455 36.5492C96.341 38.7892 93.7057 42.5056 88.0001 39.4509" stroke="#004730" stroke-width="3" stroke-linecap="round"/>
<path d="M103.089 38.5066C102.895 40.1963 103.686 43.4409 108.4 42.9019" stroke="#004730" stroke-width="3" stroke-linecap="round"/>
</svg>
