<svg width="140" height="145" viewBox="0 0 140 145" fill="none" xmlns="http://www.w3.org/2000/svg">
<rect x="19.8572" y="39.1429" width="101.214" height="78" rx="11.3492" fill="#1D1D29"/>
<mask id="path-2-outside-1_28_55" maskUnits="userSpaceOnUse" x="6.11891" y="0.301147" width="128" height="131" fill="black">
<rect fill="white" x="6.11891" y="0.301147" width="128" height="131"/>
<path fill-rule="evenodd" clip-rule="evenodd" d="M83.6723 14.205C84.7415 5.87477 95.5969 3.37011 100.208 10.3899L102.805 14.3435L107.496 14.9457C115.827 16.0149 118.331 26.8702 111.311 31.4811L110.567 31.9704C120.672 33.2009 128.5 41.8103 128.5 52.2481V104.496C128.5 115.778 119.354 124.925 108.072 124.925H32.5475C21.2651 124.925 12.1189 115.778 12.1189 104.496V52.2481C12.1189 40.9657 21.2651 31.8195 32.5475 31.8195H75.4676L75.4676 31.8195H47.0338L49.0886 27.7098C51.3956 23.0959 56.1114 20.1813 61.2699 20.1813H79.3502C79.8951 20.1813 80.4352 20.2139 80.968 20.2775L83.0701 18.8967L83.6723 14.205ZM103.496 29.9507C102.819 30.3954 102.324 31.0583 102.086 31.8195H81.952L81.9519 31.8195H93.5863L91.5314 27.7098C90.5254 25.6978 89.0614 24.0089 87.3023 22.744C87.9431 22.188 88.363 21.4124 88.4723 20.5603L89.197 14.9141C89.6079 11.7125 93.7801 10.7498 95.5522 13.4478L98.6774 18.2057C99.2345 19.054 100.134 19.6165 101.141 19.7457L106.787 20.4703C109.989 20.8813 110.951 25.0534 108.254 26.8255L103.496 29.9507ZM31.2272 39.5783C24.9592 39.5783 19.878 44.6595 19.878 50.9275V105.817C19.878 112.085 24.9592 117.166 31.2272 117.166H109.393C115.661 117.166 120.742 112.085 120.742 105.817V50.9275C120.742 44.6595 115.661 39.5783 109.393 39.5783H31.2272Z"/>
</mask>
<path fill-rule="evenodd" clip-rule="evenodd" d="M83.6723 14.205C84.7415 5.87477 95.5969 3.37011 100.208 10.3899L102.805 14.3435L107.496 14.9457C115.827 16.0149 118.331 26.8702 111.311 31.4811L110.567 31.9704C120.672 33.2009 128.5 41.8103 128.5 52.2481V104.496C128.5 115.778 119.354 124.925 108.072 124.925H32.5475C21.2651 124.925 12.1189 115.778 12.1189 104.496V52.2481C12.1189 40.9657 21.2651 31.8195 32.5475 31.8195H75.4676L75.4676 31.8195H47.0338L49.0886 27.7098C51.3956 23.0959 56.1114 20.1813 61.2699 20.1813H79.3502C79.8951 20.1813 80.4352 20.2139 80.968 20.2775L83.0701 18.8967L83.6723 14.205ZM103.496 29.9507C102.819 30.3954 102.324 31.0583 102.086 31.8195H81.952L81.9519 31.8195H93.5863L91.5314 27.7098C90.5254 25.6978 89.0614 24.0089 87.3023 22.744C87.9431 22.188 88.363 21.4124 88.4723 20.5603L89.197 14.9141C89.6079 11.7125 93.7801 10.7498 95.5522 13.4478L98.6774 18.2057C99.2345 19.054 100.134 19.6165 101.141 19.7457L106.787 20.4703C109.989 20.8813 110.951 25.0534 108.254 26.8255L103.496 29.9507ZM31.2272 39.5783C24.9592 39.5783 19.878 44.6595 19.878 50.9275V105.817C19.878 112.085 24.9592 117.166 31.2272 117.166H109.393C115.661 117.166 120.742 112.085 120.742 105.817V50.9275C120.742 44.6595 115.661 39.5783 109.393 39.5783H31.2272Z" fill="#6184FF"/>
<path d="M100.208 10.3899L104.864 7.33118V7.33117L100.208 10.3899ZM83.6723 14.205L89.1984 14.9143L89.1984 14.9143L83.6723 14.205ZM102.805 14.3435L98.1479 17.4022L99.5543 19.5434L102.095 19.8696L102.805 14.3435ZM107.496 14.9457L108.206 9.41957L108.206 9.41957L107.496 14.9457ZM111.311 31.4811L108.253 26.8244V26.8244L111.311 31.4811ZM110.567 31.9704L107.508 27.3136L94.7968 35.6627L109.893 37.501L110.567 31.9704ZM75.4676 31.8195V37.391H83.1975L80.7531 30.0577L75.4676 31.8195ZM75.4676 31.8195L80.7531 30.0576L79.4832 26.248H75.4676V31.8195ZM47.0338 31.8195L42.0506 29.3278L38.019 37.3909H47.0338V31.8195ZM49.0886 27.7098L54.0719 30.2014V30.2014L49.0886 27.7098ZM80.968 20.2775L80.3073 25.8096L82.3268 26.0508L84.0267 24.9342L80.968 20.2775ZM83.0701 18.8967L86.1289 23.5534L88.2701 22.147L88.5962 19.606L83.0701 18.8967ZM102.086 31.8195V37.391H106.181L107.403 33.4819L102.086 31.8195ZM103.496 29.9507L100.437 25.294V25.294L103.496 29.9507ZM81.952 31.8195L78.6092 36.2767L80.0949 37.391H81.952V31.8195ZM81.9519 31.8195V26.248H65.2376L78.6091 36.2766L81.9519 31.8195ZM93.5863 31.8195V37.3909H102.601L98.5695 29.3279L93.5863 31.8195ZM91.5314 27.7098L96.5147 25.2182V25.2182L91.5314 27.7098ZM87.3023 22.744L83.6511 18.5357L78.3286 23.1535L84.0496 27.2674L87.3023 22.744ZM88.4723 20.5603L93.9984 21.2696L93.9984 21.2696L88.4723 20.5603ZM89.197 14.9141L83.6709 14.2048V14.2048L89.197 14.9141ZM95.5522 13.4478L100.209 10.3891V10.3891L95.5522 13.4478ZM98.6774 18.2057L94.0207 21.2644L94.0207 21.2645L98.6774 18.2057ZM101.141 19.7457L101.85 14.2196L101.85 14.2196L101.141 19.7457ZM106.787 20.4703L106.078 25.9964L106.787 20.4703ZM108.254 26.8255L105.195 22.1688V22.1688L108.254 26.8255ZM104.864 7.33117C97.4142 -4.01152 79.8739 0.0355849 78.1462 13.4957L89.1984 14.9143C89.6092 11.7139 93.7796 10.7517 95.551 13.4486L104.864 7.33117ZM107.461 11.2848L104.864 7.33118L95.551 13.4486L98.1479 17.4022L107.461 11.2848ZM108.206 9.41957L103.514 8.81739L102.095 19.8696L106.787 20.4718L108.206 9.41957ZM114.37 36.1378C125.713 28.6875 121.666 11.1472 108.206 9.41957L106.787 20.4718C109.987 20.8825 110.95 25.053 108.253 26.8244L114.37 36.1378ZM113.625 36.6271L114.37 36.1378L108.253 26.8244L107.508 27.3136L113.625 36.6271ZM134.072 52.2481C134.072 38.9596 124.107 28.0066 111.24 26.4398L109.893 37.501C117.237 38.3952 122.929 44.6611 122.929 52.2481H134.072ZM134.072 104.496V52.2481H122.929V104.496H134.072ZM108.072 130.496C122.431 130.496 134.072 118.855 134.072 104.496H122.929C122.929 112.701 116.277 119.353 108.072 119.353V130.496ZM32.5475 130.496H108.072V119.353H32.5475V130.496ZM6.54748 104.496C6.54748 118.855 18.188 130.496 32.5475 130.496V119.353C24.3421 119.353 17.6903 112.701 17.6903 104.496H6.54748ZM6.54748 52.2481V104.496H17.6903V52.2481H6.54748ZM32.5475 26.2481C18.1881 26.2481 6.54748 37.8887 6.54748 52.2481H17.6903C17.6903 44.0427 24.3421 37.391 32.5475 37.391V26.2481ZM75.4676 26.2481H32.5475V37.391H75.4676V26.2481ZM70.182 33.5813L70.1821 33.5814L80.7531 30.0577L80.7531 30.0576L70.182 33.5813ZM47.0338 37.3909H75.4676V26.248H47.0338V37.3909ZM44.1054 25.2182L42.0506 29.3278L52.017 34.3111L54.0719 30.2014L44.1054 25.2182ZM61.2699 14.6099C54.0011 14.6099 47.3561 18.7167 44.1054 25.2182L54.0719 30.2014C55.4351 27.475 58.2217 25.7528 61.2699 25.7528V14.6099ZM79.3502 14.6099H61.2699V25.7528H79.3502V14.6099ZM81.6286 14.7454C80.8776 14.6557 80.117 14.6099 79.3502 14.6099V25.7528C79.6733 25.7528 79.9928 25.7721 80.3073 25.8096L81.6286 14.7454ZM80.0114 14.24L77.9092 15.6208L84.0267 24.9342L86.1289 23.5534L80.0114 14.24ZM78.1462 13.4957L77.5441 18.1874L88.5962 19.606L89.1984 14.9143L78.1462 13.4957ZM107.403 33.4819C107.26 33.9401 106.962 34.3395 106.554 34.6074L100.437 25.294C98.675 26.4513 97.3873 28.1765 96.7681 30.1572L107.403 33.4819ZM81.952 37.391H102.086V26.2481H81.952V37.391ZM78.6091 36.2766L78.6092 36.2767L85.2949 27.3624L85.2948 27.3623L78.6091 36.2766ZM93.5863 26.248H81.9519V37.3909H93.5863V26.248ZM86.5482 30.2014L88.603 34.3111L98.5695 29.3279L96.5147 25.2182L86.5482 30.2014ZM84.0496 27.2674C85.0894 28.015 85.9534 29.0117 86.5482 30.2014L96.5147 25.2182C95.0975 22.3838 93.0334 20.0028 90.5549 18.2206L84.0496 27.2674ZM82.9462 19.851C83.0121 19.3375 83.2651 18.8706 83.6511 18.5357L90.9534 26.9523C92.6211 25.5054 93.7138 23.4872 93.9984 21.2696L82.9462 19.851ZM83.6709 14.2048L82.9462 19.851L93.9984 21.2696L94.7231 15.6234L83.6709 14.2048ZM100.209 10.3891C95.5974 3.36822 84.7403 5.87327 83.6709 14.2048L94.7231 15.6234C94.4756 17.5517 91.9628 18.1315 90.8955 16.5065L100.209 10.3891ZM103.334 15.147L100.209 10.3891L90.8955 16.5065L94.0207 21.2644L103.334 15.147ZM101.85 14.2196C102.457 14.2974 102.999 14.6362 103.334 15.147L94.0207 21.2645C95.4705 23.4718 97.8123 24.9355 100.432 25.2717L101.85 14.2196ZM107.496 14.9442L101.85 14.2196L100.432 25.2717L106.078 25.9964L107.496 14.9442ZM111.312 31.4823C118.333 26.8707 115.828 16.0136 107.496 14.9442L106.078 25.9964C104.15 25.7489 103.57 23.2361 105.195 22.1688L111.312 31.4823ZM106.554 34.6075L111.312 31.4823L105.195 22.1688L100.437 25.294L106.554 34.6075ZM25.4494 50.9275C25.4494 47.7365 28.0362 45.1497 31.2272 45.1497V34.0068C21.8822 34.0068 14.3065 41.5825 14.3065 50.9275H25.4494ZM25.4494 105.817V50.9275H14.3065V105.817H25.4494ZM31.2272 111.594C28.0362 111.594 25.4494 109.008 25.4494 105.817H14.3065C14.3065 115.162 21.8822 122.737 31.2272 122.737V111.594ZM109.393 111.594H31.2272V122.737H109.393V111.594ZM115.17 105.817C115.17 109.008 112.584 111.594 109.393 111.594V122.737C118.738 122.737 126.313 115.162 126.313 105.817H115.17ZM115.17 50.9275V105.817H126.313V50.9275H115.17ZM109.393 45.1497C112.584 45.1497 115.17 47.7365 115.17 50.9275H126.313C126.313 41.5825 118.738 34.0068 109.393 34.0068V45.1497ZM31.2272 45.1497H109.393V34.0068H31.2272V45.1497Z" fill="#1D1D29" mask="url(#path-2-outside-1_28_55)"/>
<g clip-path="url(#clip0_28_55)">
<path d="M77.1508 28.4907C68.8309 35.9441 62.3509 63.9685 62.3509 63.9685C62.3509 63.9685 37.1158 80.215 14.75 137.571L76.0357 139.893C88.905 126.426 102.423 107.665 104.838 98.703C108.856 83.797 98.3489 79.1388 98.3489 79.1388C98.3489 79.1388 117.784 59.4083 114.109 48.395C112.558 43.7459 107.115 41.7614 102.737 40.9256C98.359 40.0898 89.1208 62.2128 89.1208 62.2128L97.4088 40.3343C97.4088 40.3343 98.3316 37.1111 98.3489 34.4034C98.3967 26.9031 82.7071 23.513 77.1508 28.4907Z" fill="#3CE3AC"/>
<path d="M86.2971 69.8825L89.1208 62.2128M98.3489 79.1388C98.3489 79.1388 117.784 59.4083 114.109 48.395C112.558 43.7459 107.115 41.7614 102.737 40.9256C98.359 40.0898 89.1208 62.2128 89.1208 62.2128M98.3489 79.1388C98.3489 79.1388 108.856 83.797 104.838 98.703C102.423 107.665 88.905 126.426 76.0357 139.893L14.75 137.571C37.1158 80.215 62.3509 63.9685 62.3509 63.9685C62.3509 63.9685 68.8309 35.9441 77.1508 28.4907C82.7071 23.513 98.3967 26.9031 98.3489 34.4034C98.3316 37.1111 97.4088 40.3343 97.4088 40.3343L89.1208 62.2128M98.3489 79.1388C95.503 77.5686 88.6832 74.6994 85.439 78.16C83.2217 80.5252 83.7635 81.2457 83.2217 82.2991M59.3911 81.0021C59.3911 81.0021 74.1911 76.386 80.7347 81.0021C81.5241 81.5589 82.4758 81.7638 83.2217 82.2991M86.2971 98.703C82.8174 104.937 64.1271 102.995 64.1271 102.995M86.2971 98.703C89.3536 93.227 88.0476 85.7625 83.2217 82.2991M86.2971 98.703C88.7521 99.5933 94.319 100.038 98.3489 97.6732" stroke="#168862" stroke-width="3.71429" stroke-linecap="round" stroke-linejoin="round"/>
</g>
<path d="M89.1973 14.9137C89.6082 11.712 93.7804 10.7494 95.5525 13.4474L98.6777 18.2053C99.2348 19.0535 100.135 19.616 101.141 19.7452L106.787 20.4699C109.989 20.8808 110.952 25.053 108.254 26.8251L103.496 29.9503C102.648 30.5074 102.085 31.4073 101.956 32.4139L101.231 38.0601C100.82 41.2618 96.6482 42.2244 94.876 39.5264L91.7509 34.7685C91.1937 33.9203 90.2938 33.3578 89.2872 33.2286L83.641 32.5039C80.4394 32.0929 79.4768 27.9208 82.1747 26.1487L86.9327 23.0235C87.7809 22.4664 88.3434 21.5664 88.4726 20.5599L89.1973 14.9137Z" fill="white"/>
<defs>
<clipPath id="clip0_28_55">
<rect x="19.8572" y="20.5714" width="101.214" height="96.5714" rx="10.2143" fill="white"/>
</clipPath>
</defs>
</svg>
