<svg width="141" height="140" viewBox="0 0 141 140" fill="none" xmlns="http://www.w3.org/2000/svg">
<mask id="path-1-outside-1_1599_4143" maskUnits="userSpaceOnUse" x="25.3458" y="11.0392" width="116.351" height="116.351" fill="black">
<rect fill="white" x="25.3458" y="11.0392" width="116.351" height="116.351"/>
<path fill-rule="evenodd" clip-rule="evenodd" d="M124.837 61.0527C129.907 58.1255 131.644 51.6422 128.717 46.572L125.304 40.6606C122.377 35.5905 115.893 33.8533 110.823 36.7806C110.374 37.0402 110.22 37.6151 110.479 38.0648L114.723 45.4153L111.837 47.0814C111.756 47.1283 111.677 47.1779 111.601 47.2301C102.453 36.3529 87.5212 31.1203 72.8857 35.0419C71.8499 35.3195 70.8358 35.6375 69.8445 35.9938C69.8123 35.9292 69.7779 35.8651 69.7413 35.8018L67.9818 32.7541L75.1702 28.6038C75.6198 28.3442 75.7739 27.7692 75.5143 27.3196C72.5871 22.2494 66.1039 20.5123 61.0338 23.4396L55.1224 26.8526C50.0523 29.7798 48.3151 36.2631 51.2423 41.3333C51.5019 41.7829 52.0769 41.937 52.5265 41.6773L59.9452 37.3941L61.558 40.1874C48.5408 48.9504 41.8811 65.3104 46.1697 81.316C47.1161 84.8482 48.5329 88.1287 50.3346 91.1082L46.3898 93.3858C44.1706 94.667 43.4102 97.5047 44.6916 99.724C45.9729 101.943 48.8106 102.704 51.0298 101.422L55.6223 98.7708C55.7988 98.6689 55.9662 98.5571 56.124 98.4365C65.3551 107.527 79.0235 111.628 92.4428 108.032C92.5037 108.016 92.5646 107.999 92.6255 107.983C92.7204 108.256 92.8425 108.524 92.9925 108.784L95.6439 113.377C96.9252 115.596 99.7629 116.356 101.982 115.075C104.201 113.794 104.962 110.956 103.681 108.737L101.213 104.463C115.897 96.2043 123.72 78.7807 119.159 61.758C118.525 59.3934 117.681 57.1416 116.651 55.0174L119.363 53.4519L123.552 60.7086C123.812 61.1583 124.387 61.3123 124.837 61.0527Z"/>
</mask>
<path fill-rule="evenodd" clip-rule="evenodd" d="M124.837 61.0527C129.907 58.1255 131.644 51.6422 128.717 46.572L125.304 40.6606C122.377 35.5905 115.893 33.8533 110.823 36.7806C110.374 37.0402 110.22 37.6151 110.479 38.0648L114.723 45.4153L111.837 47.0814C111.756 47.1283 111.677 47.1779 111.601 47.2301C102.453 36.3529 87.5212 31.1203 72.8857 35.0419C71.8499 35.3195 70.8358 35.6375 69.8445 35.9938C69.8123 35.9292 69.7779 35.8651 69.7413 35.8018L67.9818 32.7541L75.1702 28.6038C75.6198 28.3442 75.7739 27.7692 75.5143 27.3196C72.5871 22.2494 66.1039 20.5123 61.0338 23.4396L55.1224 26.8526C50.0523 29.7798 48.3151 36.2631 51.2423 41.3333C51.5019 41.7829 52.0769 41.937 52.5265 41.6773L59.9452 37.3941L61.558 40.1874C48.5408 48.9504 41.8811 65.3104 46.1697 81.316C47.1161 84.8482 48.5329 88.1287 50.3346 91.1082L46.3898 93.3858C44.1706 94.667 43.4102 97.5047 44.6916 99.724C45.9729 101.943 48.8106 102.704 51.0298 101.422L55.6223 98.7708C55.7988 98.6689 55.9662 98.5571 56.124 98.4365C65.3551 107.527 79.0235 111.628 92.4428 108.032C92.5037 108.016 92.5646 107.999 92.6255 107.983C92.7204 108.256 92.8425 108.524 92.9925 108.784L95.6439 113.377C96.9252 115.596 99.7629 116.356 101.982 115.075C104.201 113.794 104.962 110.956 103.681 108.737L101.213 104.463C115.897 96.2043 123.72 78.7807 119.159 61.758C118.525 59.3934 117.681 57.1416 116.651 55.0174L119.363 53.4519L123.552 60.7086C123.812 61.1583 124.387 61.3123 124.837 61.0527Z" fill="#3CE3AC"/>
<path d="M128.717 46.572L123.52 49.572L123.52 49.572L128.717 46.572ZM124.837 61.0527L121.837 55.8566L121.837 55.8566L124.837 61.0527ZM125.304 40.6606L130.5 37.6607L130.5 37.6607L125.304 40.6606ZM110.823 36.7806L107.823 31.5845L107.823 31.5845L110.823 36.7806ZM110.479 38.0648L105.283 41.0647L105.283 41.0647L110.479 38.0648ZM114.723 45.4153L117.723 50.6115L122.919 47.6115L119.919 42.4154L114.723 45.4153ZM111.837 47.0814L114.837 52.2775L114.837 52.2775L111.837 47.0814ZM111.601 47.2301L107.01 51.0921L110.51 55.2541L114.995 52.1781L111.601 47.2301ZM72.8857 35.0419L71.3328 29.2464L71.3328 29.2464L72.8857 35.0419ZM69.8445 35.9938L64.4764 38.674L66.8576 43.4432L71.874 41.6401L69.8445 35.9938ZM69.7413 35.8018L74.9375 32.8018L74.9375 32.8018L69.7413 35.8018ZM67.9818 32.7541L64.9817 27.558L59.7857 30.558L62.7856 35.7541L67.9818 32.7541ZM75.1702 28.6038L72.1702 23.4077L72.1701 23.4077L75.1702 28.6038ZM75.5143 27.3196L80.7105 24.3196L80.7105 24.3196L75.5143 27.3196ZM61.0338 23.4396L58.0338 18.2434L58.0338 18.2434L61.0338 23.4396ZM55.1224 26.8526L58.1225 32.0487L55.1224 26.8526ZM51.2423 41.3333L46.0462 44.3332L46.0462 44.3332L51.2423 41.3333ZM52.5265 41.6773L55.5266 46.8735L55.5266 46.8735L52.5265 41.6773ZM59.9452 37.3941L65.1414 34.3941L62.1414 29.1979L56.9452 32.1979L59.9452 37.3941ZM61.558 40.1874L64.9086 45.1647L69.5542 42.0374L66.7541 37.1875L61.558 40.1874ZM46.1697 81.316L40.3741 82.8689L40.3741 82.8689L46.1697 81.316ZM50.3346 91.1082L53.3346 96.3044L58.6372 93.2429L55.4689 88.0035L50.3346 91.1082ZM46.3898 93.3858L43.3898 88.1896L46.3898 93.3858ZM51.0298 101.422L48.0298 96.2261L48.0298 96.2261L51.0298 101.422ZM55.6223 98.7708L58.6223 103.967L58.6223 103.967L55.6223 98.7708ZM56.124 98.4365L60.3341 94.1615L56.6218 90.5056L52.4816 93.6686L56.124 98.4365ZM92.4428 108.032L90.8898 102.237L90.8898 102.237L92.4428 108.032ZM92.6255 107.983L98.293 106.013L96.4527 100.717L91.0443 102.195L92.6255 107.983ZM92.9925 108.784L98.1886 105.784L98.1886 105.784L92.9925 108.784ZM101.982 115.075L98.9823 109.879L98.9823 109.879L101.982 115.075ZM103.681 108.737L108.877 105.737L103.681 108.737ZM101.213 104.463L98.2718 99.2334L92.983 102.208L96.0169 107.463L101.213 104.463ZM119.159 61.758L113.363 63.3109L113.363 63.3109L119.159 61.758ZM116.651 55.0174L113.651 49.8213L108.818 52.6119L111.252 57.6342L116.651 55.0174ZM119.363 53.4519L124.559 50.452L121.559 45.2557L116.363 48.2558L119.363 53.4519ZM123.552 60.7086L118.356 63.7086L118.356 63.7086L123.552 60.7086ZM123.52 49.572C124.791 51.7724 124.037 54.5862 121.837 55.8566L127.837 66.2489C135.776 61.6647 138.497 51.512 133.913 43.5721L123.52 49.572ZM120.108 43.6606L123.52 49.572L133.913 43.5721L130.5 37.6607L120.108 43.6606ZM113.823 41.9767C116.024 40.7063 118.837 41.4602 120.108 43.6606L130.5 37.6607C125.916 29.7207 115.763 27.0003 107.823 31.5845L113.823 41.9767ZM115.675 35.0648C117.073 37.4849 116.243 40.5795 113.823 41.9767L107.823 31.5845C104.504 33.5009 103.367 37.7454 105.283 41.0647L115.675 35.0648ZM119.919 42.4154L115.675 35.0648L105.283 41.0647L109.527 48.4153L119.919 42.4154ZM114.837 52.2775L117.723 50.6115L111.723 40.2192L108.837 41.8852L114.837 52.2775ZM114.995 52.1781C114.943 52.2136 114.891 52.2467 114.837 52.2775L108.837 41.8852C108.622 42.0098 108.412 42.1422 108.208 42.282L114.995 52.1781ZM74.4387 40.8375C86.7411 37.5409 99.3041 41.9308 107.01 51.0921L116.193 43.368C105.601 30.7751 88.3012 24.6996 71.3328 29.2464L74.4387 40.8375ZM71.874 41.6401C72.7088 41.3401 73.5639 41.0719 74.4387 40.8375L71.3328 29.2464C70.1359 29.5671 68.9628 29.9349 67.815 30.3474L71.874 41.6401ZM64.5451 38.8017C64.5211 38.7602 64.4982 38.7175 64.4764 38.674L75.2126 33.3136C75.1264 33.1408 75.0346 32.9701 74.9375 32.8018L64.5451 38.8017ZM62.7856 35.7541L64.5451 38.8017L74.9375 32.8018L73.1779 29.7542L62.7856 35.7541ZM72.1701 23.4077L64.9817 27.558L70.9818 37.9502L78.1702 33.7999L72.1701 23.4077ZM70.3181 30.3195C68.9209 27.8994 69.7501 24.8049 72.1702 23.4077L78.1702 33.7999C81.4896 31.8835 82.6269 27.639 80.7105 24.3196L70.3181 30.3195ZM64.0338 28.6357C66.2342 27.3653 69.0477 28.1192 70.3181 30.3195L80.7105 24.3196C76.1264 16.3796 65.9737 13.6593 58.0338 18.2434L64.0338 28.6357ZM58.1225 32.0487L64.0338 28.6357L58.0338 18.2434L52.1224 21.6564L58.1225 32.0487ZM56.4385 38.3333C55.1681 36.1329 55.9221 33.3191 58.1225 32.0487L52.1224 21.6564C44.1826 26.2406 41.4621 36.3933 46.0462 44.3332L56.4385 38.3333ZM49.5265 36.4812C51.9466 35.0839 55.0413 35.9131 56.4385 38.3333L46.0462 44.3332C47.9626 47.6527 52.2072 48.79 55.5266 46.8735L49.5265 36.4812ZM56.9452 32.1979L49.5265 36.4812L55.5266 46.8735L62.9453 42.5902L56.9452 32.1979ZM66.7541 37.1875L65.1414 34.3941L54.7491 40.394L56.3618 43.1874L66.7541 37.1875ZM51.9652 79.7631C48.3601 66.3082 53.952 52.5405 64.9086 45.1647L58.2073 35.2102C43.1295 45.3603 35.4021 64.3125 40.3741 82.8689L51.9652 79.7631ZM55.4689 88.0035C53.9566 85.5026 52.7639 82.7439 51.9652 79.7631L40.3741 82.8689C41.4682 86.9524 43.1092 90.7548 45.2004 94.213L55.4689 88.0035ZM49.3898 98.5819L53.3346 96.3044L47.3346 85.9121L43.3898 88.1896L49.3898 98.5819ZM49.8877 96.7239C50.2633 97.3744 50.0404 98.2063 49.3898 98.5819L43.3898 88.1896C38.3008 91.1278 36.5572 97.6351 39.4955 102.724L49.8877 96.7239ZM48.0298 96.2261C48.6803 95.8505 49.5121 96.0734 49.8877 96.7239L39.4955 102.724C42.4336 107.813 48.9409 109.557 54.0298 106.618L48.0298 96.2261ZM52.6223 93.5747L48.0298 96.2261L54.0298 106.618L58.6223 103.967L52.6223 93.5747ZM52.4816 93.6686C52.5279 93.6332 52.5751 93.6019 52.6222 93.5747L58.6223 103.967C59.0226 103.736 59.4045 103.481 59.7664 103.204L52.4816 93.6686ZM90.8898 102.237C79.6087 105.259 68.1122 101.822 60.3341 94.1615L51.9139 102.711C62.5981 113.233 78.4382 117.996 93.9957 113.828L90.8898 102.237ZM91.0443 102.195C90.9925 102.209 90.941 102.223 90.8898 102.237L93.9957 113.828C94.0665 113.809 94.1368 113.79 94.2066 113.771L91.0443 102.195ZM86.9579 109.952C87.1765 110.581 87.456 111.195 87.7964 111.784L98.1886 105.784C98.2289 105.854 98.2644 105.931 98.293 106.013L86.9579 109.952ZM87.7963 111.784L90.4478 116.377L100.84 110.377L98.1886 105.784L87.7963 111.784ZM90.4478 116.377C93.3859 121.465 99.8931 123.209 104.982 120.271L98.9823 109.879C99.6328 109.503 100.465 109.726 100.84 110.377L90.4478 116.377ZM104.982 120.271C110.071 117.333 111.815 110.826 108.877 105.737L98.4844 111.737C98.1088 111.086 98.3317 110.254 98.9823 109.879L104.982 120.271ZM108.877 105.737L106.409 101.463L96.0169 107.463L98.4844 111.737L108.877 105.737ZM113.363 63.3109C117.198 77.6224 110.625 92.2856 98.2718 99.2334L104.154 109.693C121.169 100.123 130.242 79.939 124.954 60.2051L113.363 63.3109ZM111.252 57.6342C112.117 59.4189 112.828 61.3145 113.363 63.3109L124.954 60.2051C124.222 57.4723 123.245 54.8643 122.051 52.4006L111.252 57.6342ZM116.363 48.2558L113.651 49.8213L119.651 60.2135L122.363 58.6481L116.363 48.2558ZM128.749 57.7087L124.559 50.452L114.167 56.4519L118.356 63.7086L128.749 57.7087ZM121.837 55.8566C124.257 54.4593 127.351 55.2885 128.749 57.7087L118.356 63.7086C120.273 67.028 124.517 68.1654 127.837 66.2489L121.837 55.8566Z" fill="#1D1D29" mask="url(#path-1-outside-1_1599_4143)"/>
<ellipse cx="33.4274" cy="33.4277" rx="33.4274" ry="33.4277" transform="matrix(0.965924 -0.258827 0.258811 0.965928 41.7275 47.9008)" fill="white"/>
<ellipse cx="26.6351" cy="26.6353" rx="26.6351" ry="26.6353" transform="matrix(0.965924 -0.258827 0.258811 0.965928 50.0459 52.7036)" fill="#EEEEEE"/>
<path d="M98.2964 49.2867L82.6668 71.5374L56.6895 71.2671" stroke="#168862" stroke-width="7" stroke-linecap="round" stroke-linejoin="round"/>
<path d="M31.0737 47.8685L21.3852 49.9011L18.9169 38.1365L3 41.4758" stroke="#FF6056" stroke-width="6" stroke-linecap="round" stroke-linejoin="round"/>
<path d="M36.6862 39.6671L28.3161 34.3812L34.7348 24.2175L20.9839 15.5334" stroke="#FF6056" stroke-width="6" stroke-linecap="round" stroke-linejoin="round"/>
</svg>
