<svg width="24" height="24" viewBox="0 0 24 24" fill="none" xmlns="http://www.w3.org/2000/svg">
<path d="M12.7981 1.59998C12.0087 -0.533328 8.99134 -0.533326 8.20195 1.59998L6.80982 5.36213C6.56164 6.03284 6.03283 6.56164 5.36213 6.80983L1.59998 8.20195C-0.533327 8.99134 -0.533327 12.0087 1.59998 12.7981L5.36213 14.1902C6.03283 14.4384 6.56164 14.9672 6.80983 15.6379L8.20195 19.4C8.99134 21.5333 12.0087 21.5333 12.7981 19.4L14.1902 15.6379C14.4384 14.9672 14.9672 14.4384 15.6379 14.1902L19.4 12.7981C21.5333 12.0087 21.5333 8.99134 19.4 8.20195L15.6379 6.80983C14.9672 6.56164 14.4384 6.03283 14.1902 5.36213L12.7981 1.59998Z" fill="#3CE3AC"/>
<path d="M20.4849 15.6857C20.1466 14.7714 18.8534 14.7714 18.5151 15.6857L17.9185 17.2981C17.8121 17.5855 17.5855 17.8121 17.2981 17.9185L15.6857 18.5151C14.7714 18.8534 14.7714 20.1466 15.6857 20.4849L17.2981 21.0815C17.5855 21.1879 17.8121 21.4145 17.9185 21.7019L18.5151 23.3143C18.8534 24.2286 20.1466 24.2286 20.4849 23.3143L21.0815 21.7019C21.1879 21.4145 21.4145 21.1879 21.7019 21.0815L23.3143 20.4849C24.2286 20.1466 24.2286 18.8534 23.3143 18.5151L21.7019 17.9185C21.4145 17.8121 21.1879 17.5855 21.0815 17.2981L20.4849 15.6857Z" fill="#3CE3AC"/>
</svg>
