<svg width="22" height="24" viewBox="0 0 22 24" fill="none" xmlns="http://www.w3.org/2000/svg">
<path d="M1.66634 24C0.929962 24 0.333008 23.403 0.333008 22.6667V2.66667C0.333008 1.93333 0.594341 1.30533 1.11701 0.782667C1.63879 0.260889 2.26634 0 2.99968 0H18.9997C19.733 0 20.361 0.260889 20.8837 0.782667C21.4055 1.30533 21.6663 1.93333 21.6663 2.66667V22.6667C21.6663 23.403 21.0694 24 20.333 24C19.5966 24 18.9997 23.403 18.9997 22.6667C18.9997 21.9303 18.4027 21.3333 17.6663 21.3333H4.33301C3.59663 21.3333 2.99968 21.9303 2.99968 22.6667C2.99968 23.403 2.40272 24 1.66634 24ZM2.99968 8.66667C2.99968 9.77124 3.89511 10.6667 4.99968 10.6667H7.66635C8.77092 10.6667 9.66634 9.77124 9.66634 8.66667V4.66667C9.66634 3.5621 8.77091 2.66667 7.66634 2.66667H4.99967C3.89511 2.66667 2.99968 3.5621 2.99968 4.66667V8.66667ZM12.333 4C12.333 4.73638 12.93 5.33333 13.6663 5.33333H17.6663C18.4027 5.33333 18.9997 4.73638 18.9997 4C18.9997 3.26362 18.4027 2.66667 17.6663 2.66667H13.6663C12.93 2.66667 12.333 3.26362 12.333 4ZM12.333 9.33333C12.333 10.0697 12.93 10.6667 13.6663 10.6667H17.6663C18.4027 10.6667 18.9997 10.0697 18.9997 9.33333C18.9997 8.59695 18.4027 8 17.6663 8H13.6663C12.93 8 12.333 8.59695 12.333 9.33333ZM8.33301 16C8.33301 16.7364 8.92996 17.3333 9.66634 17.3333H12.333C13.0694 17.3333 13.6663 16.7364 13.6663 16C13.6663 15.2636 13.0694 14.6667 12.333 14.6667H9.66635C8.92997 14.6667 8.33301 15.2636 8.33301 16Z" fill="#B3B3B3"/>
</svg>
