<svg width="14" height="18" viewBox="0 0 14 18" fill="none" xmlns="http://www.w3.org/2000/svg">
<path fill-rule="evenodd" clip-rule="evenodd" d="M5.92263 0.689057C5.98169 0.389102 6.19362 0.14385 6.47876 0.0455128C6.76389 -0.0528248 7.079 0.0106574 7.30561 0.212091C8.29442 1.09103 9.06113 2.03263 9.4305 3.07493C9.81401 4.15714 9.74078 5.26915 9.1921 6.38348C9.09586 6.57901 9.00762 6.74715 8.92808 6.89868C8.61553 7.49421 8.4375 7.83341 8.4375 8.57144C8.4375 8.91243 8.57084 9.23946 8.80819 9.48058C9.04554 9.72169 9.36746 9.85715 9.70312 9.85715C10.0388 9.85715 10.3607 9.72169 10.5981 9.48058C10.8354 9.23946 10.9687 8.91243 10.9687 8.57144C10.9687 8.20772 11.1947 7.8836 11.5325 7.76289C11.8702 7.64217 12.2462 7.75113 12.4704 8.03472C13.0729 8.79689 13.5 9.9657 13.5 11.1429C13.5 12.0434 13.3254 12.935 12.9862 13.767C12.647 14.5989 12.1498 15.3549 11.523 15.9916C10.8962 16.6283 10.1521 17.1334 9.33311 17.478C8.51416 17.8226 7.63642 18 6.75 18C5.86358 18 4.98583 17.8226 4.16688 17.478C3.34794 17.1334 2.60382 16.6283 1.97703 15.9916C1.35023 15.3549 0.85303 14.5989 0.513811 13.767C0.174591 12.935 -1.90735e-06 12.0434 -1.90735e-06 11.1429C-1.90735e-06 9.11094 1.00885 7.25387 2.84791 5.75927C4.38682 4.5086 5.54128 2.62611 5.92263 0.689057Z" fill="#FF6056"/>
</svg>
