<svg width="24" height="24" viewBox="0 0 24 24" fill="none" xmlns="http://www.w3.org/2000/svg">
<path fill-rule="evenodd" clip-rule="evenodd" d="M3 0C1.34315 0 0 1.34315 0 3V21C0 22.6569 1.34315 24 3 24H21C22.6569 24 24 22.6569 24 21V3C24 1.34315 22.6569 0 21 0H3ZM5 4.5C4.44772 4.5 4 4.94772 4 5.5V7.5C4 8.05229 4.44772 8.5 5 8.5H19C19.5523 8.5 20 8.05229 20 7.5V5.5C20 4.94772 19.5523 4.5 19 4.5H5ZM4 11C4 10.4477 4.44772 10 5 10H19C19.5523 10 20 10.4477 20 11V13C20 13.5523 19.5523 14 19 14H5C4.44772 14 4 13.5523 4 13V11ZM5 15.5C4.44772 15.5 4 15.9477 4 16.5V18.5C4 19.0523 4.44772 19.5 5 19.5H19C19.5523 19.5 20 19.0523 20 18.5V16.5C20 15.9477 19.5523 15.5 19 15.5H5Z" fill="#B3B3B3"/>
</svg>
