<svg width="28" height="27" viewBox="0 0 28 27" fill="none" xmlns="http://www.w3.org/2000/svg">
<mask id="mask0_396_1947" style="mask-type:luminance" maskUnits="userSpaceOnUse" x="0" y="0" width="28" height="28">
<path d="M10.7191 24.9998C8.82021 24.4329 7.10046 23.3839 5.72726 21.9551C6.16908 21.4311 6.4445 20.7872 6.51828 20.1057C6.59205 19.4243 6.46083 18.7363 6.1414 18.1299C5.82196 17.5234 5.32885 17.0261 4.72515 16.7015C4.12146 16.3769 3.43464 16.2398 2.75259 16.3077C2.59721 15.5466 2.51913 14.7718 2.51953 13.9949C2.51953 12.7952 2.70323 11.6379 3.04535 10.5507H3.09357C3.67895 10.5509 4.25472 10.4019 4.76651 10.1177C5.2783 9.8336 5.70923 9.4237 6.0186 8.92675C6.32797 8.4298 6.50558 7.8622 6.53466 7.27754C6.56373 6.69289 6.44331 6.11047 6.18477 5.58528C7.53065 4.33205 9.15832 3.42105 10.9303 2.9292C11.2187 3.49543 11.6581 3.97085 12.2 4.30285C12.7418 4.63484 13.3649 4.81048 14.0003 4.81032C14.6357 4.81048 15.2588 4.63484 15.8007 4.30285C16.3425 3.97085 16.7819 3.49543 17.0703 2.9292C18.8423 3.42105 20.47 4.33205 21.8158 5.58528C21.5554 6.11414 21.4351 6.701 21.4664 7.28968C21.4977 7.87837 21.6795 8.44916 21.9946 8.94743C22.3096 9.44571 22.7473 9.85478 23.2657 10.1355C23.784 10.4162 24.3658 10.5592 24.9553 10.5507C25.3048 11.6653 25.4821 12.8268 25.4811 13.9949C25.4811 14.7871 25.4007 15.5609 25.248 16.3083C24.566 16.2404 23.8791 16.3775 23.2755 16.7021C22.6718 17.0267 22.1786 17.524 21.8592 18.1304C21.5398 18.7369 21.4086 19.4249 21.4823 20.1063C21.5561 20.7877 21.8315 21.4317 22.2733 21.9557C20.9001 23.3843 19.1803 24.433 17.2815 24.9998C17.0585 24.3048 16.6206 23.6986 16.0309 23.2685C15.4412 22.8384 14.7302 22.6066 14.0003 22.6066C13.2704 22.6066 12.5594 22.8384 11.9697 23.2685C11.38 23.6986 10.9421 24.3048 10.7191 24.9998Z" fill="white" stroke="white" stroke-width="4" stroke-linejoin="round"/>
<path d="M14.0002 18.0131C14.5279 18.0131 15.0504 17.9092 15.5379 17.7072C16.0254 17.5053 16.4684 17.2093 16.8415 16.8362C17.2147 16.463 17.5107 16.0201 17.7126 15.5326C17.9145 15.045 18.0185 14.5225 18.0185 13.9948C18.0185 13.4671 17.9145 12.9446 17.7126 12.4571C17.5107 11.9696 17.2147 11.5266 16.8415 11.1535C16.4684 10.7804 16.0254 10.4844 15.5379 10.2824C15.0504 10.0805 14.5279 9.97656 14.0002 9.97656C12.9345 9.97656 11.9124 10.3999 11.1589 11.1535C10.4053 11.9071 9.98193 12.9291 9.98193 13.9948C9.98193 15.0605 10.4053 16.0826 11.1589 16.8362C11.9124 17.5897 12.9345 18.0131 14.0002 18.0131Z" fill="black" stroke="black" stroke-width="4" stroke-linejoin="round"/>
</mask>
<g mask="url(#mask0_396_1947)">
<path d="M0.223145 0.217773H27.777V27.7716H0.223145V0.217773Z" fill="#B3B3B3"/>
</g>
</svg>
