<svg width="28" height="27" viewBox="0 0 28 27" fill="none" xmlns="http://www.w3.org/2000/svg">
<mask id="mask0_1909_95" style="mask-type:luminance" maskUnits="userSpaceOnUse" x="0" y="-1" width="28" height="28">
<path d="M10.7191 24.0706C8.82021 23.5037 7.10046 22.4547 5.72726 21.0259C6.16908 20.5019 6.4445 19.858 6.51828 19.1765C6.59205 18.4951 6.46083 17.8071 6.1414 17.2007C5.82196 16.5942 5.32885 16.0969 4.72515 15.7723C4.12146 15.4477 3.43464 15.3106 2.75259 15.3785C2.59721 14.6174 2.51913 13.8426 2.51953 13.0657C2.51953 11.866 2.70323 10.7087 3.04535 9.62151H3.09357C3.67895 9.6217 4.25472 9.47268 4.76651 9.18854C5.2783 8.9044 5.70923 8.4945 6.0186 7.99755C6.32797 7.5006 6.50558 6.933 6.53466 6.34834C6.56373 5.76369 6.44331 5.18127 6.18477 4.65608C7.53065 3.40285 9.15832 2.49185 10.9303 2C11.2187 2.56623 11.6581 3.04165 12.2 3.37365C12.7418 3.70564 13.3649 3.88128 14.0003 3.88112C14.6357 3.88128 15.2588 3.70564 15.8007 3.37365C16.3425 3.04165 16.7819 2.56623 17.0703 2C18.8423 2.49185 20.47 3.40285 21.8158 4.65608C21.5554 5.18494 21.4351 5.7718 21.4664 6.36049C21.4977 6.94917 21.6795 7.51996 21.9946 8.01823C22.3096 8.51651 22.7473 8.92558 23.2657 9.2063C23.784 9.48702 24.3658 9.62998 24.9553 9.62151C25.3048 10.7361 25.4821 11.8976 25.4811 13.0657C25.4811 13.8579 25.4007 14.6317 25.248 15.3791C24.566 15.3112 23.8791 15.4483 23.2755 15.7729C22.6718 16.0975 22.1786 16.5948 21.8592 17.2012C21.5398 17.8077 21.4086 18.4957 21.4823 19.1771C21.5561 19.8585 21.8315 20.5025 22.2733 21.0265C20.9001 22.4551 19.1803 23.5038 17.2815 24.0706C17.0585 23.3756 16.6206 22.7694 16.0309 22.3393C15.4412 21.9092 14.7302 21.6774 14.0003 21.6774C13.2704 21.6774 12.5594 21.9092 11.9697 22.3393C11.38 22.7694 10.9421 23.3756 10.7191 24.0706Z" fill="white" stroke="white" stroke-width="4" stroke-linejoin="round"/>
<path d="M14.0002 17.084C14.5279 17.084 15.0504 16.9801 15.5379 16.7781C16.0254 16.5762 16.4684 16.2802 16.8415 15.9071C17.2147 15.534 17.5107 15.091 17.7126 14.6035C17.9145 14.1159 18.0185 13.5934 18.0185 13.0657C18.0185 12.5381 17.9145 12.0155 17.7126 11.528C17.5107 11.0405 17.2147 10.5975 16.8415 10.2244C16.4684 9.85126 16.0254 9.55528 15.5379 9.35334C15.0504 9.15141 14.5279 9.04747 14.0002 9.04747C12.9345 9.04747 11.9124 9.47082 11.1589 10.2244C10.4053 10.978 9.98193 12 9.98193 13.0657C9.98193 14.1314 10.4053 15.1535 11.1589 15.9071C11.9124 16.6607 12.9345 17.084 14.0002 17.084Z" fill="black" stroke="black" stroke-width="4" stroke-linejoin="round"/>
</mask>
<g mask="url(#mask0_1909_95)">
<path d="M0.223145 -0.711197H27.777V26.8426H0.223145V-0.711197Z" fill="#3CE3AC"/>
</g>
</svg>
