<svg width="122" height="150" viewBox="0 0 122 150" fill="none" xmlns="http://www.w3.org/2000/svg">
<path d="M83.1411 106.232L83.1587 106.548C88.0364 110.832 92.1239 115.872 95.1388 121.465C95.6508 122.423 95.6641 123.736 94.8651 124.47C93.9867 125.274 91.3205 125.538 90.2788 126.118C89.215 126.707 87.2507 127.036 86.3546 126.214L81.3313 121.377L81.1989 121.249C81.2342 121.329 81.2651 121.412 81.3004 121.496C81.808 122.739 82.3024 124.066 82.735 125.428C85.2202 133.253 85.7145 141.628 85.7145 141.628C86.3458 144.22 85.4674 146.087 82.7394 146.579L76.0917 147.77C73.9729 148.148 71.8585 147.076 70.9226 145.147L68.5213 140.872C63.6172 141.566 58.6248 141.65 53.6985 141.118L53.8133 141.456L51.6592 145.384C50.6881 147.296 48.5516 148.328 46.4417 147.906L39.816 146.593C37.1013 146.052 35.4062 143.341 36.1213 140.679C36.1213 140.679 37.2734 131.751 39.9925 123.829C40.2265 123.148 40.4737 122.484 40.7253 121.843C40.7606 121.755 40.7959 121.667 40.8312 121.583H40.7032L40.7253 121.843L37.1984 126.834C36.0595 127.616 34.0511 127.963 33.0535 127.273C31.9455 126.513 29.8002 126.794 28.8468 126.078C27.9727 125.428 27.7962 123.736 28.1581 122.713C30.246 116.768 34.3556 110.907 39.3348 106.557L39.3702 106.943V106.566C39.3702 106.566 39.3481 106.561 39.3348 106.557C20.0935 101.781 1.26701 84.421 2.51622 59.4645C4.02146 29.3672 25.7877 3.67253 57.8744 2.0776C89.961 0.478267 114.764 23.8003 118.706 53.6823C122.087 79.2583 107.176 101.328 83.1411 106.232Z" fill="#6184FF"/>
<path d="M81.0144 120.922L80.9835 121.041C80.9482 120.957 80.9173 120.874 80.8819 120.795L81.0144 120.922Z" stroke="#2D57EB" stroke-width="4" stroke-miterlimit="10"/>
<path d="M44.8826 107.586C23.9026 105.051 1.14373 86.8262 2.5165 59.4671C4.02169 29.3708 25.7874 3.67686 57.8731 2.07758C89.9589 0.478299 114.761 23.8041 118.708 53.6807C122.256 80.5741 105.589 103.588 79.3607 106.857" stroke="#2D57EB" stroke-width="4" stroke-linecap="round" stroke-linejoin="round"/>
<path d="M44.6133 113.878C44.6133 113.878 41.8766 118.342 39.9918 123.829C37.2727 131.751 36.1162 140.674 36.1162 140.674C35.4012 143.337 37.0962 146.048 39.8108 146.588L46.4363 147.906C48.5462 148.328 50.6826 147.296 51.6537 145.38L53.8034 141.452" stroke="#2D57EB" stroke-width="4" stroke-linecap="round" stroke-linejoin="round"/>
<path d="M77.3126 113.368C77.3126 113.368 80.6893 119.005 82.7331 125.424C85.2182 133.249 85.7125 141.624 85.7125 141.624C86.3437 144.216 85.4654 146.083 82.7419 146.575L76.0943 147.766C73.9756 148.144 71.8612 147.072 70.9255 145.143L68.5242 140.863" stroke="#2D57EB" stroke-width="4" stroke-linecap="round" stroke-linejoin="round"/>
<path d="M39.3341 106.558C34.355 110.908 30.2456 116.764 28.1577 122.713C27.8002 123.737 27.9767 125.429 28.8463 126.079C29.7997 126.795 31.945 126.509 33.0529 127.274C34.0549 127.964 36.0589 127.617 37.1977 126.835L40.7245 121.843" stroke="#2D57EB" stroke-width="4" stroke-linecap="round" stroke-linejoin="round"/>
<path d="M82.8699 106.29C87.8754 110.635 92.0688 115.763 95.1365 121.466C95.653 122.419 95.6618 123.737 94.8629 124.471C93.9845 125.275 91.3184 125.538 90.2811 126.118C89.2438 126.698 87.253 127.037 86.357 126.215L81.197 121.246" stroke="#2D57EB" stroke-width="4" stroke-linecap="round" stroke-linejoin="round"/>
<path d="M51.305 140.806C58.0276 141.812 64.9224 141.659 71.592 140.345" stroke="#2D57EB" stroke-width="4" stroke-linecap="round" stroke-linejoin="round"/>
<path d="M59.5862 53.7363C59.7997 49.019 58.2888 45.1194 56.2115 45.0262C54.1341 44.9331 52.277 48.6816 52.0634 53.3989C51.8499 58.1161 53.3608 62.0157 55.4382 62.1089C57.5155 62.2021 59.3726 58.4535 59.5862 53.7363Z" fill="#051049"/>
<path d="M69.935 53.7424C70.1485 49.0251 68.6376 45.1255 66.5603 45.0323C64.4829 44.9391 62.6258 48.6877 62.4122 53.4049C62.1987 58.1222 63.7096 62.0218 65.7869 62.115C67.8643 62.2081 69.7214 58.4596 69.935 53.7424Z" fill="#051049"/>
<path d="M51.1858 66.4134C53.2604 69.3923 56.4959 70.2666 59.8374 70.4511C63.1788 70.6401 68.9789 69.5944 70.9034 65.9081" stroke="#051049" stroke-width="4" stroke-linecap="round" stroke-linejoin="round"/>
</svg>
