<svg width="122" height="150" viewBox="0 0 122 150" fill="none" xmlns="http://www.w3.org/2000/svg">
<path d="M83.346 106.232L83.3637 106.548C88.2414 110.832 92.3289 115.872 95.3438 121.465C95.8558 122.423 95.869 123.736 95.0701 124.47C94.1917 125.274 91.5255 125.538 90.4837 126.118C89.4199 126.707 87.4556 127.036 86.5596 126.214L81.5362 121.377L81.4038 121.249C81.4391 121.329 81.47 121.412 81.5053 121.496C82.013 122.739 82.5073 124.066 82.9399 125.428C85.4251 133.253 85.9195 141.628 85.9195 141.628C86.5507 144.22 85.6723 146.087 82.9444 146.579L76.2966 147.77C74.1778 148.148 72.0634 147.076 71.1276 145.147L68.7263 140.872C63.8222 141.566 58.8297 141.65 53.9035 141.118L54.0183 141.456L51.8642 145.384C50.893 147.296 48.7566 148.328 46.6466 147.906L40.0209 146.593C37.3062 146.052 35.6112 143.341 36.3263 140.679C36.3263 140.679 37.4784 131.751 40.1975 123.829C40.4314 123.148 40.6786 122.484 40.9303 121.843C40.9656 121.755 41.0009 121.667 41.0362 121.583H40.9082L40.9303 121.843L37.4033 126.834C36.2645 127.616 34.256 127.963 33.2584 127.273C32.1505 126.513 30.0052 126.794 29.0517 126.078C28.1777 125.428 28.0011 123.736 28.3631 122.713C30.451 116.768 34.5606 110.907 39.5398 106.557L39.5751 106.943V106.566C39.5751 106.566 39.553 106.561 39.5398 106.557C20.2984 101.781 1.47197 84.421 2.72118 59.4645C4.22642 29.3672 25.9927 3.67253 58.0793 2.0776C90.1659 0.478267 114.969 23.8003 118.911 53.6823C122.292 79.2583 107.381 101.328 83.346 106.232Z" fill="#B18CFF"/>
<path d="M81.2194 120.922L81.1885 121.041C81.1531 120.957 81.1222 120.874 81.0869 120.795L81.2194 120.922Z" stroke="#652AE3" stroke-width="4" stroke-miterlimit="10"/>
<path d="M45.0875 107.586C24.1075 105.051 1.34869 86.8262 2.72146 59.4671C4.22665 29.3708 25.9923 3.67686 58.0781 2.07758C90.1638 0.478299 114.966 23.8041 118.913 53.6807C122.461 80.5741 105.794 103.588 79.5657 106.857" stroke="#652AE3" stroke-width="4" stroke-linecap="round" stroke-linejoin="round"/>
<path d="M44.8183 113.878C44.8183 113.878 42.0815 118.342 40.1967 123.829C37.4777 131.751 36.3212 140.674 36.3212 140.674C35.6061 143.337 37.3011 146.048 40.0158 146.588L46.6413 147.906C48.7512 148.328 50.8876 147.296 51.8587 145.38L54.0083 141.452" stroke="#652AE3" stroke-width="4" stroke-linecap="round" stroke-linejoin="round"/>
<path d="M77.5176 113.368C77.5176 113.368 80.8943 119.005 82.938 125.424C85.4231 133.249 85.9175 141.624 85.9175 141.624C86.5487 144.216 85.6703 146.083 82.9469 146.575L76.2993 147.766C74.1806 148.144 72.0662 147.072 71.1304 145.143L68.7292 140.863" stroke="#652AE3" stroke-width="4" stroke-linecap="round" stroke-linejoin="round"/>
<path d="M39.539 106.558C34.56 110.908 30.4505 116.764 28.3627 122.713C28.0051 123.737 28.1817 125.429 29.0513 126.079C30.0047 126.795 32.1499 126.509 33.2578 127.274C34.2598 127.964 36.2638 127.617 37.4026 126.835L40.9295 121.843" stroke="#652AE3" stroke-width="4" stroke-linecap="round" stroke-linejoin="round"/>
<path d="M83.0748 106.29C88.0804 110.635 92.2737 115.763 95.3415 121.466C95.8579 122.419 95.8667 123.737 95.0678 124.471C94.1894 125.275 91.5233 125.538 90.486 126.118C89.4487 126.698 87.458 127.037 86.5619 126.215L81.4019 121.246" stroke="#652AE3" stroke-width="4" stroke-linecap="round" stroke-linejoin="round"/>
<path d="M51.51 140.806C58.2326 141.812 65.1273 141.659 71.797 140.345" stroke="#652AE3" stroke-width="4" stroke-linecap="round" stroke-linejoin="round"/>
<path d="M59.7911 53.7363C60.0047 49.019 58.4938 45.1194 56.4164 45.0262C54.3391 44.9331 52.482 48.6816 52.2684 53.3989C52.0549 58.1161 53.5658 62.0157 55.6431 62.1089C57.7205 62.2021 59.5776 58.4535 59.7911 53.7363Z" fill="#240D54"/>
<path d="M70.1399 53.7424C70.3535 49.0251 68.8426 45.1255 66.7652 45.0323C64.6879 44.9391 62.8307 48.6877 62.6172 53.4049C62.4036 58.1222 63.9146 62.0218 65.9919 62.115C68.0692 62.2081 69.9264 58.4596 70.1399 53.7424Z" fill="#240D54"/>
<path d="M51.3908 66.4134C53.4654 69.3923 56.7009 70.2666 60.0423 70.4511C63.3838 70.6401 69.1838 69.5944 71.1084 65.9081" stroke="#240D54" stroke-width="4" stroke-linecap="round" stroke-linejoin="round"/>
</svg>
