<svg width="153" height="146" viewBox="0 0 153 146" fill="none" xmlns="http://www.w3.org/2000/svg">
<path d="M150.076 73.3924C148.346 93.7624 134.466 112.632 115.536 120.352C99.4462 126.912 83.9262 127.222 70.1262 118.972C66.4262 116.762 61.7962 117.282 58.5762 120.162C51.5762 126.422 38.9362 128.622 29.8562 127.452C18.1762 125.942 8.15619 116.902 4.18619 105.832C0.206193 94.7524 1.88622 82.0824 7.39622 71.6824C12.9062 61.2824 25.7162 48.9224 35.9462 43.1024C36.9262 40.4024 38.2162 37.8224 39.7862 35.4124C46.0362 25.8724 56.7062 19.3724 68.0562 18.2024C77.9162 17.1924 87.9862 20.0924 96.3462 25.4124C99.2262 27.2424 101.916 29.3524 104.406 31.6824C120.866 22.2324 134.636 34.1124 139.986 40.0824C147.946 48.9724 151.096 61.5024 150.076 73.3924Z" fill="white" stroke="#595959" stroke-width="4" stroke-miterlimit="10"/>
<path d="M101.236 86.0025C99.0063 90.4025 93.7863 93.2125 89.4363 93.7825C85.5863 94.2725 81.5563 93.1325 78.4763 90.7825C79.9663 89.2525 80.5263 87.7825 80.5763 86.4625C82.2063 86.4425 83.8563 86.2225 85.4563 85.7825C89.2763 84.7325 92.7063 82.5025 95.2963 79.5325C96.8463 81.9325 98.9263 84.2725 101.236 85.9925V86.0025Z" fill="#595959"/>
<path d="M35.3264 68.2025C31.8564 57.3425 33.5464 44.9524 39.7964 35.4124C46.0464 25.8724 56.7164 19.3725 68.0564 18.2025C77.9264 17.1825 87.9864 20.0824 96.3564 25.4124C104.726 30.7424 111.456 38.3825 116.566 46.8925" stroke="#595959" stroke-width="4" stroke-linecap="round" stroke-linejoin="round"/>
<path d="M35.9462 43.1024C25.7162 48.9224 12.9062 61.2824 7.39622 71.6824C1.88622 82.0824 0.206193 94.7524 4.18619 105.832C8.16619 116.912 18.1862 125.942 29.8562 127.452C38.9362 128.622 51.5762 126.432 58.5762 120.162C61.7962 117.282 66.4262 116.762 70.1262 118.972C83.9262 127.222 99.4462 126.902 115.536 120.352C134.466 112.632 148.346 93.7624 150.076 73.3924C151.086 61.5024 147.946 48.9724 139.976 40.0824C134.636 34.1224 120.856 22.2324 104.406 31.6924" stroke="#595959" stroke-width="4" stroke-linecap="round" stroke-linejoin="round"/>
<path d="M67.3164 78.5125C71.5964 83.4325 78.7764 85.6024 85.0664 83.8824C91.3564 82.1624 96.4264 76.6324 97.6064 70.2224" stroke="#595959" stroke-width="4" stroke-linecap="round" stroke-linejoin="round"/>
<path d="M95.2864 76.1323C97.3264 80.5923 102.306 86.2023 107.196 86.7123" stroke="#595959" stroke-width="4" stroke-linecap="round" stroke-linejoin="round"/>
<path d="M78.4164 84.4624C79.5964 86.6524 78.5664 88.3724 76.6464 89.9524C74.7264 91.5324 72.2164 92.1424 69.7864 92.7124" stroke="#595959" stroke-width="4" stroke-linecap="round" stroke-linejoin="round"/>
<path d="M75.9163 90.6223C79.4163 94.2523 84.6763 96.1123 89.6763 95.4723C94.6763 94.8323 100.976 91.4523 103.116 85.6223" stroke="#595959" stroke-width="4" stroke-linecap="round" stroke-linejoin="round"/>
<path d="M92.9048 89.3371C93.9139 89.1766 94.4343 87.1762 94.0672 84.869C93.7002 82.5619 92.5846 80.8217 91.5756 80.9823C90.5665 81.1428 90.0461 83.1432 90.4132 85.4504C90.7802 87.7575 91.8958 89.4977 92.9048 89.3371Z" fill="#222222"/>
<path d="M87.5252 90.1905C88.5342 90.0299 89.0546 88.0294 88.6876 85.7223C88.3205 83.4152 87.205 81.675 86.1959 81.8355C85.1869 81.9961 84.6665 83.9965 85.0335 86.3037C85.4006 88.6108 86.5162 90.351 87.5252 90.1905Z" fill="#222222"/>
</svg>
