<svg width="120" height="146" viewBox="0 0 120 146" fill="none" xmlns="http://www.w3.org/2000/svg">
<path d="M117.759 77.5605C118.293 86.3625 117.988 93.8494 116.354 100.093C114.408 107.547 110.351 113.276 103.248 117.599C98.1033 120.731 91.2929 123.087 82.4221 124.826C76.1903 126.05 68.941 127.117 60.509 127.742C52.9927 128.296 45.6163 128.029 38.9648 126.245C31.7473 124.305 25.0768 120.861 19.5635 116.466C14.0503 112.072 9.19202 106.011 6.10155 99.2074C3.25273 92.9184 2 85.5422 2 77.5866C2 69.6309 4.20019 62.1701 7.02358 55.1975C9.84697 48.2249 13.9867 41.5583 19.3091 36.1157C24.6253 30.673 30.4946 25.5624 37.5531 22.5611C44.6115 19.5599 51.9816 19 59.8159 19C67.6502 19 74.8867 20.5039 81.5764 23.4335C88.266 26.3632 94.5105 30.9334 99.7313 36.4737C104.876 41.9359 109.791 47.8799 112.78 55.0933C115.769 62.3068 117.282 69.67 117.759 77.5801V77.5605Z" fill="white"/>
<path d="M117.759 77.5605C118.293 86.3625 117.988 93.8494 116.354 100.093C114.408 107.547 110.351 113.276 103.248 117.599C98.1033 120.731 91.2929 123.087 82.4221 124.826C76.1903 126.05 68.9411 127.117 60.509 127.742C52.9927 128.296 45.6163 128.029 38.9648 126.245C31.7473 124.305 25.0768 120.861 19.5635 116.466C14.0503 112.072 9.19202 106.011 6.10155 99.2074C3.25273 92.9184 2 85.5422 2 77.5866C2 69.6309 4.20019 62.1701 7.02358 55.1975C9.84697 48.2249 13.9867 41.5583 19.3091 36.1157C24.6253 30.673 30.4946 25.5624 37.5531 22.5611C44.6115 19.5599 51.9816 19 59.8159 19C67.6502 19 74.8867 20.5039 81.5764 23.4335C88.266 26.3632 94.5105 30.9334 99.7313 36.4737C104.876 41.9359 109.791 47.8799 112.78 55.0933C115.769 62.3068 117.282 69.67 117.759 77.5801V77.5605Z" stroke="#595959" stroke-width="4" stroke-miterlimit="10"/>
<path d="M69.3939 83.0481C70.8629 82.7777 71.5658 79.7787 70.9637 76.3496C70.3617 72.9204 68.6827 70.3597 67.2137 70.63C65.7446 70.9004 65.0418 73.8994 65.6438 77.3286C66.2459 80.7577 67.9248 83.3184 69.3939 83.0481Z" fill="#222222"/>
<path d="M61.5993 84.483C63.0684 84.2127 63.7712 81.2137 63.1691 77.7845C62.5671 74.3554 60.8881 71.7946 59.4191 72.065C57.9501 72.3353 57.2472 75.3344 57.8493 78.7635C58.4513 82.1927 60.1303 84.7534 61.5993 84.483Z" fill="#222222"/>
</svg>
