<svg width="120" height="146" viewBox="0 0 120 146" fill="none" xmlns="http://www.w3.org/2000/svg">
<path d="M75.0833 109.623L75.0394 110.151L82.5468 122.972C82.9478 123.782 83.5056 124.504 84.1824 125.094L85.7365 126.45C87.7919 128.246 88.6003 131.09 87.7794 133.696L86.7516 136.999C85.7051 140.339 82.3274 142.361 78.8933 141.701L69.4371 138.957C66.7174 139.491 63.7971 139.774 60.8769 139.774C56.9227 139.767 52.9873 139.253 49.5344 138.292L41.4568 141.557C38.1856 142.788 34.5134 141.362 32.9217 138.248L31.355 135.165C30.108 132.735 30.4276 129.791 32.1509 127.675L33.4544 126.08C34.0246 125.383 34.457 124.573 34.7139 123.713L38.8937 109.868L38.7935 108.631C19.624 103.91 0.811701 86.5175 2.05875 61.4905C3.5502 31.3777 25.1825 5.67253 57.0731 4.07773C88.9575 2.47665 113.61 25.8084 117.533 55.7015C121.049 82.4991 104.499 109.416 75.0833 109.623Z" fill="white"/>
<path d="M72.309 70.3169C73.7795 70.2804 74.9041 67.5277 74.821 64.1686C74.7379 60.8095 73.4785 58.116 72.0081 58.1525C70.5376 58.189 69.413 60.9417 69.4961 64.3008C69.5792 67.66 70.8386 70.3535 72.309 70.3169Z" fill="#222222"/>
<path d="M64.5079 70.5043C65.9783 70.4678 67.103 67.7151 67.0199 64.356C66.9368 60.9968 65.6774 58.3033 64.2069 58.3399C62.7365 58.3764 61.6118 61.1291 61.6949 64.4882C61.778 67.8473 63.0374 70.5408 64.5079 70.5043Z" fill="#222222"/>
<path d="M38.9627 109.629L34.7139 123.713C34.4507 124.579 34.0246 125.383 33.4544 126.08L32.1509 127.674C30.4213 129.79 30.108 132.729 31.3488 135.165L32.9217 138.248C34.5134 141.362 38.1794 142.787 41.4505 141.563L49.5344 138.292" stroke="#595959" stroke-width="4" stroke-linecap="round" stroke-linejoin="round"/>
<path d="M74.7324 109.629L82.5469 122.972C82.9479 123.782 83.5056 124.504 84.1887 125.094L85.7428 126.45C87.8045 128.246 88.6066 131.09 87.7857 133.702L86.7517 137.005C85.7052 140.345 82.3275 142.367 78.8997 141.707L69.4371 138.964" stroke="#595959" stroke-width="4" stroke-linecap="round" stroke-linejoin="round"/>
<path d="M47.0341 137.488C51.0133 138.957 55.9389 139.774 60.8769 139.774C65.815 139.774 70.7468 138.97 74.7323 137.507" stroke="#595959" stroke-width="4" stroke-linecap="round" stroke-linejoin="round"/>
<path d="M44.1639 109.63C23.3149 107.093 0.698842 88.8594 2.05869 61.4904C3.5564 31.3776 25.1887 5.67879 57.0731 4.07771C88.9637 2.47663 113.61 25.8147 117.533 55.7015C121.061 82.6058 104.367 109.63 74.7322 109.63" stroke="#595959" stroke-width="4" stroke-linecap="round" stroke-linejoin="round"/>
</svg>
