<svg width="122" height="150" viewBox="0 0 122 150" fill="none" xmlns="http://www.w3.org/2000/svg">
<path d="M83.3213 106.232L83.3389 106.548C88.2166 110.832 92.3041 115.872 95.319 121.465C95.831 122.423 95.8443 123.736 95.0453 124.47C94.1669 125.274 91.5007 125.538 90.459 126.118C89.3952 126.707 87.4309 127.036 86.5348 126.214L81.5115 121.377L81.3791 121.249C81.4144 121.329 81.4453 121.412 81.4806 121.496C81.9882 122.739 82.4826 124.066 82.9152 125.428C85.4004 133.253 85.8947 141.628 85.8947 141.628C86.526 144.22 85.6475 146.087 82.9196 146.579L76.2719 147.77C74.153 148.148 72.0387 147.076 71.1028 145.147L68.7015 140.872C63.7974 141.566 58.8049 141.65 53.8787 141.118L53.9935 141.456L51.8394 145.384C50.8683 147.296 48.7318 148.328 46.6218 147.906L39.9962 146.593C37.2815 146.052 35.5864 143.341 36.3015 140.679C36.3015 140.679 37.4536 131.751 40.1727 123.829C40.4067 123.148 40.6539 122.484 40.9055 121.843C40.9408 121.755 40.9761 121.667 41.0114 121.583H40.8834L40.9055 121.843L37.3786 126.834C36.2397 127.616 34.2313 127.963 33.2337 127.273C32.1257 126.513 29.9804 126.794 29.027 126.078C28.1529 125.428 27.9764 123.736 28.3383 122.713C30.4262 116.768 34.5358 110.907 39.515 106.557L39.5503 106.943V106.566C39.5503 106.566 39.5283 106.561 39.515 106.557C20.2737 101.781 1.44721 84.421 2.69642 59.4645C4.20165 29.3672 25.9679 3.67253 58.0546 2.0776C90.1412 0.478267 114.944 23.8003 118.886 53.6823C122.268 79.2583 107.356 101.328 83.3213 106.232Z" fill="white"/>
<path d="M81.1946 120.922L81.1637 121.041C81.1284 120.957 81.0975 120.874 81.0621 120.795L81.1946 120.922Z" stroke="#595959" stroke-width="4" stroke-miterlimit="10"/>
<path d="M45.0628 107.586C24.0828 105.051 1.32392 86.8262 2.69669 59.4671C4.20188 29.3708 25.9676 3.67686 58.0533 2.07758C90.1391 0.478299 114.942 23.8041 118.888 53.6807C122.437 80.5741 105.769 103.588 79.5409 106.857" stroke="#595959" stroke-width="4" stroke-linecap="round" stroke-linejoin="round"/>
<path d="M44.7935 113.878C44.7935 113.878 42.0568 118.342 40.172 123.829C37.4529 131.751 36.2964 140.674 36.2964 140.674C35.5814 143.337 37.2764 146.048 39.991 146.588L46.6165 147.906C48.7264 148.328 50.8628 147.296 51.8339 145.38L53.9836 141.452" stroke="#595959" stroke-width="4" stroke-linecap="round" stroke-linejoin="round"/>
<path d="M77.4928 113.368C77.4928 113.368 80.8695 119.005 82.9132 125.424C85.3984 133.249 85.8927 141.624 85.8927 141.624C86.5239 144.216 85.6455 146.083 82.9221 146.575L76.2745 147.766C74.1558 148.144 72.0414 147.072 71.1057 145.143L68.7044 140.863" stroke="#595959" stroke-width="4" stroke-linecap="round" stroke-linejoin="round"/>
<path d="M39.5143 106.558C34.5352 110.908 30.4257 116.764 28.3379 122.713C27.9804 123.737 28.1569 125.429 29.0265 126.079C29.9799 126.795 32.1252 126.509 33.2331 127.274C34.2351 127.964 36.2391 127.617 37.3779 126.835L40.9047 121.843" stroke="#595959" stroke-width="4" stroke-linecap="round" stroke-linejoin="round"/>
<path d="M83.0501 106.29C88.0556 110.635 92.2489 115.763 95.3167 121.466C95.8331 122.419 95.842 123.737 95.043 124.471C94.1646 125.275 91.4985 125.538 90.4612 126.118C89.4239 126.698 87.4332 127.037 86.5372 126.215L81.3771 121.246" stroke="#595959" stroke-width="4" stroke-linecap="round" stroke-linejoin="round"/>
<path d="M51.4852 140.806C58.2078 141.812 65.1025 141.659 71.7722 140.345" stroke="#595959" stroke-width="4" stroke-linecap="round" stroke-linejoin="round"/>
<path d="M59.7664 53.7363C59.9799 49.019 58.469 45.1194 56.3917 45.0262C54.3143 44.9331 52.4572 48.6816 52.2437 53.3989C52.0301 58.1161 53.541 62.0157 55.6184 62.1089C57.6957 62.2021 59.5528 58.4535 59.7664 53.7363Z" fill="#222222"/>
<path d="M70.1152 53.7424C70.3287 49.0251 68.8178 45.1255 66.7404 45.0323C64.6631 44.9391 62.806 48.6877 62.5924 53.4049C62.3789 58.1222 63.8898 62.0218 65.9671 62.115C68.0445 62.2081 69.9016 58.4596 70.1152 53.7424Z" fill="#222222"/>
<path d="M51.366 66.4134C53.4406 69.3923 56.6761 70.2666 60.0176 70.4511C63.359 70.6401 69.1591 69.5944 71.0836 65.9081" stroke="#222222" stroke-width="4" stroke-linecap="round" stroke-linejoin="round"/>
</svg>
