<svg width="122" height="150" viewBox="0 0 122 150" fill="none" xmlns="http://www.w3.org/2000/svg">
<path d="M83.5262 106.232L83.5439 106.548C88.4216 110.832 92.5091 115.872 95.5239 121.465C96.036 122.423 96.0492 123.736 95.2503 124.47C94.3718 125.274 91.7057 125.538 90.6639 126.118C89.6001 126.707 87.6358 127.036 86.7398 126.214L81.7164 121.377L81.584 121.249C81.6193 121.329 81.6502 121.412 81.6855 121.496C82.1932 122.739 82.6875 124.066 83.1201 125.428C85.6053 133.253 86.0997 141.628 86.0997 141.628C86.7309 144.22 85.8525 146.087 83.1245 146.579L76.4768 147.77C74.358 148.148 72.2436 147.076 71.3078 145.147L68.9065 140.872C64.0023 141.566 59.0099 141.65 54.0837 141.118L54.1985 141.456L52.0444 145.384C51.0732 147.296 48.9368 148.328 46.8268 147.906L40.2011 146.593C37.4864 146.052 35.7914 143.341 36.5065 140.679C36.5065 140.679 37.6586 131.751 40.3777 123.829C40.6116 123.148 40.8588 122.484 41.1104 121.843C41.1458 121.755 41.1811 121.667 41.2164 121.583H41.0884L41.1104 121.843L37.5835 126.834C36.4447 127.616 34.4362 127.963 33.4386 127.273C32.3307 126.513 30.1854 126.794 29.2319 126.078C28.3579 125.428 28.1813 123.736 28.5433 122.713C30.6312 116.768 34.7408 110.907 39.72 106.557L39.7553 106.943V106.566C39.7553 106.566 39.7332 106.561 39.72 106.557C20.4786 101.781 1.65216 84.421 2.90137 59.4645C4.40661 29.3672 26.1729 3.67253 58.2595 2.0776C90.3461 0.478267 115.149 23.8003 119.091 53.6823C122.472 79.2583 107.561 101.328 83.5262 106.232Z" fill="#FF8C3E"/>
<path d="M81.3996 120.922L81.3686 121.041C81.3333 120.957 81.3024 120.874 81.2671 120.795L81.3996 120.922Z" stroke="#D95800" stroke-width="4" stroke-miterlimit="10"/>
<path d="M45.2677 107.586C24.2877 105.051 1.52888 86.8262 2.90165 59.4671C4.40684 29.3708 26.1725 3.67686 58.2583 2.07758C90.344 0.478299 115.147 23.8041 119.093 53.6807C122.642 80.5741 105.974 103.588 79.7459 106.857" stroke="#D95800" stroke-width="4" stroke-linecap="round" stroke-linejoin="round"/>
<path d="M44.9984 113.878C44.9984 113.878 42.2617 118.342 40.3769 123.829C37.6579 131.751 36.5014 140.674 36.5014 140.674C35.7863 143.337 37.4813 146.048 40.196 146.588L46.8214 147.906C48.9314 148.328 51.0678 147.296 52.0389 145.38L54.1885 141.452" stroke="#D95800" stroke-width="4" stroke-linecap="round" stroke-linejoin="round"/>
<path d="M77.6977 113.368C77.6977 113.368 81.0745 119.005 83.1182 125.424C85.6033 133.249 86.0977 141.624 86.0977 141.624C86.7289 144.216 85.8505 146.083 83.127 146.575L76.4795 147.766C74.3607 148.144 72.2464 147.072 71.3106 145.143L68.9094 140.863" stroke="#D95800" stroke-width="4" stroke-linecap="round" stroke-linejoin="round"/>
<path d="M39.7192 106.558C34.7402 110.908 30.6307 116.764 28.5429 122.713C28.1853 123.737 28.3619 125.429 29.2314 126.079C30.1849 126.795 32.3301 126.509 33.438 127.274C34.44 127.964 36.444 127.617 37.5828 126.835L41.1097 121.843" stroke="#D95800" stroke-width="4" stroke-linecap="round" stroke-linejoin="round"/>
<path d="M83.255 106.29C88.2606 110.635 92.4539 115.763 95.5217 121.466C96.0381 122.419 96.047 123.737 95.248 124.471C94.3696 125.275 91.7035 125.538 90.6662 126.118C89.6289 126.698 87.6382 127.037 86.7422 126.215L81.5821 121.246" stroke="#D95800" stroke-width="4" stroke-linecap="round" stroke-linejoin="round"/>
<path d="M51.6901 140.806C58.4127 141.812 65.3075 141.659 71.9771 140.345" stroke="#D95800" stroke-width="4" stroke-linecap="round" stroke-linejoin="round"/>
<path d="M59.9714 53.7363C60.1849 49.019 58.674 45.1194 56.5966 45.0262C54.5193 44.9331 52.6622 48.6816 52.4486 53.3989C52.2351 58.1161 53.746 62.0157 55.8233 62.1089C57.9007 62.2021 59.7578 58.4535 59.9714 53.7363Z" fill="#853600"/>
<path d="M70.3201 53.7424C70.5337 49.0251 69.0227 45.1255 66.9454 45.0323C64.8681 44.9391 63.0109 48.6877 62.7974 53.4049C62.5838 58.1222 64.0947 62.0218 66.1721 62.115C68.2494 62.2081 70.1066 58.4596 70.3201 53.7424Z" fill="#853600"/>
<path d="M51.571 66.4134C53.6456 69.3923 56.8811 70.2666 60.2225 70.4511C63.564 70.6401 69.364 69.5944 71.2886 65.9081" stroke="#853600" stroke-width="4" stroke-linecap="round" stroke-linejoin="round"/>
</svg>
