<svg width="121" height="150" viewBox="0 0 121 150" fill="none" xmlns="http://www.w3.org/2000/svg">
<path d="M82.7311 106.232L82.7488 106.548C87.6265 110.832 91.714 115.872 94.7289 121.465C95.2409 122.423 95.2542 123.736 94.4552 124.47C93.5768 125.274 90.9106 125.538 89.8689 126.118C88.805 126.707 86.8408 127.036 85.9447 126.214L80.9213 121.377L80.7889 121.249C80.8242 121.329 80.8551 121.412 80.8904 121.496C81.3981 122.739 81.8925 124.066 82.3251 125.428C84.8102 133.253 85.3046 141.628 85.3046 141.628C85.9358 144.22 85.0574 146.087 82.3295 146.579L75.6817 147.77C73.5629 148.148 71.4485 147.076 70.5127 145.147L68.1114 140.872C63.2073 141.566 58.2148 141.65 53.2886 141.118L53.4034 141.456L51.2493 145.384C50.2782 147.296 48.1417 148.328 46.0317 147.906L39.4061 146.593C36.6913 146.052 34.9963 143.341 35.7114 140.679C35.7114 140.679 36.8635 131.751 39.5826 123.829C39.8166 123.148 40.0638 122.484 40.3154 121.843C40.3507 121.755 40.386 121.667 40.4213 121.583H40.2933L40.3154 121.843L36.7885 126.834C35.6496 127.616 33.6411 127.963 32.6435 127.273C31.5356 126.513 29.3903 126.794 28.4368 126.078C27.5628 125.428 27.3863 123.736 27.7482 122.713C29.8361 116.768 33.9457 110.907 38.9249 106.557L38.9602 106.943V106.566C38.9602 106.566 38.9382 106.561 38.9249 106.557C19.6835 101.781 0.857088 84.421 2.1063 59.4645C3.61153 29.3672 25.3778 3.67253 57.4644 2.0776C89.551 0.478267 114.354 23.8003 118.296 53.6823C121.677 79.2583 106.766 101.328 82.7311 106.232Z" fill="#FFEA2D"/>
<path d="M80.6045 120.922L80.5736 121.041C80.5382 120.957 80.5073 120.874 80.472 120.795L80.6045 120.922Z" stroke="#ED9C00" stroke-width="4" stroke-miterlimit="10"/>
<path d="M44.4727 107.586C23.4927 105.051 0.733803 86.8262 2.10657 59.4671C3.61177 29.3708 25.3775 3.67686 57.4632 2.07758C89.5489 0.478299 114.352 23.8041 118.298 53.6807C121.847 80.5741 105.179 103.588 78.9508 106.857" stroke="#ED9C00" stroke-width="4" stroke-linecap="round" stroke-linejoin="round"/>
<path d="M44.2034 113.878C44.2034 113.878 41.4667 118.342 39.5819 123.829C36.8628 131.751 35.7063 140.674 35.7063 140.674C34.9913 143.337 36.6863 146.048 39.4009 146.588L46.0264 147.906C48.1363 148.328 50.2727 147.296 51.2438 145.38L53.3935 141.452" stroke="#ED9C00" stroke-width="4" stroke-linecap="round" stroke-linejoin="round"/>
<path d="M76.9027 113.368C76.9027 113.368 80.2794 119.005 82.3231 125.424C84.8082 133.249 85.3026 141.624 85.3026 141.624C85.9338 144.216 85.0554 146.083 82.332 146.575L75.6844 147.766C73.5657 148.144 71.4513 147.072 70.5155 145.143L68.1143 140.863" stroke="#ED9C00" stroke-width="4" stroke-linecap="round" stroke-linejoin="round"/>
<path d="M38.9242 106.558C33.9451 110.908 29.8356 116.764 27.7478 122.713C27.3902 123.737 27.5668 125.429 28.4364 126.079C29.3898 126.795 31.535 126.509 32.643 127.274C33.6449 127.964 35.6489 127.617 36.7878 126.835L40.3146 121.843" stroke="#ED9C00" stroke-width="4" stroke-linecap="round" stroke-linejoin="round"/>
<path d="M82.46 106.29C87.4655 110.635 91.6588 115.763 94.7266 121.466C95.243 122.419 95.2519 123.737 94.4529 124.471C93.5745 125.275 90.9084 125.538 89.8711 126.118C88.8338 126.698 86.8431 127.037 85.9471 126.215L80.787 121.246" stroke="#ED9C00" stroke-width="4" stroke-linecap="round" stroke-linejoin="round"/>
<path d="M50.8951 140.806C57.6177 141.812 64.5124 141.659 71.1821 140.345" stroke="#ED9C00" stroke-width="4" stroke-linecap="round" stroke-linejoin="round"/>
<path d="M59.1762 53.7363C59.3898 49.019 57.8789 45.1194 55.8015 45.0262C53.7242 44.9331 51.8671 48.6816 51.6535 53.3989C51.44 58.1161 52.9509 62.0157 55.0282 62.1089C57.1056 62.2021 58.9627 58.4535 59.1762 53.7363Z" fill="#774F00"/>
<path d="M69.525 53.7424C69.7386 49.0251 68.2277 45.1255 66.1503 45.0323C64.073 44.9391 62.2158 48.6877 62.0023 53.4049C61.7887 58.1222 63.2997 62.0218 65.377 62.115C67.4543 62.2081 69.3115 58.4596 69.525 53.7424Z" fill="#774F00"/>
<path d="M50.7759 66.4134C52.8505 69.3923 56.086 70.2666 59.4274 70.4511C62.7689 70.6401 68.5689 69.5944 70.4935 65.9081" stroke="#774F00" stroke-width="4" stroke-linecap="round" stroke-linejoin="round"/>
</svg>
