<svg width="121" height="150" viewBox="0 0 121 150" fill="none" xmlns="http://www.w3.org/2000/svg">
<path d="M82.9361 106.232L82.9538 106.548C87.8315 110.832 91.919 115.872 94.9338 121.465C95.4459 122.423 95.4591 123.736 94.6602 124.47C93.7817 125.274 91.1156 125.538 90.0738 126.118C89.01 126.707 87.0457 127.036 86.1497 126.214L81.1263 121.377L80.9939 121.249C81.0292 121.329 81.0601 121.412 81.0954 121.496C81.6031 122.739 82.0974 124.066 82.53 125.428C85.0152 133.253 85.5096 141.628 85.5096 141.628C86.1408 144.22 85.2624 146.087 82.5344 146.579L75.8867 147.77C73.7679 148.148 71.6535 147.076 70.7177 145.147L68.3164 140.872C63.4122 141.566 58.4198 141.65 53.4936 141.118L53.6084 141.456L51.4543 145.384C50.4831 147.296 48.3467 148.328 46.2367 147.906L39.611 146.593C36.8963 146.052 35.2013 143.341 35.9164 140.679C35.9164 140.679 37.0685 131.751 39.7876 123.829C40.0215 123.148 40.2687 122.484 40.5203 121.843C40.5557 121.755 40.591 121.667 40.6263 121.583H40.4983L40.5203 121.843L36.9934 126.834C35.8546 127.616 33.8461 127.963 32.8485 127.273C31.7406 126.513 29.5953 126.794 28.6418 126.078C27.7678 125.428 27.5912 123.736 27.9532 122.713C30.0411 116.768 34.1507 110.907 39.1299 106.557L39.1652 106.943V106.566C39.1652 106.566 39.1431 106.561 39.1299 106.557C19.8885 101.781 1.06206 84.421 2.31127 59.4645C3.8165 29.3672 25.5828 3.67253 57.6694 2.0776C89.756 0.478267 114.559 23.8003 118.501 53.6823C121.882 79.2583 106.971 101.328 82.9361 106.232Z" fill="#3CE3AC"/>
<path d="M80.8095 120.922L80.7786 121.041C80.7432 120.957 80.7123 120.874 80.677 120.795L80.8095 120.922Z" stroke="#168862" stroke-width="4" stroke-miterlimit="10"/>
<path d="M44.6776 107.586C23.6976 105.051 0.938775 86.8262 2.31154 59.4671C3.81674 29.3708 25.5824 3.67686 57.6682 2.07758C89.7539 0.478299 114.556 23.8041 118.503 53.6807C122.052 80.5741 105.384 103.588 79.1558 106.857" stroke="#168862" stroke-width="4" stroke-linecap="round" stroke-linejoin="round"/>
<path d="M44.4083 113.878C44.4083 113.878 41.6716 118.342 39.7868 123.829C37.0678 131.751 35.9113 140.674 35.9113 140.674C35.1962 143.337 36.8912 146.048 39.6059 146.588L46.2314 147.906C48.3413 148.328 50.4777 147.296 51.4488 145.38L53.5984 141.452" stroke="#168862" stroke-width="4" stroke-linecap="round" stroke-linejoin="round"/>
<path d="M77.1076 113.368C77.1076 113.368 80.4844 119.005 82.5281 125.424C85.0132 133.249 85.5076 141.624 85.5076 141.624C86.1388 144.216 85.2604 146.083 82.5369 146.575L75.8894 147.766C73.7706 148.144 71.6563 147.072 70.7205 145.143L68.3193 140.863" stroke="#168862" stroke-width="4" stroke-linecap="round" stroke-linejoin="round"/>
<path d="M39.1291 106.558C34.1501 110.908 30.0406 116.764 27.9527 122.713C27.5952 123.737 27.7718 125.429 28.6413 126.079C29.5948 126.795 31.74 126.509 32.8479 127.274C33.8499 127.964 35.8539 127.617 36.9927 126.835L40.5196 121.843" stroke="#168862" stroke-width="4" stroke-linecap="round" stroke-linejoin="round"/>
<path d="M82.6649 106.29C87.6705 110.635 91.8638 115.763 94.9316 121.466C95.448 122.419 95.4568 123.737 94.6579 124.471C93.7795 125.275 91.1134 125.538 90.0761 126.118C89.0388 126.698 87.0481 127.037 86.152 126.215L80.992 121.246" stroke="#168862" stroke-width="4" stroke-linecap="round" stroke-linejoin="round"/>
<path d="M51.1001 140.806C57.8227 141.812 64.7174 141.659 71.387 140.345" stroke="#168862" stroke-width="4" stroke-linecap="round" stroke-linejoin="round"/>
<path d="M59.3812 53.7363C59.5948 49.019 58.0839 45.1194 56.0065 45.0262C53.9292 44.9331 52.072 48.6816 51.8585 53.3989C51.6449 58.1161 53.1559 62.0157 55.2332 62.1089C57.3106 62.2021 59.1677 58.4535 59.3812 53.7363Z" fill="#004730"/>
<path d="M69.73 53.7424C69.9436 49.0251 68.4327 45.1255 66.3553 45.0323C64.278 44.9391 62.4208 48.6877 62.2073 53.4049C61.9937 58.1222 63.5046 62.0218 65.582 62.115C67.6593 62.2081 69.5165 58.4596 69.73 53.7424Z" fill="#004730"/>
<path d="M50.9809 66.4134C53.0555 69.3923 56.291 70.2666 59.6324 70.4511C62.9739 70.6401 68.7739 69.5944 70.6985 65.9081" stroke="#004730" stroke-width="4" stroke-linecap="round" stroke-linejoin="round"/>
</svg>
